<svg width="95" height="25" viewBox="0 0 95 25" fill="none" xmlns="http://www.w3.org/2000/svg">
<g clip-path="url(#clip0_2836_3618)">
<path d="M54.5805 7.57943C53.0215 7.57943 51.8089 8.22903 50.9428 9.54266C50.1921 10.6542 49.8168 12.1266 49.8168 13.9599C49.8168 16.0964 50.2932 17.742 51.2603 18.8969C52.112 19.8929 53.2236 20.3982 54.6094 20.3982C56.0674 20.3982 57.2222 19.8352 58.045 18.6948C58.8678 17.5399 59.2865 15.9376 59.2865 13.8733C59.2865 11.7802 58.8101 10.1634 57.8429 9.05185C57.0201 8.07024 55.923 7.57943 54.5805 7.57943ZM54.6094 3.1333C57.8285 3.1333 60.3836 4.2737 62.2891 6.54008C63.9203 8.51774 64.7431 11.0006 64.7431 13.9888C64.7431 17.4389 63.6893 20.1672 61.5673 22.1882C59.7195 23.9637 57.3954 24.8443 54.6094 24.8443C51.3325 24.8443 48.7341 23.7039 46.8142 21.4375C45.1541 19.4743 44.3313 16.9914 44.3313 13.9888C44.3313 10.5387 45.3562 7.85371 47.3916 5.90492C49.3548 4.05717 51.7511 3.1333 54.6094 3.1333Z" fill="white"/>
<path d="M79.8572 9.34082L74.8914 24.3249H69.1749L64.0936 9.34082H69.2904L70.8206 14.5376C71.398 16.4286 71.8166 18.2187 72.062 19.9365C72.2786 18.5651 72.6827 16.8473 73.2746 14.7686L74.8914 9.34082H79.8572Z" fill="white"/>
<path d="M90.1785 15.1727C89.9331 13.2239 88.8937 12.2567 87.0893 12.2567C85.256 12.2567 84.2022 13.2239 83.9135 15.1727H90.1785ZM94.7112 19.7343C94.4803 20.6148 94.0328 21.4377 93.3832 22.1883C91.8963 23.8773 89.8465 24.729 87.2337 24.729C84.8662 24.729 82.9463 24.0794 81.4883 22.7657C79.8571 21.3077 79.0343 19.3734 79.0343 16.9627C79.0343 14.4364 79.886 12.4155 81.5749 10.8998C83.0329 9.58612 84.8518 8.93652 87.0316 8.93652C89.6733 8.93652 91.6942 9.80265 93.1233 11.5349C94.3792 13.0506 95 15.0427 95 17.5112C95 17.6844 95 17.8432 95 17.9731H83.8558C83.8991 19.0558 84.2166 19.8931 84.8085 20.5138C85.4004 21.1056 86.2087 21.4088 87.2337 21.4088C88.4896 21.4088 89.4423 20.8458 90.0919 19.7343H94.7112Z" fill="white"/>
<path fill-rule="evenodd" clip-rule="evenodd" d="M41.2711 11.405V7.13211H26.1427V11.405H32.3499H33.577H34.3709C32.7541 12.7042 31.7292 13.5992 31.2817 14.0611L25.4498 20.0663V24.3392H41.9351V20.0663H35.2082L33.5481 20.1385C33.3316 20.1385 32.9562 20.1096 32.451 20.0663C33.0717 19.5755 33.577 19.1713 33.9812 18.8393C34.6163 18.3052 35.0638 17.9154 35.3092 17.6845L41.2711 11.405ZM20.6283 3.913C18.4341 1.30017 15.5037 0.000976562 11.8082 0.000976562C8.53138 0.000976562 5.7742 1.0692 3.52226 3.19122C1.16928 5.41429 0 8.51792 0 12.4732C0 15.9233 0.952743 18.7671 2.85823 21.0335C3.81097 22.1595 4.90807 23.04 6.14952 23.6752L8.08388 18.2474C8.04057 18.2041 7.99726 18.1464 7.95396 18.1031C6.84243 16.775 6.29388 14.884 6.29388 12.4299C6.29388 10.3368 6.72694 8.6334 7.59307 7.36308C8.58912 5.86179 9.97493 5.11114 11.7649 5.11114C13.3095 5.11114 14.5654 5.67413 15.5182 6.80009C16.6297 8.08485 17.1782 9.9326 17.1782 12.3433C17.1782 14.7107 16.7019 16.5585 15.7491 17.8866C15.6914 17.9732 15.6192 18.0598 15.5615 18.132L17.5103 23.5886C18.3331 23.1411 19.0982 22.5781 19.7911 21.8996C22.2162 19.5755 23.4432 16.443 23.4432 12.4877C23.4432 9.0376 22.5049 6.1938 20.6283 3.913Z" fill="#FAAD1D"/>
<path d="M11.144 23.242L11.0286 24.4257H12.7897L12.6742 23.242H11.144ZM11.274 18.9835L11.1729 21.3509H12.6309L12.5299 18.9835H11.274ZM11.3895 14.6384L11.3028 16.5294H12.501L12.4144 14.6384H11.3895ZM11.4616 11.809L11.4039 13.0794H12.3855L12.3278 11.809H11.4616ZM11.5194 9.45605L11.4905 10.25H12.3133L12.2845 9.45605H11.5194Z" fill="white"/>
<path d="M12.2847 13.8733C12.2558 13.8011 12.1981 13.7434 12.1403 13.7001C12.0826 13.6568 11.996 13.6423 11.9238 13.6423C11.8516 13.6423 11.7794 13.6568 11.7073 13.7001C11.6495 13.7434 11.5918 13.8011 11.5629 13.8733L9.57081 17.973C9.52751 18.0452 9.51307 18.1318 9.52751 18.2184C9.54194 18.305 9.57081 18.3916 9.64299 18.4494C9.70073 18.5071 9.77291 18.5504 9.85952 18.5648C9.94614 18.5793 10.0328 18.5648 10.1049 18.536L11.9238 17.7276L13.7427 18.536C13.8149 18.5648 13.9015 18.5793 13.9881 18.5648C14.0747 18.5504 14.1469 18.5071 14.2046 18.4494C14.2624 18.3916 14.3057 18.305 14.3057 18.2184C14.3201 18.1318 14.3057 18.0452 14.2624 17.973L12.2847 13.8733Z" fill="#FAAD1D"/>
<path d="M12.0826 16.9048C12.0248 16.8759 11.9815 16.8759 11.9238 16.8759C11.8661 16.8759 11.8083 16.8903 11.765 16.9048L10.7978 17.3378L11.9382 14.9993L13.0786 17.3378L12.0826 16.9048ZM12.2847 13.8733C12.2558 13.8011 12.1981 13.7434 12.1403 13.7001C12.0826 13.6568 11.996 13.6423 11.9238 13.6423C11.8516 13.6423 11.7794 13.6568 11.7073 13.7001C11.6495 13.7434 11.5918 13.8011 11.5629 13.8733L9.57081 17.973C9.52751 18.0452 9.51307 18.1318 9.52751 18.2184C9.54194 18.305 9.57081 18.3916 9.64299 18.4494C9.70073 18.5071 9.77291 18.5504 9.85952 18.5648C9.94614 18.5793 10.0328 18.5648 10.1049 18.536L11.9238 17.7276L13.7427 18.536C13.8149 18.5648 13.9015 18.5793 13.9881 18.5648C14.0747 18.5504 14.1469 18.5071 14.2046 18.4494C14.2624 18.3916 14.3057 18.305 14.3057 18.2184C14.3201 18.1318 14.3057 18.0452 14.2624 17.973L12.2847 13.8733Z" fill="white"/>
<path d="M11.6927 7.95483H11.7793L5.86078 24.4113H2.49731L11.6927 7.95483Z" fill="white"/>
<path d="M11.9959 7.95483H11.9237L17.8278 24.4113H21.1913L11.9959 7.95483Z" fill="white"/>
</g>
<defs>
<clipPath id="clip0_2836_3618">
<rect width="95" height="24.8435" fill="white"/>
</clipPath>
</defs>
</svg>
