<svg width="72" height="72" viewBox="0 0 72 72" fill="none" xmlns="http://www.w3.org/2000/svg">
<g clip-path="url(#clip0_65_1143)">
<rect x="35.8457" y="-0.303589" width="36" height="72" fill="#FAAD1D"/>
<path d="M45.858 32.611L39.1783 43.2282C38.9051 43.6069 38.5727 43.9393 38.194 44.2125C37.2796 44.8504 36.1507 45.1019 35.052 44.9125C33.9534 44.7231 32.9738 44.1081 32.3258 43.2009C31.6778 42.2938 31.4138 41.1676 31.5909 40.067C31.7681 38.9663 32.3722 37.9799 33.2721 37.3219L43.8893 30.6422C44.1306 30.474 44.4177 30.3838 44.7119 30.3838C45.0061 30.3838 45.2932 30.474 45.5346 30.6422C45.8377 30.8611 46.0419 31.191 46.1025 31.5599C46.1631 31.9288 46.0752 32.3067 45.858 32.611Z" fill="white"/>
<path d="M36 9C18.6047 9 4.50003 23.0906 4.50003 40.4859C4.48936 48.1822 7.30696 55.614 12.4172 61.3687C12.5719 61.5375 12.7125 61.7062 12.8672 61.8609C13.2 62.2212 13.604 62.5084 14.0535 62.7045C14.5031 62.9005 14.9885 63.001 15.4789 62.9997C15.9693 62.9984 16.4542 62.8952 16.9027 62.6968C17.3512 62.4983 17.7536 62.2089 18.0844 61.8469C20.3646 59.3688 23.1342 57.3908 26.2179 56.0378C29.3016 54.6847 32.6325 53.9862 36 53.9862C39.3675 53.9862 42.6984 54.6847 45.7822 56.0378C48.8659 57.3908 51.6354 59.3688 53.9157 61.8469C54.2465 62.2089 54.6489 62.4983 55.0974 62.6968C55.5459 62.8952 56.0307 62.9984 56.5212 62.9997C57.0116 63.001 57.497 62.9005 57.9465 62.7045C58.3961 62.5084 58.8001 62.2212 59.1328 61.8609L59.5828 61.3687C64.6931 55.614 67.5107 48.1822 67.5 40.4859C67.5 23.0906 53.3953 9 36 9Z" stroke="white" stroke-width="4" stroke-linecap="round" stroke-linejoin="round"/>
<path d="M36 18V22.5" stroke="white" stroke-width="4" stroke-miterlimit="10" stroke-linecap="round"/>
<path d="M58.5 40.5H54" stroke="white" stroke-width="4" stroke-miterlimit="10" stroke-linecap="round"/>
<path d="M18 40.5H13.5" stroke="white" stroke-width="4" stroke-miterlimit="10" stroke-linecap="round"/>
<path d="M23.2722 27.7721L20.0898 24.5897" stroke="white" stroke-width="4" stroke-miterlimit="10" stroke-linecap="round"/>
<path d="M48.7275 27.7721L51.9099 24.5897" stroke="white" stroke-width="4" stroke-miterlimit="10" stroke-linecap="round"/>
</g>
<defs>
<clipPath id="clip0_65_1143">
<rect width="72" height="72" fill="white"/>
</clipPath>
</defs>
</svg>
