<svg width="100%" height="100%" viewBox="0 0 44 44" fill="none" xmlns="http://www.w3.org/2000/svg">
<path d="M13.7501 13.186C17.5317 14.6668 22.0077 14.6668 22.0077 14.6668C22.0077 14.6668 26.4734 14.6668 30.2501 13.186C34.3767 18.002 37.2684 24.3509 39.169 29.6979C41.0931 35.111 36.8506 40.3335 31.1057 40.3335H12.8515C7.1209 40.3335 2.88379 35.1349 4.79817 29.7335C6.68984 24.3961 9.58364 18.0451 13.7501 13.186Z" stroke="#605B5D" stroke-width="2" stroke-linejoin="round"/>
<path d="M16.5 25.6666H27.5" stroke="#FAAD1D" stroke-width="2" stroke-linecap="round" stroke-linejoin="round"/>
<path d="M16.5 31.1666H27.5" stroke="#FAAD1D" stroke-width="2" stroke-linecap="round" stroke-linejoin="round"/>
<path d="M22.0078 25.6666V34.8333" stroke="#FAAD1D" stroke-width="2" stroke-linecap="round" stroke-linejoin="round"/>
<path d="M27.5 20.1666L22 25.6666L16.5 20.1666" stroke="#FAAD1D" stroke-width="2" stroke-linecap="round" stroke-linejoin="round"/>
<path fill-rule="evenodd" clip-rule="evenodd" d="M22.0007 14.6666C28.582 14.6666 33.9173 12.2042 33.9173 9.16663C33.9173 6.12906 28.582 3.66663 22.0007 3.66663C15.4193 3.66663 10.084 6.12906 10.084 9.16663C10.084 12.2042 15.4193 14.6666 22.0007 14.6666Z" stroke="#605B5D" stroke-width="2" stroke-linecap="round" stroke-linejoin="round"/>
</svg>
