<svg width="100%" height="100%" viewBox="0 0 44 45" fill="none" xmlns="http://www.w3.org/2000/svg">
<g clip-path="url(#clip0_1336_10661)">
<path d="M22 27.9062C25.0376 27.9062 27.5 25.4438 27.5 22.4062C27.5 19.3687 25.0376 16.9062 22 16.9062C18.9624 16.9062 16.5 19.3687 16.5 22.4062C16.5 25.4438 18.9624 27.9062 22 27.9062Z" fill="#FAAD1D"/>
<path d="M34.8333 11.4062H9.16667C7.14162 11.4062 5.5 13.0479 5.5 15.0729V29.7396C5.5 31.7646 7.14162 33.4062 9.16667 33.4062H34.8333C36.8584 33.4062 38.5 31.7646 38.5 29.7396V15.0729C38.5 13.0479 36.8584 11.4062 34.8333 11.4062Z" stroke="#605B5D" stroke-width="2" stroke-linecap="round" stroke-linejoin="round"/>
<path d="M33 22.4062H33.0183" stroke="#605B5D" stroke-width="2" stroke-linecap="round" stroke-linejoin="round"/>
<path d="M11 22.4062H11.0183" stroke="#605B5D" stroke-width="2" stroke-linecap="round" stroke-linejoin="round"/>
</g>
<defs>
<clipPath id="clip0_1336_10661">
<rect width="44" height="44" fill="white" transform="translate(0 0.40625)"/>
</clipPath>
</defs>
</svg>
