<svg width="100%" height="100%" viewBox="0 0 48 49" fill="none" xmlns="http://www.w3.org/2000/svg">
<path d="M23.999 38.4062C20.133 38.4062 16.6331 36.8393 14.0996 34.3059L23.999 24.4062V10.4062C31.731 10.4062 37.999 16.6743 37.999 24.4062C37.999 32.1383 31.731 38.4062 23.999 38.4062Z" fill="#FAAD1D"/>
<path fill-rule="evenodd" clip-rule="evenodd" d="M46 24.4062C46 36.5564 36.1502 46.4062 24 46.4062C11.8497 46.4062 2 36.5564 2 24.4062C2 12.256 11.8497 2.40625 24 2.40625C36.1502 2.40625 46 12.256 46 24.4062ZM42 24.4062C42 34.3475 33.9412 42.4062 24 42.4062C14.0589 42.4062 6 34.3475 6 24.4062C6 14.4651 14.0589 6.40625 24 6.40625C33.9412 6.40625 42 14.4651 42 24.4062Z" fill="#605B5D"/>
</svg>
