<svg width="72" height="72" viewBox="0 0 72 72" fill="none" xmlns="http://www.w3.org/2000/svg">
<g id="Health and Fitness" clip-path="url(#clip0_65_2197)">
<rect id="Rectangle 766" x="35.8203" y="0.195312" width="36" height="72" fill="#FAAD1D"/>
<path id="Vector" d="M58.5004 40.7157L36.0004 62.9997L27.3124 54.3957M8.96141 30.0837C8.93633 26.9198 9.91238 23.829 11.75 21.2532C13.5875 18.6775 16.1926 16.7488 19.1924 15.743C22.1923 14.7371 25.4335 14.7057 28.4523 15.653C31.4712 16.6004 34.1131 18.4782 36.0004 21.0177C37.241 19.3678 38.8088 17.9917 40.6057 16.9755C42.4026 15.9594 44.3899 15.3251 46.4432 15.1123C48.4965 14.8995 50.5717 15.1128 52.5387 15.7389C54.5058 16.365 56.3225 17.3903 57.8751 18.7508C59.4276 20.1113 60.6827 21.7776 61.5617 23.6454C62.4406 25.5132 62.9246 27.5424 62.9833 29.6058C63.042 31.6693 62.6742 33.7227 61.9028 35.6375C61.1314 37.5522 59.9731 39.2872 58.5004 40.7337" stroke="white" stroke-width="4" stroke-linecap="round" stroke-linejoin="round"/>
<path id="Vector_2" d="M9 39H15L21 48L27 30L30 39H39" stroke="white" stroke-width="4" stroke-linecap="round" stroke-linejoin="round"/>
</g>
<defs>
<clipPath id="clip0_65_2197">
<rect width="72" height="72" fill="white"/>
</clipPath>
</defs>
</svg>
