<svg width="72" height="72" viewBox="0 0 72 72" fill="none" xmlns="http://www.w3.org/2000/svg">
<g id="vehicle sticker" clip-path="url(#clip0_65_950)">
<rect id="Rectangle 766" x="36" width="36" height="72" fill="#FAAD1D"/>
<path id="Vector" d="M60.0001 36L54.0001 37.5C51.3817 37.729 48.745 37.3819 46.2751 36.4829C43.8053 35.5839 41.5623 34.1549 39.7037 32.2964C37.8452 30.4379 36.4162 28.1948 35.5172 25.725C34.6183 23.2551 34.2711 20.6184 34.5001 18L36.0001 12L60.0001 36Z" stroke="white" stroke-width="4" stroke-linecap="round" stroke-linejoin="round"/>
<path id="Vector_2" d="M60 36C60 40.7468 58.5924 45.3869 55.9553 49.3337C53.3181 53.2805 49.5698 56.3566 45.1844 58.1731C40.799 59.9896 35.9734 60.4649 31.3178 59.5388C26.6623 58.6128 22.3859 56.327 19.0294 52.9706C15.673 49.6141 13.3872 45.3377 12.4612 40.6822C11.5351 36.0266 12.0104 31.201 13.8269 26.8156C15.6434 22.4302 18.7195 18.6819 22.6663 16.0447C26.6131 13.4076 31.2533 12 36 12" stroke="white" stroke-width="4" stroke-linecap="round" stroke-linejoin="round"/>
</g>
<defs>
<clipPath id="clip0_65_950">
<rect width="72" height="72" fill="white"/>
</clipPath>
</defs>
</svg>
