<svg width="96" height="96" viewBox="0 0 96 96" fill="none" xmlns="http://www.w3.org/2000/svg">
<path d="M61.1436 43.4813L52.2374 57.6375C51.873 58.1425 51.4299 58.5857 50.9249 58.95C49.7058 59.8005 48.2005 60.1359 46.7356 59.8834C45.2708 59.6308 43.9647 58.8108 43.1007 57.6013C42.2367 56.3917 41.8846 54.8902 42.1208 53.4226C42.357 51.9551 43.1625 50.6399 44.3624 49.7625L58.5186 40.8563C58.8404 40.632 59.2233 40.5117 59.6155 40.5117C60.0078 40.5117 60.3906 40.632 60.7124 40.8563C61.1165 41.1481 61.3887 41.588 61.4695 42.0798C61.5504 42.5717 61.4332 43.0755 61.1436 43.4813Z" fill="#FAAD1D"/>
<path d="M48 12C24.8063 12 6.00004 30.7875 6.00004 53.9812C5.98581 64.2429 9.74261 74.152 16.5563 81.825C16.7625 82.05 16.95 82.275 17.1563 82.4812C17.6 82.9616 18.1386 83.3446 18.738 83.606C19.3374 83.8673 19.9846 84.0014 20.6385 83.9996C21.2925 83.9978 21.9389 83.8603 22.5369 83.5957C23.1349 83.3311 23.6714 82.9452 24.1125 82.4625C27.1529 79.1585 30.8455 76.5211 34.9572 74.717C39.0688 72.913 43.51 71.9815 48 71.9815C52.49 71.9815 56.9312 72.913 61.0429 74.717C65.1545 76.5211 68.8472 79.1585 71.8875 82.4625C72.3286 82.9452 72.8652 83.3311 73.4632 83.5957C74.0612 83.8603 74.7076 83.9978 75.3615 83.9996C76.0155 84.0014 76.6626 83.8673 77.262 83.606C77.8615 83.3446 78.4001 82.9616 78.8438 82.4812L79.4438 81.825C86.2575 74.152 90.0143 64.2429 90 53.9812C90 30.7875 71.1938 12 48 12Z" stroke="#FAAD1D" stroke-width="8" stroke-linecap="round" stroke-linejoin="round"/>
<path d="M48 24V30" stroke="#FAAD1D" stroke-width="8" stroke-miterlimit="10" stroke-linecap="round"/>
<path d="M78 54H72" stroke="#FAAD1D" stroke-width="8" stroke-miterlimit="10" stroke-linecap="round"/>
<path d="M24 54H18" stroke="#FAAD1D" stroke-width="8" stroke-miterlimit="10" stroke-linecap="round"/>
<path d="M31.0293 37.0293L26.7861 32.7861" stroke="#FAAD1D" stroke-width="8" stroke-miterlimit="10" stroke-linecap="round"/>
<path d="M64.9707 37.0293L69.2138 32.7861" stroke="#FAAD1D" stroke-width="8" stroke-miterlimit="10" stroke-linecap="round"/>
</svg>
