<svg width="97" height="97" viewBox="0 0 97 97" fill="none" xmlns="http://www.w3.org/2000/svg">
<path d="M61.6434 43.568L52.7371 57.7242C52.3728 58.2292 51.9296 58.6723 51.4246 59.0367C50.2055 59.8872 48.7002 60.2226 47.2354 59.97C45.7706 59.7175 44.4644 58.8975 43.6004 57.6879C42.7365 56.4784 42.3844 54.9769 42.6206 53.5093C42.8568 52.0418 43.6623 50.7266 44.8621 49.8492L59.0184 40.943C59.3402 40.7186 59.723 40.5984 60.1153 40.5984C60.5075 40.5984 60.8903 40.7186 61.2121 40.943C61.6163 41.2347 61.8885 41.6746 61.9693 42.1665C62.0501 42.6584 61.9329 43.1622 61.6434 43.568Z" fill="#333333"/>
<path d="M48.5 12.0867C25.3063 12.0867 6.50004 30.8742 6.50004 54.0679C6.48581 64.3295 10.2426 74.2387 17.0563 81.9117C17.2625 82.1367 17.45 82.3617 17.6563 82.5679C18.1 83.0483 18.6386 83.4313 19.238 83.6926C19.8374 83.954 20.4846 84.088 21.1385 84.0863C21.7925 84.0845 22.4389 83.947 23.0369 83.6824C23.6349 83.4178 24.1714 83.0319 24.6125 82.5492C27.6529 79.2451 31.3455 76.6077 35.4572 74.8037C39.5688 72.9997 44.01 72.0682 48.5 72.0682C52.99 72.0682 57.4312 72.9997 61.5429 74.8037C65.6545 76.6077 69.3472 79.2451 72.3875 82.5492C72.8286 83.0319 73.3652 83.4178 73.9632 83.6824C74.5612 83.947 75.2076 84.0845 75.8615 84.0863C76.5155 84.088 77.1626 83.954 77.762 83.6926C78.3615 83.4313 78.9001 83.0483 79.3438 82.5679L79.9438 81.9117C86.7575 74.2387 90.5143 64.3295 90.5 54.0679C90.5 30.8742 71.6938 12.0867 48.5 12.0867Z" stroke="#333333" stroke-width="8" stroke-linecap="round" stroke-linejoin="round"/>
<path d="M48.5 24.0867V30.0867" stroke="#333333" stroke-width="8" stroke-miterlimit="10" stroke-linecap="round"/>
<path d="M78.5 54.0867H72.5" stroke="#333333" stroke-width="8" stroke-miterlimit="10" stroke-linecap="round"/>
<path d="M24.5 54.0867H18.5" stroke="#333333" stroke-width="8" stroke-miterlimit="10" stroke-linecap="round"/>
<path d="M31.5293 37.1161L27.2861 32.8729" stroke="#333333" stroke-width="8" stroke-miterlimit="10" stroke-linecap="round"/>
<path d="M65.4707 37.1161L69.7138 32.8729" stroke="#333333" stroke-width="8" stroke-miterlimit="10" stroke-linecap="round"/>
</svg>
