<svg width="97" height="97" viewBox="0 0 97 97" fill="none" xmlns="http://www.w3.org/2000/svg">
<g clip-path="url(#clip0_2654_2560)">
<path d="M40.4 35.9862C42.3578 34.0282 43.691 31.5336 44.2311 28.818C44.7712 26.1023 44.4939 23.2874 43.4342 20.7293C42.3745 18.1712 40.5801 15.9848 38.2778 14.4465C35.9756 12.9083 33.2689 12.0872 30.5 12.0872C27.7311 12.0872 25.0244 12.9083 22.7222 14.4465C20.4199 15.9848 18.6255 18.1712 17.5658 20.7293C16.5062 23.2874 16.2288 26.1023 16.7689 28.818C17.309 31.5336 18.6422 34.0282 20.6 35.9862L30.5 45.8862L40.4 35.9862ZM30.5 57.1982L14.94 41.6462C11.8643 38.569 9.77002 34.649 8.92198 30.3817C8.07394 26.1144 8.51022 21.6915 10.1756 17.6721C11.8411 13.6527 14.6609 10.2174 18.2785 7.80046C21.8962 5.38352 26.1493 4.09351 30.5 4.09351C34.8508 4.09351 39.1038 5.38352 42.7215 7.80046C46.3391 10.2174 49.1589 13.6527 50.8244 17.6721C52.4898 21.6915 52.9261 26.1144 52.078 30.3817C51.23 34.649 49.1357 38.569 46.06 41.6462L30.5 57.2062V57.1982ZM30.5 32.0862C28.9087 32.0862 27.3826 31.4541 26.2574 30.3288C25.1322 29.2036 24.5 27.6775 24.5 26.0862C24.5 24.4949 25.1322 22.9688 26.2574 21.8436C27.3826 20.7183 28.9087 20.0862 30.5 20.0862C32.0913 20.0862 33.6174 20.7183 34.7427 21.8436C35.8679 22.9688 36.5 24.4949 36.5 26.0862C36.5 27.6775 35.8679 29.2036 34.7427 30.3288C33.6174 31.4541 32.0913 32.0862 30.5 32.0862ZM66.5 81.8862L76.4 71.9862C78.3578 70.0282 79.691 67.5336 80.2311 64.818C80.7712 62.1023 80.4939 59.2874 79.4342 56.7293C78.3745 54.1712 76.5801 51.9848 74.2778 50.4465C71.9756 48.9083 69.2689 48.0872 66.5 48.0872C63.7311 48.0872 61.0244 48.9083 58.7222 50.4465C56.4199 51.9848 54.6255 54.1712 53.5658 56.7293C52.5062 59.2874 52.2288 62.1023 52.7689 64.818C53.309 67.5336 54.6422 70.0282 56.6 71.9862L66.5 81.8862ZM82.06 77.6462L66.5 93.1982L50.94 77.6422C47.8643 74.565 45.77 70.645 44.922 66.3777C44.0739 62.1104 44.5102 57.6875 46.1757 53.6681C47.8411 49.6487 50.6609 46.2134 54.2785 43.7965C57.8962 41.3795 62.1493 40.0895 66.5 40.0895C70.8508 40.0895 75.1038 41.3795 78.7215 43.7965C82.3391 46.2134 85.1589 49.6487 86.8244 53.6681C88.4898 57.6875 88.9261 62.1104 88.078 66.3777C87.23 70.645 85.1357 74.569 82.06 77.6462ZM66.5 68.0862C64.9087 68.0862 63.3826 67.4541 62.2574 66.3288C61.1322 65.2036 60.5 63.6775 60.5 62.0862C60.5 60.4949 61.1322 58.9688 62.2574 57.8436C63.3826 56.7183 64.9087 56.0862 66.5 56.0862C68.0913 56.0862 69.6174 56.7183 70.7426 57.8436C71.8679 58.9688 72.5 60.4949 72.5 62.0862C72.5 63.6775 71.8679 65.2036 70.7426 66.3288C69.6174 67.4541 68.0913 68.0862 66.5 68.0862Z" fill="#333333"/>
</g>
<defs>
<clipPath id="clip0_2654_2560">
<rect width="96" height="96" fill="white" transform="translate(0.5 0.0866699)"/>
</clipPath>
</defs>
</svg>
