<svg width="32" height="32" viewBox="0 0 32 32" fill="none" xmlns="http://www.w3.org/2000/svg">
<rect x="0.96875" y="0.539795" width="30.9062" height="31" rx="15.4531" fill="#FAAD1D"/>
<path d="M14.3735 16.324L12.416 15.8508L13.1675 9.03198H20.5986V11.0637H15.1992L14.8467 14.218C15.0384 14.1005 15.3167 13.983 15.6816 13.8655C16.0527 13.7418 16.4702 13.6799 16.9341 13.6799C17.5773 13.6799 18.1525 13.7851 18.6597 13.9954C19.1668 14.1995 19.5967 14.4963 19.9492 14.886C20.3079 15.2756 20.577 15.7519 20.7563 16.3147C20.9419 16.8713 21.0347 17.5022 21.0347 18.2073C21.0347 18.8258 20.9419 19.4071 20.7563 19.9514C20.577 20.4895 20.3018 20.9688 19.9307 21.3894C19.5596 21.8038 19.0926 22.1316 18.5298 22.3728C17.967 22.6078 17.3052 22.7253 16.5444 22.7253C15.9692 22.7253 15.4157 22.6418 14.8838 22.4749C14.3581 22.3017 13.8849 22.0512 13.4644 21.7234C13.0438 21.3894 12.7067 20.9812 12.4531 20.4988C12.2057 20.0164 12.0697 19.4628 12.0449 18.8381H14.4663C14.5096 19.2525 14.6209 19.6051 14.8003 19.8958C14.9797 20.1864 15.2147 20.4091 15.5054 20.5637C15.8022 20.7183 16.1455 20.7957 16.5352 20.7957C16.8877 20.7957 17.1908 20.7307 17.4443 20.6008C17.7041 20.4648 17.9175 20.2761 18.0845 20.0349C18.2515 19.7937 18.3752 19.5092 18.4556 19.1814C18.536 18.8536 18.5762 18.4949 18.5762 18.1052C18.5762 17.7279 18.5298 17.3847 18.437 17.0754C18.3442 16.76 18.202 16.4879 18.0103 16.259C17.8185 16.0302 17.5773 15.8539 17.2866 15.7302C17.0021 15.6065 16.6681 15.5447 16.2847 15.5447C15.7713 15.5447 15.3755 15.622 15.0972 15.7766C14.825 15.9312 14.5838 16.1137 14.3735 16.324Z" fill="white"/>
</svg>
