<svg width="32" height="32" viewBox="0 0 32 32" fill="none" xmlns="http://www.w3.org/2000/svg">
<rect x="0.96875" y="0.758545" width="30.9062" height="31" rx="15.4531" fill="#FAAD1D"/>
<path d="M14.624 14.9192H16.0063C16.495 14.9192 16.897 14.8357 17.2124 14.6687C17.534 14.4955 17.7721 14.2605 17.9268 13.9636C18.0876 13.6606 18.168 13.3111 18.168 12.9153C18.168 12.5256 18.0968 12.1886 17.9546 11.9041C17.8123 11.6134 17.5959 11.3907 17.3052 11.2361C17.0207 11.0753 16.6558 10.9949 16.2104 10.9949C15.8517 10.9949 15.5208 11.066 15.2178 11.2083C14.9209 11.3505 14.6828 11.5546 14.5034 11.8206C14.3302 12.0803 14.2437 12.3927 14.2437 12.7576H11.7852C11.7852 12.0278 11.9769 11.3876 12.3604 10.8372C12.75 10.2805 13.2757 9.84448 13.9375 9.52905C14.5993 9.21362 15.3384 9.05591 16.1548 9.05591C17.0454 9.05591 17.8247 9.20435 18.4927 9.50122C19.1668 9.79191 19.6895 10.2218 20.0605 10.7908C20.4378 11.3598 20.6265 12.0649 20.6265 12.906C20.6265 13.308 20.5306 13.71 20.3389 14.1121C20.1533 14.5079 19.8781 14.8666 19.5132 15.1882C19.1545 15.5037 18.7122 15.7603 18.1865 15.9583C17.667 16.15 17.0701 16.2458 16.396 16.2458H14.624V14.9192ZM14.624 16.8118V15.5037H16.396C17.1567 15.5037 17.8154 15.5933 18.3721 15.7727C18.9349 15.9459 19.3988 16.1933 19.7637 16.5149C20.1286 16.8303 20.3976 17.1983 20.5708 17.6189C20.7502 18.0395 20.8398 18.491 20.8398 18.9734C20.8398 19.6042 20.7223 20.1671 20.4873 20.6619C20.2523 21.1505 19.9214 21.5649 19.4946 21.905C19.0741 22.2452 18.5793 22.505 18.0103 22.6843C17.4412 22.8575 16.8258 22.9441 16.1641 22.9441C15.5889 22.9441 15.0291 22.8668 14.4849 22.7122C13.9468 22.5514 13.4613 22.3132 13.0283 21.9978C12.5954 21.6762 12.2521 21.2742 11.9985 20.7917C11.745 20.3031 11.6182 19.7372 11.6182 19.094H14.0767C14.0767 19.4651 14.1663 19.796 14.3457 20.0867C14.5312 20.3774 14.7848 20.6062 15.1064 20.7732C15.4342 20.934 15.8022 21.0144 16.2104 21.0144C16.6619 21.0144 17.0485 20.934 17.3701 20.7732C17.6979 20.6062 17.9484 20.3712 18.1216 20.0681C18.2948 19.7589 18.3813 19.3909 18.3813 18.9641C18.3813 18.4569 18.2855 18.0457 18.0938 17.7302C17.902 17.4148 17.6268 17.1829 17.2681 17.0344C16.9155 16.886 16.495 16.8118 16.0063 16.8118H14.624Z" fill="white"/>
</svg>
