<svg width="32" height="32" viewBox="0 0 32 32" fill="none" xmlns="http://www.w3.org/2000/svg">
<rect x="0.96875" y="0.571045" width="30.9062" height="31" rx="15.4531" fill="#FAAD1D"/>
<path d="M21.0903 20.6414V22.571H11.9429V20.9197L16.3311 16.179C16.7887 15.6594 17.1506 15.2079 17.4165 14.8245C17.6825 14.441 17.8711 14.0946 17.9824 13.7854C18.0999 13.47 18.1587 13.17 18.1587 12.8855C18.1587 12.4711 18.0845 12.1093 17.936 11.8C17.7876 11.4846 17.5711 11.2403 17.2866 11.0671C17.0083 10.894 16.665 10.8074 16.2568 10.8074C15.8053 10.8074 15.4188 10.9125 15.0972 11.1228C14.7817 11.3269 14.5405 11.6114 14.3735 11.9763C14.2127 12.3412 14.1323 12.7587 14.1323 13.2288H11.6738C11.6738 12.4309 11.8594 11.7042 12.2305 11.0486C12.6016 10.3868 13.1335 9.85799 13.8262 9.46216C14.5189 9.06632 15.3415 8.86841 16.2939 8.86841C17.2217 8.86841 18.0072 9.02303 18.6504 9.33228C19.2936 9.63534 19.7822 10.0683 20.1162 10.6311C20.4502 11.1939 20.6172 11.865 20.6172 12.6443C20.6172 13.0772 20.5461 13.504 20.4038 13.9246C20.2616 14.3451 20.0605 14.7626 19.8008 15.177C19.5472 15.5852 19.2441 15.9996 18.8916 16.4202C18.5391 16.8407 18.1463 17.2706 17.7134 17.7097L15.0786 20.6414H21.0903Z" fill="white"/>
</svg>
