<svg width="49" height="32" viewBox="0 0 49 32" fill="none" xmlns="http://www.w3.org/2000/svg">
<path d="M35.5123 0.839355H4.6783C2.25562 0.839355 0.273438 2.79952 0.273438 5.24421V25.0661H4.6783C4.6783 28.7221 7.62955 31.6734 11.2856 31.6734C14.9416 31.6734 17.8929 28.7221 17.8929 25.0661H31.1074C31.1074 28.7221 34.0587 31.6734 37.7147 31.6734C41.3708 31.6734 44.322 28.7221 44.322 25.0661H48.7269V14.0539L35.5123 0.839355ZM31.1074 5.24421H33.3099L39.9172 11.8515H31.1074V5.24421ZM17.8929 5.24421H26.7026V11.8515H17.8929V5.24421ZM4.6783 5.24421H13.488V11.8515H4.6783V5.24421ZM11.2856 27.8191C9.76591 27.8191 8.53255 26.5858 8.53255 25.0661C8.53255 23.5464 9.76591 22.313 11.2856 22.313C12.8053 22.313 14.0386 23.5464 14.0386 25.0661C14.0386 26.5858 12.8053 27.8191 11.2856 27.8191ZM37.7147 27.8191C36.1951 27.8191 34.9617 26.5858 34.9617 25.0661C34.9617 23.5464 36.1951 22.313 37.7147 22.313C39.2344 22.313 40.4678 23.5464 40.4678 25.0661C40.4678 26.5858 39.2344 27.8191 37.7147 27.8191ZM44.322 20.6612H42.6041C41.3928 19.3177 39.6529 18.4588 37.7147 18.4588C35.7766 18.4588 34.0367 19.3177 32.8253 20.6612H16.175C14.9636 19.3177 13.2457 18.4588 11.2856 18.4588C9.32542 18.4588 7.60753 19.3177 6.39619 20.6612H4.6783V16.2564H44.322V20.6612Z" fill="#333333"/>
</svg>
