<svg width="100" height="72" viewBox="0 0 100 72" fill="none" xmlns="http://www.w3.org/2000/svg">
<g clip-path="url(#clip0_1276_10307)">
<g clip-path="url(#clip1_1276_10307)">
<path d="M99.981 5.3137V46.3233C99.981 47.6827 99.4409 48.9866 98.4795 49.948C97.5181 50.9094 96.2143 51.4495 94.8548 51.4495H28.2143C26.8549 51.4495 25.5509 50.9094 24.5896 49.948C23.6282 48.9866 23.0881 47.6827 23.0881 46.3233V5.3137C23.0881 3.95415 23.6282 2.65028 24.5896 1.68893C25.5509 0.727581 26.8549 0.1875 28.2143 0.1875H94.8548C96.2143 0.1875 97.5181 0.727581 98.4795 1.68893C99.4409 2.65028 99.981 3.95415 99.981 5.3137Z" fill="#FAAD1D"/>
<path d="M87.1527 71.9538H2.57056V13.0025H7.69676V66.8276H87.1527V71.9538ZM99.9682 61.7014H12.8229V5.31323H99.9682V61.7014ZM17.9491 56.5752H94.842V10.4394H17.9491V56.5752ZM84.605 51.367H71.7895V46.2408H84.605V51.367ZM43.5609 50.5417L38.4347 50.5314L38.4693 16.314L43.5955 16.323L43.5609 50.5417ZM28.1169 23.2126C27.458 23.2126 26.8136 23.0172 26.2659 22.6511C25.7179 22.2849 25.2907 21.7646 25.0385 21.1557C24.7864 20.5469 24.7204 19.8769 24.8489 19.2305C24.9775 18.5842 25.2948 17.9905 25.7609 17.5245C26.2269 17.0585 26.8205 16.7412 27.4669 16.6126C28.1134 16.484 28.7831 16.55 29.3921 16.8022C30.0008 17.0544 30.5214 17.4815 30.8874 18.0294C31.2534 18.5774 31.449 19.2216 31.449 19.8806C31.449 20.7643 31.0978 21.6118 30.4729 22.2367C29.8481 22.8616 29.0007 23.2126 28.1169 23.2126Z" fill="white"/>
</g>
</g>
<defs>
<clipPath id="clip0_1276_10307">
<rect width="100" height="71.7667" fill="white" transform="translate(0 0.187012)"/>
</clipPath>
<clipPath id="clip1_1276_10307">
<rect width="99.9607" height="71.7667" fill="white" transform="translate(0.0197754 0.187256)"/>
</clipPath>
</defs>
</svg>
