<svg width="89" height="57" viewBox="0 0 89 57" fill="none" xmlns="http://www.w3.org/2000/svg">
<path d="M64.5 0.0463867H8.5C4.1 0.0463867 0.5 3.60639 0.5 8.04639V44.0464H8.5C8.5 50.6864 13.86 56.0464 20.5 56.0464C27.14 56.0464 32.5 50.6864 32.5 44.0464H56.5C56.5 50.6864 61.86 56.0464 68.5 56.0464C75.14 56.0464 80.5 50.6864 80.5 44.0464H88.5V24.0464L64.5 0.0463867ZM56.5 8.04639H60.5L72.5 20.0464H56.5V8.04639ZM32.5 8.04639H48.5V20.0464H32.5V8.04639ZM8.5 8.04639H24.5V20.0464H8.5V8.04639ZM20.5 49.0464C17.74 49.0464 15.5 46.8064 15.5 44.0464C15.5 41.2864 17.74 39.0464 20.5 39.0464C23.26 39.0464 25.5 41.2864 25.5 44.0464C25.5 46.8064 23.26 49.0464 20.5 49.0464ZM68.5 49.0464C65.74 49.0464 63.5 46.8064 63.5 44.0464C63.5 41.2864 65.74 39.0464 68.5 39.0464C71.26 39.0464 73.5 41.2864 73.5 44.0464C73.5 46.8064 71.26 49.0464 68.5 49.0464ZM80.5 36.0464H77.38C75.18 33.6064 72.02 32.0464 68.5 32.0464C64.98 32.0464 61.82 33.6064 59.62 36.0464H29.38C27.18 33.6064 24.06 32.0464 20.5 32.0464C16.94 32.0464 13.82 33.6064 11.62 36.0464H8.5V28.0464H80.5V36.0464Z" fill="#333333"/>
</svg>
