<svg width="65" height="82" viewBox="0 0 65 82" fill="none" xmlns="http://www.w3.org/2000/svg">
<g clip-path="url(#clip0_1276_10297)">
<g clip-path="url(#clip1_1276_10297)">
<path d="M59.9613 74.4638H21.5899C20.3178 74.4638 19.0978 73.9585 18.1983 73.0589C17.2988 72.1595 16.7935 70.9393 16.7935 69.6673V7.31307C16.7935 6.04098 17.2988 4.82097 18.1983 3.92146C19.0978 3.02195 20.3178 2.5166 21.5899 2.5166H59.9613C61.2333 2.5166 62.4533 3.02195 63.3529 3.92146C64.2524 4.82097 64.7578 6.04098 64.7578 7.31307V69.6673C64.7578 70.9393 64.2524 72.1595 63.3529 73.0589C62.4533 73.9585 61.2333 74.4638 59.9613 74.4638Z" fill="#FAAD1D"/>
<path d="M62.3597 81.7273H0.00610352V4.98364H62.3597V81.7273ZM4.80253 76.9308H57.5633V9.78012H4.80253V76.9308ZM19.4316 57.9128C17.8664 57.9128 16.3363 57.4487 15.0348 56.5789C13.7333 55.7093 12.719 54.4735 12.12 53.0273C11.521 51.5812 11.3642 49.9897 11.6696 48.4546C11.975 46.9195 12.7287 45.5093 13.8355 44.4023C14.9423 43.2955 16.3525 42.5418 17.8877 42.2365C19.4229 41.9312 21.0141 42.0878 22.4603 42.6869C23.9064 43.2859 25.1423 44.3002 26.0119 45.6017C26.8817 46.9032 27.3458 48.4333 27.3458 49.9986C27.3431 52.0966 26.5085 54.108 25.025 55.5915C23.5412 57.0751 21.5297 57.9106 19.4316 57.9128ZM19.4316 46.8809C18.815 46.8809 18.2122 47.0636 17.6996 47.4064C17.1868 47.7488 16.7873 48.2359 16.5513 48.8055C16.3153 49.3753 16.2536 50.002 16.3739 50.6068C16.4942 51.2116 16.7911 51.7671 17.2271 52.2031C17.6631 52.6391 18.2187 52.9362 18.8234 53.0564C19.4282 53.1768 20.055 53.1149 20.6247 52.8789C21.1944 52.6429 21.6813 52.2434 22.0239 51.7306C22.3665 51.2181 22.5493 50.6152 22.5493 49.9986C22.5493 49.1717 22.2209 48.3788 21.6362 47.7941C21.0515 47.2095 20.2585 46.8809 19.4316 46.8809ZM50.3123 52.9484H35.923V48.152H50.3123V52.9484ZM18.6342 34.6463L12.1722 27.2681L15.7792 24.112L18.091 26.7501L24.3372 17.265L28.3422 19.9031L18.6342 34.6463ZM50.3123 28.966H35.923V24.1696H50.3123V28.966Z" fill="white"/>
</g>
</g>
<defs>
<clipPath id="clip0_1276_10297">
<rect width="64.7651" height="81.5402" fill="white" transform="translate(0 0.187012)"/>
</clipPath>
<clipPath id="clip1_1276_10297">
<rect width="64.7518" height="81.5402" fill="white" transform="translate(0.00610352 0.187256)"/>
</clipPath>
</defs>
</svg>
