<svg width="90" height="81" viewBox="0 0 90 81" fill="none" xmlns="http://www.w3.org/2000/svg">
<g clip-path="url(#clip0_1276_10266)">
<path d="M82.8837 59.223H35.5278C34.2719 59.223 33.0675 58.7241 32.1793 57.8359C31.2911 56.9478 30.7922 55.7433 30.7922 54.4874V7.13159C30.7922 5.87562 31.2911 4.6711 32.1793 3.78301C33.0675 2.89493 34.2719 2.396 35.5278 2.396H82.8837C84.1396 2.396 85.3441 2.89493 86.2322 3.78301C87.1204 4.6711 87.6193 5.87562 87.6193 7.13159V54.4874C87.6193 55.7433 87.1204 56.9478 86.2322 57.8359C85.3441 58.7241 84.1396 59.223 82.8837 59.223Z" fill="#FAAD1D"/>
<path d="M83.5717 80.5343H6.42424C5.59831 80.5343 4.78677 80.3181 4.07013 79.9075C3.35352 79.497 2.75676 78.906 2.33909 78.1935C1.92142 77.4808 1.69738 76.6715 1.6892 75.8456C1.68102 75.0197 1.88898 74.2061 2.29245 73.4854L12.9309 54.4886H62.9624V59.2242H15.706L6.42187 75.7987H83.5717L73.3262 57.5016L72.2666 14.2432L17.4996 14.2361L16.5844 47.9618L11.8489 47.8315L12.7593 14.1047C12.7878 12.8697 13.3 11.6952 14.1856 10.8339C15.0712 9.97264 16.2595 9.49343 17.4949 9.49932L72.2619 9.50761C73.4995 9.50053 74.6903 9.98098 75.5766 10.8451C76.4628 11.7091 76.9733 12.8873 76.9975 14.1248L78.0287 56.2159L87.7035 73.4842C88.1072 74.2049 88.3155 75.0188 88.3075 75.8446C88.2994 76.6708 88.0754 77.4803 87.6578 78.193C87.2401 78.9057 86.6432 79.497 85.9264 79.9075C85.2095 80.3183 84.3978 80.5343 83.5717 80.5343ZM44.9979 24.4176C44.3892 24.4176 43.7941 24.237 43.2879 23.8989C42.7817 23.5606 42.3872 23.0799 42.1542 22.5174C41.9212 21.955 41.8601 21.3361 41.979 20.739C42.0979 20.1419 42.391 19.5934 42.8215 19.1629C43.2519 18.7324 43.8003 18.4392 44.3975 18.3205C44.9946 18.2017 45.6136 18.2627 46.1759 18.4956C46.7385 18.7286 47.2192 19.1232 47.5573 19.6293C47.8956 20.1356 48.0761 20.7307 48.0761 21.3395C48.0761 22.1559 47.7519 22.9388 47.1746 23.516C46.5974 24.0932 45.8143 24.4176 44.9979 24.4176Z" fill="white"/>
</g>
<defs>
<clipPath id="clip0_1276_10266">
<rect width="89.9762" height="80.5049" fill="white" transform="translate(0.0119629 0.187012)"/>
</clipPath>
</defs>
</svg>
