<svg width="120" height="121" viewBox="0 0 120 121" fill="none" xmlns="http://www.w3.org/2000/svg">
<path d="M65.3437 85.9705H86.009L101.126 99.9807H92.4615H77.819H50.6936H35.8468H18.2168L35.2167 85.9705H52.9723" stroke="#605B5D" stroke-width="3.5" stroke-linecap="round" stroke-linejoin="round"/>
<path fill-rule="evenodd" clip-rule="evenodd" d="M60.1369 91.8105C77.847 73.5684 86.7021 58.9006 86.7021 47.8071C86.7021 30.9436 74.4872 19.6875 59.4194 19.6875C44.3516 19.6875 32.1367 30.9436 32.1367 47.8071C32.1367 58.9006 40.9918 73.5684 58.7019 91.8105C59.0866 92.2068 59.7197 92.2161 60.116 91.8314C60.123 91.8246 60.13 91.8176 60.1369 91.8105Z" stroke="#605B5D" stroke-width="3.5" stroke-linejoin="round"/>
<path d="M59.4191 61.2005C67.0309 61.2005 73.2014 55.0299 73.2014 47.4182C73.2014 39.8064 67.0309 33.6358 59.4191 33.6358C51.8073 33.6358 45.6367 39.8064 45.6367 47.4182C45.6367 55.0299 51.8073 61.2005 59.4191 61.2005Z" fill="#FAAD1D" stroke="#605B5D" stroke-width="3.5"/>
</svg>
