<svg width="120" height="121" viewBox="0 0 120 121" fill="none" xmlns="http://www.w3.org/2000/svg">
<g clip-path="url(#clip0_126_2611)">
<path d="M89.3468 53.3724C89.3502 52.5741 89.2776 51.7422 89.1312 50.8871C89.0166 50.2176 88.8568 49.5339 88.6528 48.841C88.2822 47.5823 87.7658 46.2934 87.1099 45.0043C86.6288 44.0588 86.0726 43.1132 85.4439 42.1794C84.5926 40.9151 83.6083 39.6724 82.4971 38.4807C78.3471 34.0303 73.3629 31.296 69.0537 30.7043" stroke="#605B5D" stroke-width="3.2" stroke-linecap="round" stroke-linejoin="round"/>
<path d="M104.067 50.0652C103.934 48.9872 103.694 47.8506 103.352 46.67C103.084 45.7456 102.754 44.7942 102.363 43.8228C101.654 42.0582 100.746 40.2274 99.6531 38.3724C98.8513 37.0118 97.9499 35.638 96.9543 34.2677C95.6062 32.4124 94.0854 30.5633 92.4049 28.7612C86.129 22.0311 79.0428 17.4755 73.2224 15.9314" stroke="#605B5D" stroke-width="3.2" stroke-linecap="round" stroke-linejoin="round"/>
<path d="M33.1579 26.1938L28.8145 30.8516L46.3174 47.1734L50.6608 42.5156L33.1579 26.1938Z" fill="#FAAD1D"/>
<path d="M78.2907 69.3312L73.9473 73.989L91.4502 90.3107L95.7937 85.653L78.2907 69.3312Z" fill="#FAAD1D"/>
<path d="M21.3955 44.3747C21.7308 40.834 23.3406 37.1621 25.9497 34.553L32.3136 28.1891C33.4852 27.0175 35.3847 27.0175 36.5563 28.1891L49.2842 40.917C50.4558 42.0885 50.4558 43.988 49.2842 45.1596L42.9202 51.5236" stroke="#605B5D" stroke-width="3.2"/>
<path d="M69.9887 78.2526L77.2832 70.8351C78.4547 69.6636 80.3542 69.6636 81.5258 70.8351L94.2537 83.5631C95.4253 84.7346 95.4253 86.6341 94.2537 87.8057C92.5504 89.2463 92.0149 89.7714 91.1633 90.4918L84.8706 95.6881" stroke="#605B5D" stroke-width="3.2" stroke-linecap="round"/>
<path d="M43.2676 51.2266C39.8837 54.6104 43.1557 63.3686 50.5757 70.7885C57.9956 78.2085 66.7538 81.4805 70.1376 78.0966" stroke="#605B5D" stroke-width="3.2"/>
<path d="M23.4322 37.7891C17.3105 47.0311 25.6062 63.275 42.2796 79.3763C58.953 95.4776 78.0218 102.781 84.871 95.6881" stroke="#605B5D" stroke-width="3.2" stroke-linecap="round"/>
<path d="M29.6309 31.9186L46.0349 48.6181" stroke="#605B5D" stroke-width="3.5"/>
<path d="M73.2031 73.6906L89.6072 90.3901" stroke="#605B5D" stroke-width="3.5"/>
</g>
<defs>
<clipPath id="clip0_126_2611">
<rect width="120" height="121" fill="white"/>
</clipPath>
</defs>
</svg>
