<svg width="100%" height="100%" viewBox="0 0 48 48" fill="none" xmlns="http://www.w3.org/2000/svg">
<g clip-path="url(#clip0_247_1578)">
<path d="M31.344 28.7999C31.344 33.7439 26.64 34.7039 25.656 34.8719V37.2239H22.344V34.7759C20.952 34.4399 17.832 33.3119 16.656 29.1839L19.776 27.9119C19.896 28.3199 20.88 31.8479 24.312 31.8479C26.064 31.8479 28.056 30.9599 28.056 28.8239C28.056 26.9999 26.736 26.0639 23.76 25.0079C21.696 24.2639 17.448 23.0639 17.448 18.7679C17.448 18.5759 17.472 14.2319 22.392 13.1759V10.7999H25.704V13.1519C29.184 13.7519 30.456 16.5119 30.72 17.3519L27.744 18.6239C27.528 17.9519 26.616 16.1039 24.168 16.1039C22.848 16.1039 20.76 16.7999 20.76 18.7199C20.76 20.4959 22.368 21.1919 25.728 22.3199C30.192 23.8559 31.344 26.1599 31.344 28.7999ZM14.4 33.5999V29.9999H2.40002V41.9999H6.00002V35.9519C9.86402 41.7599 16.488 45.5999 24 45.5999C35.928 45.5999 45.6 35.9279 45.6 23.9999H42C42 33.9359 33.936 41.9999 24 41.9999C17.592 41.9999 11.952 38.6399 8.76003 33.5999H14.4ZM42 12.0479C38.136 6.2399 31.512 2.3999 24 2.3999C12.072 2.3999 2.40002 12.0719 2.40002 23.9999H6.00002C6.00002 14.0639 14.064 5.9999 24 5.9999C30.408 5.9999 36.048 9.3599 39.24 14.3999H33.6V17.9999H45.6V5.9999H42V12.0479Z" fill="black"/>
</g>
<defs>
<clipPath id="clip0_247_1578">
<rect width="100%" height="100%" fill="white"/>
</clipPath>
</defs>
</svg>
