<svg width="75" height="75" viewBox="0 0 75 75" fill="none" xmlns="http://www.w3.org/2000/svg">
<path d="M61.7308 45.341C60.6748 45.341 59.6526 45.4785 58.6679 45.7131L58.5747 45.5659L46.3372 26.2455C49.0512 23.7994 50.7692 20.256 50.7692 16.3001C50.7692 8.92216 44.8284 2.94116 37.5 2.94116C30.1717 2.94116 24.2308 8.92216 24.2308 16.3001C24.2308 20.256 25.9487 23.7994 28.6628 26.2455L16.4253 45.5659L16.3321 45.7131C15.3474 45.4785 14.3252 45.341 13.2692 45.341C5.94088 45.341 0 51.322 0 58.6999C0 66.0778 5.94088 72.0588 13.2692 72.0588C20.5977 72.0588 26.5384 66.0778 26.5384 58.6999C26.5384 53.6451 23.7487 49.248 19.6358 46.9788L31.5212 28.2145C33.3195 29.1311 35.3465 29.6589 37.5 29.6589C39.6535 29.6589 41.6805 29.1311 43.4788 28.2145L55.3642 46.9788C51.2513 49.248 48.4616 53.6451 48.4616 58.6999C48.4616 66.0778 54.4023 72.0588 61.7308 72.0588C69.0591 72.0588 75 66.0778 75 58.6999C75 51.322 69.0591 45.341 61.7308 45.341ZM13.2353 65.0084C9.81944 65.0084 7.05036 62.2394 7.05036 58.8235C7.05036 55.4077 9.81944 52.6386 13.2353 52.6386C16.6512 52.6386 19.4202 55.4077 19.4202 58.8235C19.4202 62.2394 16.6512 65.0084 13.2353 65.0084Z" fill="#FAAD1D"/>
</svg>
