<svg width="100%" height="100%" viewBox="0 0 30 9" fill="none" xmlns="http://www.w3.org/2000/svg">
<path d="M0.292787 1.29296C0.480314 1.10549 0.734622 1.00017 0.999786 1.00017C1.26495 1.00017 1.51926 1.10549 1.70679 1.29296L6.99979 6.58596L12.2928 1.29296C12.385 1.19745 12.4954 1.12127 12.6174 1.06886C12.7394 1.01645 12.8706 0.988862 13.0034 0.987709C13.1362 0.986555 13.2678 1.01186 13.3907 1.06214C13.5136 1.11242 13.6253 1.18667 13.7192 1.28056C13.8131 1.37446 13.8873 1.48611 13.9376 1.60901C13.9879 1.7319 14.0132 1.86358 14.012 1.99636C14.0109 2.12914 13.9833 2.26036 13.9309 2.38236C13.8785 2.50437 13.8023 2.61471 13.7068 2.70696L7.70679 8.70696C7.51926 8.89443 7.26495 8.99975 6.99979 8.99975C6.73462 8.99975 6.48031 8.89443 6.29279 8.70696L0.292787 2.70696C0.105316 2.51943 0 2.26512 0 1.99996C0 1.7348 0.105316 1.48049 0.292787 1.29296Z" fill="#FAAD1D"/>
</svg>
