<svg width="78" height="108" viewBox="0 0 78 108" fill="none" xmlns="http://www.w3.org/2000/svg">
<g clip-path="url(#clip0_1738_9283)">
<path d="M46.0806 8.56406C45.857 7.70526 45.5145 6.89435 45.0723 6.14868L46.0989 4.61523L44.6741 3.20068L43.2501 1.78614L41.7063 2.80597C40.9557 2.36666 40.1393 2.02644 39.2748 1.80431L38.9098 0H36.8956H34.8814L34.5156 1.80431C33.651 2.02644 32.8347 2.36666 32.0849 2.80597L30.5412 1.78614L29.1171 3.20068L27.6931 4.61523L28.7198 6.14868C28.2775 6.89435 27.9342 7.70526 27.7114 8.56406L25.895 8.9274V10.9282V12.9291L27.7114 13.2924C27.9342 14.1512 28.2775 14.9621 28.7198 15.7078L27.6931 17.2413L29.1171 18.6558L30.5412 20.0703L32.0849 19.0505C32.8347 19.4898 33.6519 19.83 34.5156 20.0522L34.8814 21.8565H36.8956H38.9098L39.2748 20.0522C40.1393 19.83 40.9557 19.4898 41.7063 19.0505L43.2501 20.0703L44.6741 18.6558L46.0981 17.2413L45.0714 15.7078C45.5145 14.9621 45.857 14.1512 46.0798 13.2924L47.8954 12.9291V10.9282V8.9274L46.0806 8.56406ZM36.8956 17.9382C32.9976 17.9382 29.8379 14.7995 29.8379 10.9274C29.8379 7.05538 32.9976 3.91663 36.8956 3.91663C40.7936 3.91663 43.9533 7.05538 43.9533 10.9274C43.9533 14.7995 40.7936 17.9382 36.8956 17.9382Z" fill="#FAAD1D"/>
<path d="M31.9111 35.8889H2.65185C1.18959 35.8889 0 34.7072 0 33.2547V13.2702C0 11.8177 1.18959 10.636 2.65185 10.636H31.9111C33.3733 10.636 34.5629 11.8177 34.5629 13.2702V33.2547C34.5621 34.7072 33.3733 35.8889 31.9111 35.8889ZM2.65185 10.8193C1.29184 10.8193 0.184548 11.9184 0.184548 13.2702V33.2547C0.184548 34.6064 1.29101 35.7055 2.65185 35.7055H31.9111C33.2711 35.7055 34.3784 34.6056 34.3784 33.2547V13.2702C34.3784 11.9184 33.2711 10.8193 31.9111 10.8193H2.65185Z" fill="#FFE3B6"/>
<path d="M8.37366 24.0862H8.10266V56.2879H8.37366V24.0862Z" fill="#FFE3B6"/>
<path d="M72.9831 90.4723H71.1401V90.1668H72.9831V90.4723ZM69.2971 90.4723H67.4541V90.1668H69.2971V90.4723ZM65.6111 90.4723H63.7681V90.1668H65.6111V90.4723ZM61.9251 90.4723H60.0821V90.1668H61.9251V90.4723ZM58.2391 90.4723H56.3962V90.1668H58.2391V90.4723ZM54.5532 90.4723H52.7102V90.1668H54.5532V90.4723ZM50.868 90.4723H49.025V90.1668H50.868V90.4723ZM47.182 90.4723H45.339V90.1668H47.182V90.4723ZM43.496 90.4723H41.6531V90.1668H43.496V90.4723ZM39.8101 90.4723H37.9671V90.1668H39.8101V90.4723ZM36.1249 90.4723H34.2819V90.1668H36.1249V90.4723ZM32.4389 90.4723H30.5959V90.1668H32.4389V90.4723ZM28.753 90.4723H26.91V90.1668H28.753V90.4723ZM25.067 90.4723H23.224V90.1668H25.067V90.4723ZM21.381 90.4723H19.538V90.1668H21.381V90.4723ZM74.8477 90.4285L74.8003 90.1271C75.3822 90.0371 75.9342 89.796 76.3972 89.431L76.5884 89.6697C76.083 90.0677 75.4811 90.3303 74.8477 90.4285ZM17.6809 90.1172C17.1006 89.8447 16.5985 89.4236 16.2269 88.9017L16.478 88.7258C16.8188 89.2056 17.2802 89.5912 17.8122 89.8414L17.6809 90.1172ZM77.7273 88.1593L77.4422 88.0445C77.6084 87.6383 77.6932 87.2072 77.6932 86.7646V86.3046H78V86.7646C78 87.2468 77.9085 87.7159 77.7273 88.1593ZM15.5627 87.1329C15.5503 87.0115 15.5444 86.8876 15.5444 86.7646V85.2881H15.852V86.7646C15.852 86.8777 15.8578 86.9917 15.8686 87.1032L15.5627 87.1329ZM78 84.4739H77.6932V82.6432H78V84.4739ZM15.852 83.4574H15.5444V81.6267H15.852V83.4574ZM78 80.8124H77.6932V78.9817H78V80.8124ZM15.852 79.7959H15.5444V77.9652H15.852V79.7959ZM78 77.151H77.6932V75.3203H78V77.151ZM15.852 76.1345H15.5444V74.3037H15.852V76.1345ZM78 73.4903H77.6932V71.6596H78V73.4903ZM15.852 72.473H15.5444V70.6423H15.852V72.473ZM78 69.8289H77.6932V67.9981H78V69.8289ZM15.852 68.8115H15.5444V66.9808H15.852V68.8115ZM78 66.1674H77.6932V64.3367H78V66.1674ZM15.852 65.1501H15.5444V63.3193H15.852V65.1501ZM78 62.5059H77.6932V60.6752H78V62.5059ZM15.852 61.4886H15.5444V59.6579H15.852V61.4886ZM78 58.8445H77.6932V57.0137H78V58.8445ZM15.852 57.828H15.5444V55.9972H15.852V57.828ZM78 55.183H77.6932V53.3523H78V55.183ZM15.852 54.1665H15.5444V52.3358H15.852V54.1665ZM78 51.5216H77.6932V49.6908H78V51.5216ZM15.852 50.505H15.5444V48.6743H15.852V50.505ZM78 47.8609H77.6932V46.0302H78V47.8609ZM15.852 46.8436H15.5444V45.0128H15.852V46.8436ZM78 44.1994H77.6932V42.3687H78V44.1994ZM15.852 43.1821H15.5444V41.3514H15.852V43.1821ZM78 40.538H77.6932V38.7073H78V40.538ZM15.852 39.5215H15.5444V37.6907H15.852V39.5215ZM78 36.8765H77.6932V35.0458H78V36.8765ZM15.852 35.86H15.5444V34.0293H15.852V35.86ZM78 33.2151H77.6932V31.3843H78V33.2151ZM15.852 32.1985H15.5444V30.3678H15.852V32.1985ZM78 29.5536H77.6932V27.7229H78V29.5536ZM15.852 28.5371H15.5444V26.7063H15.852V28.5371ZM78 25.893H77.6932V24.0622H78V25.893ZM15.852 24.8756H15.5444V23.0449H15.852V24.8756ZM78 22.2315H77.6932V20.4008H78V22.2315ZM15.852 21.2141H15.5444V19.3834H15.852V21.2141ZM78 18.57H77.6932V16.7393H78V18.57ZM15.852 17.5527H15.5444V15.7219H15.852V17.5527ZM78 14.9086H77.6932V13.0778C77.6932 12.8516 77.6708 12.6253 77.6259 12.4048L77.9268 12.3445C77.975 12.5848 78 12.8309 78 13.0778V14.9086ZM15.852 13.8912H15.5444V13.0778C15.5444 12.7219 15.5951 12.3701 15.6949 12.0316L15.99 12.1175C15.8977 12.4279 15.852 12.7508 15.852 13.077V13.8912ZM76.8569 10.8499C76.4695 10.4056 75.9716 10.0671 75.4179 9.87136L75.521 9.58399C76.1245 9.79787 76.6674 10.167 77.0897 10.6501L76.8569 10.8499ZM16.892 10.6352L16.6783 10.4164C17.1405 9.97045 17.7133 9.65005 18.3334 9.48903L18.4108 9.78383C17.8421 9.93164 17.3168 10.2264 16.892 10.6352ZM73.6498 9.67483H71.8076V9.37012H73.6506V9.67483H73.6498ZM69.9646 9.67483H68.1216V9.37012H69.9646V9.67483ZM66.2786 9.67483H64.4356V9.37012H66.2786V9.67483ZM62.5927 9.67483H60.7497V9.37012H62.5927V9.67483ZM58.9067 9.67483H57.0637V9.37012H58.9067V9.67483ZM55.2207 9.67483H53.3777V9.37012H55.2207V9.67483ZM51.5347 9.67483H49.6917V9.37012H51.5347V9.67483ZM47.8496 9.67483H46.0066V9.37012H47.8496V9.67483ZM44.1636 9.67483H42.3206V9.37012H44.1636V9.67483ZM40.4776 9.67483H38.6346V9.37012H40.4776V9.67483ZM36.7916 9.67483H34.9486V9.37012H36.7916V9.67483ZM33.1056 9.67483H31.2626V9.37012H33.1056V9.67483ZM29.4205 9.67483H27.5775V9.37012H29.4205V9.67483ZM25.7345 9.67483H23.8915V9.37012H25.7345V9.67483ZM22.0485 9.67483H20.2055V9.37012H22.0485V9.67483Z" fill="#6B4911"/>
<path d="M73.9142 19.1107V92.7967C73.9142 94.7603 72.3123 96.3524 70.3354 96.3524H15.3458C13.369 96.3524 11.7662 94.7603 11.7662 92.7967V19.1107C11.7662 17.147 13.369 15.5549 15.3458 15.5549H70.3354C72.3123 15.5549 73.9142 17.147 73.9142 19.1107Z" fill="#FFE3B6"/>
<path d="M63.7889 73.8644V96.3526H28.6482V74.1204C28.6482 72.9511 29.6017 72.0039 30.7788 72.0039H61.9151C62.9501 72.0039 63.7889 72.8363 63.7889 73.8644Z" fill="#6B4911"/>
<path d="M23.766 66.3912C24.5258 66.6472 25.3388 66.7892 26.1842 66.8008C28.7471 66.833 31.039 65.6439 32.4971 63.7768C33.508 62.482 34.1181 60.8627 34.1406 59.098C34.1431 58.9229 34.1398 58.7479 34.1306 58.5753C34.0882 57.7916 33.9294 57.0385 33.6709 56.3325C32.5877 53.3696 29.7472 51.2375 26.3871 51.1946C24.5765 51.1706 22.9014 51.7577 21.5597 52.7635C19.6851 54.1673 18.4623 56.3862 18.4299 58.8982C18.385 62.3664 20.6262 65.3359 23.766 66.3912ZM20.3951 58.9221C20.4192 57.0534 21.3236 55.3994 22.7127 54.3465C23.7244 53.5785 24.9905 53.1293 26.3613 53.1467C28.881 53.1789 31.0099 54.7776 31.8229 56.9997L31.8246 57.003C32.0175 57.5315 32.1355 58.0947 32.1679 58.6818C32.1746 58.8115 32.1771 58.9419 32.1754 59.0741C32.1579 60.3969 31.6999 61.6108 30.9426 62.5803C29.8494 63.9808 28.1311 64.8734 26.21 64.8487C25.5749 64.8404 24.9655 64.7331 24.3953 64.5415C22.0427 63.7504 20.3618 61.5241 20.3951 58.9221Z" fill="#FAAD1D"/>
<path d="M30.9426 62.5803L32.4971 63.7769C31.039 65.6448 28.7471 66.8339 26.1842 66.8017C25.338 66.7909 24.5258 66.6472 23.766 66.3921L24.3969 64.5415C24.9672 64.7331 25.5766 64.8405 26.21 64.8487C28.1311 64.8727 29.8494 63.98 30.9426 62.5803Z" fill="#261701"/>
<path d="M32.1671 58.6809L34.1307 58.5752C34.1398 58.7478 34.1431 58.9228 34.1406 59.0979C34.1182 60.8626 33.5072 62.4819 32.4972 63.7767L30.9426 62.5802C31.6999 61.6099 32.158 60.3952 32.1746 59.0731C32.1763 58.941 32.1738 58.8105 32.1671 58.6809Z" fill="#E6F1FD"/>
<path d="M32.1671 58.6811C32.1347 58.0948 32.0167 57.5308 31.8238 57.0023L31.8221 56.999L33.671 56.3318C33.9295 57.0378 34.0883 57.7909 34.1307 58.5746L32.1671 58.6811Z" fill="#606060"/>
<path d="M21.5597 52.7635C22.9014 51.7577 24.5765 51.1706 26.387 51.1946C29.7472 51.2375 32.5877 53.3705 33.6709 56.3325L31.8237 57.003L31.8221 56.9997C31.0091 54.7784 28.8801 53.1789 26.3604 53.1467C24.9896 53.1293 23.7236 53.5786 22.7119 54.3465L21.5597 52.7635Z" fill="#6B4911"/>
<path d="M23.4577 69.4515C22.9547 68.7892 22.16 68.3565 21.2605 68.345C20.0178 68.3293 18.9545 69.1212 18.5763 70.231C18.4848 70.4994 18.4333 70.7868 18.43 71.0857C18.425 71.4342 18.4865 71.7678 18.6004 72.0766C18.7824 72.5704 19.1017 72.9998 19.514 73.3169C19.923 73.6324 20.4226 73.8363 20.9688 73.8859C21.0419 73.8925 21.1151 73.8966 21.1899 73.8974C21.2364 73.8983 21.2822 73.8966 21.3287 73.895C21.3453 73.8941 21.3611 73.895 21.3778 73.8941C21.6587 73.8793 21.9281 73.8231 22.1808 73.7315C23.2424 73.3491 24.0063 72.345 24.0213 71.1567C24.0288 70.5184 23.8185 69.9263 23.4577 69.4515ZM21.9405 73.0799L21.9397 73.0807C21.7502 73.1493 21.549 73.1906 21.3387 73.2021C21.2921 73.2046 21.2456 73.2054 21.1982 73.2054C20.9995 73.203 20.8083 73.1716 20.6263 73.1179C20.3752 73.0436 20.1433 72.9255 19.9421 72.7703C19.8681 72.7133 19.7991 72.6513 19.7343 72.5853C19.3544 72.203 19.1224 71.6761 19.1299 71.0972C19.1316 70.9461 19.1507 70.8 19.184 70.6588C19.1998 70.5902 19.218 70.5225 19.2397 70.4564C19.5231 69.6241 20.3203 69.0303 21.2522 69.0419C21.9223 69.0502 22.5141 69.3706 22.8916 69.8611C23.1667 70.2186 23.3272 70.6662 23.3213 71.1509C23.3089 72.0394 22.7361 72.7926 21.9405 73.0799Z" fill="#6B4911"/>
<g opacity="0.3">
<path d="M32.2952 88.3565V96.8066C32.2952 97.6373 31.6176 98.3103 30.7814 98.3103H18.0974C17.2611 98.3103 16.5828 97.6373 16.5828 96.8066V88.3565C16.5828 87.5258 17.2611 86.8528 18.0974 86.8528H30.7814C31.6176 86.8528 32.2952 87.5258 32.2952 88.3565Z" fill="#FFE3B6"/>
</g>
<g opacity="0.3">
<path d="M68.5997 88.3565V96.8066C68.5997 97.6373 67.9222 98.3103 67.0859 98.3103H54.4011C53.5648 98.3103 52.8873 97.6373 52.8873 96.8066V88.3565C52.8873 87.5258 53.5648 86.8528 54.4011 86.8528H67.0859C67.9214 86.8528 68.5997 87.5258 68.5997 88.3565Z" fill="#FFE3B6"/>
</g>
<g opacity="0.82">
<path d="M49.3684 46.5461H20.1091C18.6469 46.5461 17.4573 45.3644 17.4573 43.9119V23.9274C17.4573 22.4749 18.6469 21.2932 20.1091 21.2932H49.3684C50.8306 21.2932 52.0202 22.4749 52.0202 23.9274V43.9119C52.0202 45.3644 50.8298 46.5461 49.3684 46.5461ZM20.1091 21.4765C18.7483 21.4765 17.6418 22.5756 17.6418 23.9274V43.9119C17.6418 45.2637 18.7483 46.3628 20.1091 46.3628H49.3684C50.7284 46.3628 51.8357 45.2637 51.8357 43.9119V23.9274C51.8357 22.5756 50.7284 21.4765 49.3684 21.4765H20.1091Z" fill="#7C510B"/>
</g>
<path d="M18.7483 102.415H1.85547L2.8256 78.2368H19.7176L18.7483 102.415Z" fill="#936112"/>
<path d="M4.08831 102.415H20.9803L20.011 78.2368H3.11902L4.08831 102.415Z" fill="#FAAD1D"/>
<path d="M18.2612 93.0569H17.4116V99.4756H18.2612V93.0569Z" fill="#E6F1FD"/>
<path d="M16.5828 93.7769H15.734V99.4763H16.5828V93.7769Z" fill="#E6F1FD"/>
<path d="M14.7613 94.7126H13.9117V99.4765H14.7613V94.7126Z" fill="#E6F1FD"/>
<path d="M12.8893 95.8918H12.0405V99.4757H12.8893V95.8918Z" fill="#E6F1FD"/>
<path d="M6.97376 95.1321L6.79004 95.0669L8.39112 90.6052L11.8626 89.6927L13.1104 84.7959L15.7905 83.6209L16.3899 79.8132L16.5827 79.843L15.9668 83.7555L13.2767 84.9347L12.0239 89.8513L8.53992 90.7662L6.97376 95.1321Z" fill="#E6F1FD"/>
<path d="M12.3473 89.4441C12.5294 89.6654 12.4961 89.9916 12.2741 90.1724C12.0514 90.3533 11.723 90.3202 11.5409 90.0989C11.3589 89.8776 11.3921 89.5514 11.6149 89.3706C11.8369 89.1898 12.1652 89.2228 12.3473 89.4441Z" fill="#6B4911"/>
<path d="M12.3348 90.2477C12.0704 90.4624 11.6797 90.4228 11.4636 90.161C11.2475 89.8984 11.2874 89.5103 11.5509 89.2964C11.8152 89.0817 12.206 89.1214 12.4213 89.3831C12.6382 89.6449 12.5992 90.033 12.3348 90.2477ZM11.6756 89.4459C11.4952 89.5929 11.4678 89.8579 11.6157 90.038C11.7637 90.218 12.0305 90.2444 12.2118 90.0974C12.393 89.9504 12.4196 89.6854 12.2716 89.5053C12.1237 89.3261 11.856 89.2997 11.6756 89.4459Z" fill="#E6F1FD"/>
<path d="M13.6108 84.567C13.7929 84.7883 13.7596 85.1145 13.5368 85.2954C13.3141 85.4762 12.9857 85.4432 12.8036 85.2219C12.6216 85.0006 12.6548 84.6744 12.8776 84.4936C13.1012 84.3135 13.4288 84.3457 13.6108 84.567Z" fill="#6B4911"/>
<path d="M13.5992 85.3705C13.3349 85.5852 12.9442 85.5456 12.7289 85.2838C12.5127 85.0212 12.5526 84.6339 12.8161 84.4192C13.0805 84.2045 13.4712 84.2433 13.6865 84.5059C13.9027 84.7677 13.8636 85.1558 13.5992 85.3705ZM12.94 84.5687C12.7596 84.7157 12.7322 84.9808 12.8802 85.1608C13.0281 85.34 13.295 85.3672 13.4762 85.2202C13.6566 85.0732 13.684 84.8082 13.5361 84.6282C13.3881 84.449 13.1204 84.4225 12.94 84.5687Z" fill="#E6F1FD"/>
<path d="M16.2494 83.3591C16.4314 83.5804 16.3982 83.9066 16.1754 84.0875C15.9526 84.2683 15.6242 84.2353 15.4422 84.014C15.2601 83.7927 15.2934 83.4665 15.5162 83.2856C15.739 83.1048 16.0673 83.1378 16.2494 83.3591Z" fill="#6B4911"/>
<path d="M16.2378 84.1625C15.9734 84.3772 15.5827 84.3384 15.3674 84.0758C15.1513 83.8132 15.1912 83.4251 15.4547 83.2112C15.719 82.9965 16.1089 83.0353 16.3251 83.2979C16.5404 83.5597 16.5013 83.9478 16.2378 84.1625ZM15.5786 83.3615C15.3973 83.5077 15.3707 83.7736 15.5187 83.9536C15.6667 84.1328 15.9335 84.16 16.1147 84.0131C16.2951 83.8661 16.3226 83.601 16.1746 83.4218C16.0258 83.241 15.759 83.2145 15.5786 83.3615Z" fill="#E6F1FD"/>
<path d="M8.88829 90.4021C9.07035 90.6234 9.0371 90.9496 8.81431 91.1304C8.59152 91.3113 8.26316 91.2782 8.0811 91.0569C7.89905 90.8356 7.9323 90.5095 8.15509 90.3286C8.37788 90.1478 8.70624 90.1808 8.88829 90.4021Z" fill="#6B4911"/>
<path d="M8.87667 91.2055C8.61232 91.4202 8.22161 91.3805 8.00547 91.1188C7.78933 90.8562 7.82923 90.4689 8.09276 90.2542C8.35711 90.0395 8.74782 90.0783 8.96313 90.3409C9.1801 90.6027 9.14103 90.9908 8.87667 91.2055ZM8.21745 90.4037C8.03706 90.5507 8.00963 90.8157 8.1576 90.9957C8.30474 91.1758 8.57242 91.2022 8.75281 91.0552C8.93403 90.9082 8.96063 90.6431 8.81266 90.4631C8.66552 90.2839 8.39784 90.2575 8.21745 90.4037Z" fill="#E6F1FD"/>
<path d="M63.3774 29.1571H60.1062C59.3905 29.1571 58.8077 28.5782 58.8077 27.8672V24.617C58.8077 23.906 59.3905 23.3271 60.1062 23.3271H63.3774C64.0931 23.3271 64.6759 23.906 64.6759 24.617V27.8672C64.6767 28.579 64.094 29.1571 63.3774 29.1571ZM60.1062 23.5683C59.5235 23.5683 59.0505 24.039 59.0505 24.617V27.8672C59.0505 28.4453 59.5243 28.916 60.1062 28.916H63.3774C63.9601 28.916 64.434 28.4453 64.434 27.8672V24.617C64.434 24.039 63.9601 23.5683 63.3774 23.5683H60.1062Z" fill="#FAAD1D"/>
<path d="M63.3774 36.8954H60.1062C59.3905 36.8954 58.8077 36.3165 58.8077 35.6055V32.3553C58.8077 31.6443 59.3905 31.0654 60.1062 31.0654H63.3774C64.0931 31.0654 64.6759 31.6443 64.6759 32.3553V35.6055C64.6767 36.3165 64.094 36.8954 63.3774 36.8954ZM60.1062 31.3066C59.5235 31.3066 59.0505 31.7772 59.0505 32.3553V35.6055C59.0505 36.1836 59.5243 36.6542 60.1062 36.6542H63.3774C63.9601 36.6542 64.434 36.1836 64.434 35.6055V32.3553C64.434 31.7772 63.9601 31.3066 63.3774 31.3066H60.1062Z" fill="#FAAD1D"/>
<path d="M63.4714 44.5124H60.0124C59.4138 44.5124 58.9283 44.0301 58.9283 43.4356V40.0004C58.9283 39.4058 59.4138 38.9236 60.0124 38.9236H63.4714C64.0699 38.9236 64.5554 39.4058 64.5554 40.0004V43.4356C64.5554 44.0301 64.0699 44.5124 63.4714 44.5124Z" fill="#FAAD1D"/>
<path d="M61.5636 42.9491L60.1412 41.7171C60.0249 41.6163 60.0124 41.4404 60.1138 41.324C60.2152 41.2084 60.3923 41.196 60.5095 41.2967L61.5154 42.1679L62.9494 40.5792C63.0525 40.4644 63.2295 40.4553 63.3451 40.5577C63.4598 40.6601 63.4698 40.836 63.3667 40.9507L61.5636 42.9491Z" fill="#F2F2F2"/>
<path d="M10.2283 85.5449H5.70024C5.50987 85.5449 5.35608 85.3922 5.35608 85.2031V84.8133C5.35608 84.6242 5.5107 84.4714 5.70024 84.4714H10.2283C10.4187 84.4714 10.5725 84.6242 10.5725 84.8133V85.2031C10.5725 85.3913 10.4179 85.5449 10.2283 85.5449Z" fill="#6B4911"/>
<path d="M10.2283 83.6677H5.70024C5.50987 83.6677 5.35608 83.5141 5.35608 83.3259V82.9361C5.35608 82.747 5.5107 82.5942 5.70107 82.5942H10.2283C10.4187 82.5942 10.5725 82.7478 10.5725 82.9361V83.3259C10.5725 83.5141 10.4179 83.6677 10.2283 83.6677Z" fill="#6B4911"/>
<path d="M65.6926 75.5068V106.03C65.6926 107.117 64.8047 107.999 63.7099 107.999H32.2627C31.1679 107.999 30.28 107.117 30.28 106.03V75.5068C30.28 74.4201 31.1679 73.5374 32.2627 73.5374H63.7099C64.8056 73.5374 65.6926 74.4201 65.6926 75.5068Z" fill="#FAAD1D"/>
<path d="M64.5554 52.5256V53.4876C64.5554 54.0913 64.0625 54.5801 63.4548 54.5801H38.7211C38.1135 54.5801 37.6213 54.0904 37.6213 53.4876V52.5256C37.6213 51.922 38.1143 51.4331 38.7211 51.4331H63.4548C64.0625 51.4323 64.5554 51.922 64.5554 52.5256Z" fill="#FAAD1D"/>
<path d="M63.4548 60.2143H38.7211C38.0295 60.2143 37.4675 59.656 37.4675 58.969V58.007C37.4675 57.3199 38.0295 56.7617 38.7211 56.7617H63.4548C64.1464 56.7617 64.7084 57.3208 64.7084 58.007V58.969C64.7092 59.656 64.1464 60.2143 63.4548 60.2143ZM38.7211 57.0664C38.1991 57.0664 37.7743 57.4884 37.7743 58.007V58.969C37.7743 59.4876 38.1991 59.9096 38.7211 59.9096H63.4548C63.9768 59.9096 64.4008 59.4876 64.4008 58.969V58.007C64.4008 57.4884 63.9768 57.0664 63.4548 57.0664H38.7211Z" fill="#6B4911"/>
<path d="M63.4548 66.1195H38.7211C38.0295 66.1195 37.4675 65.5605 37.4675 64.8743V63.9123C37.4675 63.2252 38.0295 62.667 38.7211 62.667H63.4548C64.1464 62.667 64.7084 63.2252 64.7084 63.9123V64.8743C64.7092 65.5605 64.1464 66.1195 63.4548 66.1195ZM38.7211 62.9709C38.1991 62.9709 37.7743 63.3928 37.7743 63.9114V64.8734C37.7743 65.392 38.1991 65.814 38.7211 65.814H63.4548C63.9768 65.814 64.4008 65.392 64.4008 64.8734V63.9114C64.4008 63.3928 63.9768 62.9709 63.4548 62.9709H38.7211Z" fill="#6B4911"/>
<path d="M56.6863 88.672V89.9511C56.6863 90.5944 56.1609 91.1163 55.5133 91.1163H34.6651C34.0167 91.1163 33.4922 90.5944 33.4922 89.9511V88.672C33.4922 88.0287 34.0167 87.5068 34.6651 87.5068H55.5125C56.1609 87.5068 56.6863 88.0279 56.6863 88.672Z" fill="#E6F1FD"/>
<path d="M56.6863 82.9188V84.1979C56.6863 84.8412 56.1609 85.3631 55.5133 85.3631H34.6651C34.0167 85.3631 33.4922 84.8412 33.4922 84.1979V82.9188C33.4922 82.2755 34.0167 81.7537 34.6651 81.7537H55.5125C56.1609 81.7537 56.6863 82.2755 56.6863 82.9188Z" fill="#E6F1FD"/>
<path d="M39.0104 103.608V104.209C39.0104 104.329 38.9132 104.426 38.7926 104.426H34.0991C33.9786 104.426 33.8805 104.329 33.8805 104.209V103.608C33.8805 103.488 33.9786 103.391 34.0991 103.391H38.7926C38.9132 103.391 39.0104 103.487 39.0104 103.608Z" fill="#E6F1FD"/>
<path d="M45.1396 103.608V104.209C45.1396 104.329 45.0424 104.426 44.9218 104.426H40.2283C40.1078 104.426 40.0105 104.329 40.0105 104.209V103.608C40.0105 103.488 40.1078 103.391 40.2283 103.391H44.9218C45.0415 103.391 45.1396 103.487 45.1396 103.608Z" fill="#E6F1FD"/>
<path d="M51.3477 103.608V104.209C51.3477 104.329 51.2497 104.426 51.1291 104.426H46.4364C46.3159 104.426 46.2186 104.329 46.2186 104.209V103.608C46.2186 103.488 46.3159 103.391 46.4364 103.391H51.1299C51.2505 103.391 51.3477 103.487 51.3477 103.608Z" fill="#6B4911"/>
<g opacity="0.82">
<path d="M37.0069 10.4742V30.4587C37.0069 31.8633 35.8606 33.0012 34.4474 33.0012H5.18811C3.7749 33.0012 2.62854 31.8633 2.62854 30.4587V10.4742C2.62854 9.07038 3.7749 7.93164 5.18811 7.93164H34.4474C35.8606 7.93164 37.0069 9.06955 37.0069 10.4742Z" fill="#FAAD1D"/>
</g>
<path d="M33.36 11.9316V12.7756C33.36 13.1562 33.0491 13.4642 32.6667 13.4642H17.9743C17.5919 13.4642 17.2819 13.1562 17.2819 12.7756V11.9316C17.2819 11.5518 17.5919 11.2429 17.9743 11.2429H32.6676C33.0491 11.2429 33.36 11.5509 33.36 11.9316Z" fill="#E6F1FD"/>
<path d="M33.36 16.2412V17.3766C33.36 17.7565 33.0491 18.0653 32.6667 18.0653H17.9743C17.5919 18.0653 17.2819 17.7573 17.2819 17.3766V16.2412C17.2819 15.8613 17.5919 15.5525 17.9743 15.5525H32.6676C33.0491 15.5533 33.36 15.8613 33.36 16.2412Z" fill="#E6F1FD"/>
<path d="M8.72452 19.0506C9.13103 19.1876 9.5658 19.2636 10.018 19.2694C11.3888 19.2867 12.615 18.6501 13.3956 17.6517C13.9359 16.9589 14.2626 16.0927 14.2743 15.1488C14.2759 15.0547 14.2734 14.9613 14.2685 14.8689C14.246 14.4494 14.1612 14.0472 14.0224 13.669C13.443 12.0844 11.9234 10.9432 10.1261 10.92C9.15763 10.9076 8.26149 11.2214 7.54408 11.7598C6.54153 12.5113 5.88647 13.6979 5.86984 15.0414C5.84656 16.8978 7.0453 18.4866 8.72452 19.0506ZM6.92143 15.0555C6.9339 14.0555 7.41855 13.1711 8.1609 12.6079C8.70208 12.1975 9.37959 11.9572 10.1128 11.9663C11.4603 11.9836 12.6 12.8391 13.0348 14.0274L13.0356 14.0291C13.1387 14.3115 13.2019 14.6129 13.2194 14.9267C13.2227 14.996 13.2243 15.0654 13.2235 15.1364C13.2144 15.8441 12.9691 16.4932 12.5643 17.0126C11.9791 17.7624 11.0605 18.2397 10.0322 18.2264C9.69216 18.2223 9.36629 18.1645 9.06203 18.0621C7.80261 17.6385 6.90398 16.4477 6.92143 15.0555Z" fill="#E6F1FD"/>
<path d="M12.5634 17.0125L13.3947 17.6524C12.6149 18.6516 11.3879 19.2883 10.0171 19.2709C9.56491 19.2652 9.13014 19.1884 8.72363 19.0513L9.06114 18.062C9.36623 18.1644 9.6921 18.2222 10.0313 18.2263C11.0596 18.2387 11.979 17.7614 12.5634 17.0125Z" fill="#E6F1FD"/>
<path d="M13.2186 14.9266L14.2693 14.8696C14.2743 14.9621 14.276 15.0554 14.2752 15.1496C14.2635 16.0934 13.9368 16.9597 13.3965 17.6525L12.5652 17.0125C12.9709 16.4939 13.2153 15.844 13.2244 15.1364C13.2236 15.0653 13.2227 14.996 13.2186 14.9266Z" fill="#E6F1FD"/>
<path d="M13.2185 14.9266C13.201 14.6129 13.1387 14.3115 13.0348 14.029L13.0339 14.0274L14.0232 13.6707C14.1612 14.0489 14.2468 14.451 14.2692 14.8705L13.2185 14.9266Z" fill="#E6F1FD"/>
<path d="M7.54407 11.7606C8.26148 11.223 9.15762 10.9084 10.1261 10.9208C11.9234 10.9439 13.443 12.0851 14.0224 13.6698L13.034 14.0281L13.0331 14.0265C12.5984 12.8382 11.4595 11.9827 10.1111 11.9654C9.37791 11.9563 8.70041 12.1966 8.15923 12.607L7.54407 11.7606Z" fill="#E6F1FD"/>
<g opacity="0.66">
<path d="M5.86975 29.1364L11.5201 24.7722L16.4264 27.4163L23.273 22.2635L28.1802 25.0158L33.36 21.5178V29.1364H5.86975Z" fill="#E6F1FD"/>
</g>
</g>
<defs>
<clipPath id="clip0_1738_9283">
<rect width="78" height="108" fill="white"/>
</clipPath>
</defs>
</svg>
