<svg width="20" height="19" viewBox="0 0 20 19" fill="none" xmlns="http://www.w3.org/2000/svg">
<path d="M8.33567 16.6179H2.92072C2.71556 16.6179 2.5188 16.5364 2.37373 16.3913C2.22866 16.2463 2.14716 16.0495 2.14716 15.8443V3.46729C2.14716 3.26213 2.22866 3.06537 2.37373 2.9203C2.5188 2.77523 2.71556 2.69373 2.92072 2.69373H8.33567C8.33567 3.10405 8.49868 3.49757 8.78882 3.78771C9.07896 4.07785 9.47248 4.24086 9.8828 4.24086C10.2931 4.24086 10.6866 4.07785 10.9768 3.78771C11.2669 3.49757 11.4299 3.10405 11.4299 2.69373H16.8449C17.0501 2.69373 17.2468 2.77523 17.3919 2.9203C17.537 3.06537 17.6185 3.26213 17.6185 3.46729V15.8443C17.6185 16.0495 17.537 16.2463 17.3919 16.3913C17.2468 16.5364 17.0501 16.6179 16.8449 16.6179H11.4299C11.4299 16.2076 11.2669 15.8141 10.9768 15.5239C10.6866 15.2338 10.2931 15.0708 9.8828 15.0708C9.47248 15.0708 9.07896 15.2338 8.78882 15.5239C8.49868 15.8141 8.33567 16.2076 8.33567 16.6179ZM5.24142 6.56155V12.7501H6.78855V6.56155H5.24142ZM12.9771 6.56155V12.7501H14.5242V6.56155H12.9771Z" fill="#FAAD1D"/>
</svg>
