<svg width="157" height="95" viewBox="0 0 157 95" fill="none" xmlns="http://www.w3.org/2000/svg">
<g clip-path="url(#clip0_1738_9059)">
<path d="M110.387 73.6343H75.795V84.397H110.387V73.6343Z" fill="#455A64"/>
<path d="M51.6217 68.7637V82.9935H63.4313L68.1657 76.1824H154.414V68.7637H51.6217Z" fill="#263238"/>
<path d="M50.8828 23.712C50.8564 23.2354 50.45 22.8688 49.9697 22.8871C45.3039 23.0783 23.1388 24.0865 18.5813 26.26C15.0925 27.9228 11.2712 34.1422 8.57678 38.3294C6.64503 41.3304 2.37775 47.9923 1.51479 51.3992C0.783785 54.2849 0.343071 60.2712 0.393212 63.246L1.61243 78.9711H21.6979L23.7089 73.7783C25.0205 70.3897 28.3007 68.1534 31.9584 68.1534H51.9172V42.0558L50.8828 23.712Z" fill="#FAAD1D"/>
<path d="M16.2035 28.0015C13.4378 30.6201 10.6695 35.0823 8.57942 38.3295C6.79017 41.1079 3.00056 47.0261 1.76286 50.5901C1.73911 50.6556 1.72064 50.7184 1.69952 50.7839C2.31177 50.6163 3.25126 50.2732 3.54155 49.6971C3.98227 48.8251 4.54702 45.8372 11.5272 34.5586C13.6542 31.1229 15.7259 29.1118 16.2035 28.0015Z" fill="#455A64"/>
<path d="M40.5669 26.8388C35.4314 27.1295 24.2974 27.8758 20.74 29.0856C16.1059 30.6621 10.9044 42.831 10.659 43.3652L7.15175 52.2661C7.0673 52.5175 7.25731 52.7767 7.52385 52.7767H16.5836C16.9266 52.7767 17.2671 52.7165 17.5864 52.596L41.4167 43.7868C42.4934 43.3888 43.2085 42.3675 43.2085 41.2258V29.3187C43.2112 27.8915 42.0025 26.7576 40.5669 26.8388Z" fill="#263238"/>
<path d="M8.16248 51.9021C8.16248 51.9021 11.5246 44.4258 12.6514 41.9826C14.3562 38.2851 18.3385 30.7092 21.0277 29.9106C23.5004 29.1747 30.6099 28.2765 40.6197 27.7109C40.6513 27.7083 40.683 27.7083 40.7147 27.7083C41.6067 27.7083 42.3324 28.431 42.3324 29.3187V41.4982C42.3324 42.1083 41.9445 42.6635 41.3665 42.8756L23.7617 45.0307C22.334 45.2062 21.0567 45.9944 20.2676 47.1885L17.2169 51.8026C17.0375 51.8681 16.8501 51.9021 16.6574 51.9021H8.16248Z" fill="#455A64"/>
<path d="M23.123 45.167L17.1272 51.7791L20.4392 29.8189L21.2678 29.5361L19.6395 45.8033C19.6026 46.1621 19.9641 46.4292 20.2993 46.2956L23.123 45.167Z" fill="#263238"/>
<path d="M0.00262296 64.7727C-0.0184891 64.4873 0.0791543 64.2542 0.2243 64.2411L3.43334 63.9478C3.70252 63.9243 3.94267 64.4166 3.97433 65.0058L4.11948 67.449C4.14323 67.8418 4.02448 68.1717 3.84766 68.2032L0.575288 68.7636C0.427504 68.7897 0.287636 68.5724 0.266524 68.2843L0.00262296 64.7727Z" fill="#EBEBEB"/>
<path d="M23.123 76.1875H0V85.3869H23.123V76.1875Z" fill="#263238"/>
<path d="M38.563 94.9955C45.5453 94.7292 50.9881 88.8979 50.7199 81.9709C50.4516 75.0439 44.5739 69.6443 37.5916 69.9105C30.6093 70.1767 25.1665 76.008 25.4347 82.9351C25.703 89.8621 31.5807 95.2617 38.563 94.9955Z" fill="#263238"/>
<path d="M25.4322 82.2339C25.4322 82.2444 25.4296 82.2548 25.4296 82.2653C25.3293 89.1969 30.9108 94.8978 37.8962 94.9973C44.8817 95.0968 50.6268 89.5583 50.7271 82.6267C50.7271 82.6162 50.7271 82.6057 50.7271 82.5953L25.4322 82.2339Z" fill="#263238"/>
<path d="M29.198 82.3203C29.1267 87.1858 33.0457 91.1897 37.9489 91.2604C42.8522 91.3311 46.8873 87.4424 46.9585 82.5743C47.0298 77.7088 43.1108 73.7049 38.2049 73.6342C33.3016 73.5661 29.2692 77.4548 29.198 82.3203Z" fill="#FAFAFA"/>
<path d="M38.2076 73.6369C33.3043 73.5662 29.2693 77.4549 29.2007 82.3204L46.9612 82.5744C47.0298 77.709 43.1109 73.705 38.2076 73.6369Z" fill="#E0E0E0"/>
<path d="M32.6683 82.3702C32.6261 85.3345 35.0117 87.7725 37.9991 87.8144C40.9864 87.8563 43.4434 85.489 43.4856 82.5247C43.5278 79.5603 41.1421 77.1223 38.1548 77.0805C35.1701 77.0359 32.7131 79.4058 32.6683 82.3702Z" fill="#263238"/>
<path d="M13.5408 47.2983H12.5089C11.3451 47.2983 10.403 46.3634 10.403 45.2086V36.9022C10.403 35.7474 11.3451 34.8125 12.5089 34.8125H13.5408C14.7046 34.8125 15.6467 35.7474 15.6467 36.9022V45.2086C15.6467 46.3634 14.7046 47.2983 13.5408 47.2983Z" fill="#263238"/>
<path d="M8.23375 55.0208H7.96985V41.8175C7.96985 40.5082 9.04393 39.4424 10.3634 39.4424H10.9968V39.7042H10.3634C9.18907 39.7042 8.23375 40.6522 8.23375 41.8175V55.0208Z" fill="#263238"/>
<path d="M10.0309 55.0364L9.29728 42.6894C9.27089 42.2573 9.42131 41.8462 9.72216 41.5319C10.0204 41.2177 10.4268 41.0422 10.8622 41.0422V41.3041C10.5007 41.3041 10.1629 41.4481 9.91481 41.71C9.66674 41.9719 9.54007 42.3149 9.56118 42.6737L10.2948 55.0207L10.0309 55.0364Z" fill="#263238"/>
<path d="M10.8622 53.8293H7.30481V57.9171H10.8622V53.8293Z" fill="#263238"/>
<path d="M9.54798 46.0728H8.10181V46.3346H9.54798V46.0728Z" fill="#263238"/>
<path d="M21.6188 27.1923C21.6188 27.1923 21.7244 27.1766 21.9329 27.1504C22.144 27.1268 22.4527 27.0902 22.8591 27.0404C23.6772 26.9461 24.8833 26.8073 26.4456 26.6293C29.5754 26.2758 34.1251 25.7625 39.8174 25.1183C40.53 25.0424 41.2557 24.9481 42.0078 24.88C42.3878 24.8407 42.7731 24.8879 43.1558 24.9559C43.5332 25.0476 43.9079 25.1733 44.2562 25.3697C44.9503 25.752 45.552 26.3465 45.9215 27.0849C46.1062 27.4515 46.2461 27.8496 46.3041 28.2659C46.349 28.4728 46.3437 28.6849 46.3595 28.8944C46.3595 29.1039 46.3595 29.3134 46.3595 29.5255C46.3622 32.9062 46.3648 36.5357 46.3675 40.3825C46.3701 48.0762 46.3727 56.634 46.3754 65.7731V65.8386H46.3094C43.3405 65.8386 40.2924 65.8386 37.1837 65.8412C35.6293 65.8412 34.0591 65.8412 32.4757 65.8412C31.684 65.8438 30.8897 65.8229 30.1085 65.9512C29.3194 66.0454 28.5594 66.2995 27.8205 66.5875C25.5219 67.5643 23.6931 69.4785 22.8143 71.7306C22.714 72.016 22.5873 72.291 22.524 72.5869C22.4554 72.8802 22.3551 73.1656 22.3234 73.4641L22.2548 73.9093L22.2205 74.1319L22.21 74.3571L22.1862 74.8049L22.1756 75.0275L22.173 75.0563C22.2337 74.9987 22.0912 75.1453 22.1018 75.1296H22.0938H22.0806H22.0226H21.9091C20.7004 75.1296 19.4997 75.1296 18.3069 75.1296C13.5434 75.1296 8.93837 75.127 4.54442 75.127H4.48108V75.0641C4.48372 71.1178 4.48372 67.3129 4.48636 63.6782C4.48636 61.8608 4.489 60.0854 4.489 58.3544C4.489 57.4903 4.489 56.6366 4.49164 55.7934C4.49427 55.3718 4.489 54.9554 4.49691 54.539C4.50747 54.1227 4.5365 53.7089 4.58664 53.3004C4.78984 51.669 5.32556 50.1344 6.08032 48.7884C6.80869 47.432 7.51066 46.1226 8.18625 44.8631C9.54006 42.3413 10.7883 40.0159 11.9204 37.9079C13.0526 35.7998 14.0686 33.9092 14.9553 32.2594C15.177 31.8483 15.3907 31.4502 15.5966 31.0679C15.7022 30.8794 15.7945 30.6882 15.9054 30.5101C16.0162 30.3321 16.1349 30.1671 16.2616 30.01C16.763 29.3867 17.3225 28.9049 17.8609 28.5357C18.9508 27.8024 19.9404 27.5065 20.5975 27.3546C21.2625 27.2106 21.6188 27.1923 21.6188 27.1923C21.6188 27.1923 21.5317 27.208 21.3602 27.2316C21.1887 27.2578 20.9353 27.3023 20.6028 27.3782C19.9483 27.5379 18.964 27.8365 17.8846 28.5723C17.3515 28.9416 16.7973 29.4234 16.3012 30.044C16.1772 30.1985 16.0611 30.3661 15.9502 30.5416C15.842 30.717 15.7497 30.9108 15.6441 31.0993C15.4409 31.4817 15.2271 31.8797 15.0081 32.2934C14.1267 33.9458 13.1159 35.8391 11.9891 37.9498C10.8622 40.0604 9.61659 42.3884 8.26806 44.9128C7.59247 46.175 6.89314 47.4843 6.16741 48.8408C5.41793 50.1789 4.89013 51.6978 4.6922 53.3161C4.6447 53.7194 4.61303 54.1305 4.60511 54.5443C4.5972 54.958 4.60247 55.377 4.60247 55.796C4.60247 56.6366 4.60247 57.4903 4.60511 58.357C4.60511 60.088 4.60775 61.8634 4.60775 63.6808C4.61039 67.3155 4.61039 71.1204 4.61303 75.0668L4.54969 75.0039C8.94365 75.0039 13.5514 75.0013 18.3121 75.0013C19.5023 75.0013 20.7031 75.0013 21.9144 75.0013H22.0279H22.0859H22.0991H22.107C22.1255 74.9882 21.9804 75.127 22.0411 75.0641L22.0437 75.0353L22.0542 74.8075L22.078 74.3545L22.0886 74.1267L22.1229 73.9014L22.1915 73.451C22.2231 73.1473 22.3261 72.8566 22.3973 72.5607C22.4607 72.2595 22.59 71.9793 22.6903 71.6913C23.5822 69.4026 25.4375 67.4621 27.7703 66.4723C28.5225 66.179 29.2931 65.9224 30.0927 65.8281C30.887 65.6972 31.6919 65.7181 32.481 65.7155C34.0644 65.7155 35.6346 65.7155 37.189 65.7155C40.2977 65.7155 43.3458 65.7155 46.3147 65.7155L46.2487 65.781C46.2513 56.6392 46.254 48.084 46.2566 40.3904C46.2593 36.5435 46.2619 32.9141 46.2645 29.5334C46.2645 29.1091 46.2804 28.6902 46.2118 28.2895C46.1563 27.8836 46.0191 27.496 45.8397 27.1373C45.4807 26.4172 44.8949 25.8358 44.2167 25.4587C43.8789 25.2676 43.512 25.1445 43.1426 25.0528C42.7705 24.9874 42.3931 24.9376 42.021 24.9769C41.2768 25.0397 40.5432 25.134 39.8333 25.21C34.1383 25.8358 29.586 26.336 26.4561 26.6816C24.8938 26.8519 23.6852 26.9828 22.8671 27.0692C22.4607 27.1111 22.1493 27.1451 21.9381 27.1661C21.7244 27.1844 21.6188 27.1923 21.6188 27.1923Z" fill="#263238"/>
<path d="M42.1635 56.1311C42.1635 56.1232 42.2347 56.1258 42.3693 56.1023C42.5013 56.0787 42.6992 56.0263 42.9129 55.8875C43.1241 55.7487 43.351 55.5157 43.4645 55.1752C43.5226 55.005 43.5437 54.8165 43.5358 54.6122C43.5305 54.4106 43.4803 54.2011 43.3748 54.0021C43.1689 53.6119 42.7177 53.2819 42.1846 53.2819C41.6383 53.2846 41.0551 53.2846 40.4428 53.2872C39.2157 53.2898 37.8672 53.2898 36.4527 53.2924C36.1149 53.2924 35.785 53.4234 35.5422 53.6433C35.2994 53.8633 35.1437 54.1671 35.1094 54.4813C35.0777 54.8034 35.1199 55.1202 35.2756 55.3874C35.4234 55.6545 35.6662 55.8561 35.9354 55.9687C36.2072 56.0892 36.5001 56.0708 36.7957 56.0734C37.086 56.0734 37.3684 56.0761 37.6402 56.0761C38.1838 56.0787 38.6932 56.0813 39.1576 56.0839C40.076 56.0918 40.8229 56.0996 41.3559 56.1049C41.6066 56.1101 41.8046 56.1153 41.9523 56.118C42.0922 56.1232 42.1635 56.1284 42.1635 56.1311C42.1635 56.1363 42.0922 56.1389 41.955 56.1441C41.8072 56.1468 41.6066 56.152 41.3586 56.1572C40.8255 56.1625 40.0786 56.1703 39.1603 56.1782C38.6958 56.1808 38.1865 56.1834 37.6428 56.186C37.371 56.186 37.0887 56.1887 36.7984 56.1887C36.6506 56.186 36.5107 56.1939 36.3524 56.186C36.1967 56.1756 36.041 56.1441 35.8932 56.0813C35.5976 55.9582 35.3311 55.7409 35.1674 55.4476C34.9959 55.1595 34.9484 54.8008 34.9827 54.4656C35.0197 54.1199 35.1886 53.7847 35.4551 53.5438C35.719 53.3003 36.0832 53.1562 36.4553 53.1562C37.8698 53.1589 39.2183 53.1589 40.4455 53.1615C41.0577 53.1641 41.6409 53.1667 42.1872 53.1693C42.7625 53.1746 43.2455 53.5333 43.4592 53.9549C43.5674 54.1671 43.6202 54.3949 43.6202 54.607C43.6255 54.8139 43.6017 55.0207 43.5358 55.1962C43.4091 55.5523 43.1637 55.7932 42.9393 55.9294C42.7124 56.0656 42.5092 56.1127 42.3719 56.1258C42.2374 56.1441 42.1635 56.1311 42.1635 56.1311Z" fill="#263238"/>
<path d="M41.6752 52.8421C41.6752 52.8787 40.6619 52.9075 39.4136 52.9075C38.1627 52.9075 37.152 52.8787 37.152 52.8421C37.152 52.8054 38.1654 52.7766 39.4136 52.7766C40.6619 52.7766 41.6752 52.8054 41.6752 52.8421Z" fill="white"/>
<path d="M24.176 85.4629L22.0701 85.311C22.6216 77.8086 23.4292 73.3202 24.5402 71.5892C26.6725 68.2635 28.7916 67.6638 31.143 67.2658C33.3281 66.8966 35.5343 66.983 37.6666 67.0694L38.1891 67.0904C42.591 67.2606 51.8117 67.1087 51.9041 67.1087L51.9384 69.2036C51.846 69.2062 42.5646 69.3581 38.1047 69.1853L37.5795 69.1643C35.5554 69.0832 33.4627 68.9994 31.4966 69.3319C29.3986 69.6881 28.0026 70.094 26.3189 72.7153C25.8095 73.5087 24.8542 76.219 24.176 85.4629Z" fill="#263238"/>
<path d="M157 0H53.0283V68.6929H157V0Z" fill="#FAAD1D"/>
<path d="M155.754 67.3338C155.754 66.8913 155.733 41.6971 155.699 1.55288L155.754 1.60787C127.9 1.61049 92.5264 1.61311 54.1499 1.61835H54.142L54.2106 1.55026C54.208 24.9323 54.208 47.1884 54.2053 67.3312L54.142 67.2683C113.923 67.3076 155.187 67.3338 155.754 67.3338C155.19 67.3338 113.923 67.36 54.142 67.3966H54.0786V67.3338C54.076 47.191 54.076 24.935 54.0734 1.55288V1.48218H54.142H54.1499C92.5264 1.48742 127.9 1.49265 155.754 1.49789H155.81V1.55288C155.776 41.6971 155.754 66.8913 155.754 67.3338Z" fill="#263238"/>
<path d="M38.2393 32.5291C38.2419 32.5317 38.2076 32.5605 38.1443 32.6102C38.0651 32.6678 37.9674 32.7359 37.854 32.8171C37.6006 32.9952 37.2285 33.2492 36.7693 33.5582C35.8483 34.1788 34.5658 35.0194 33.1354 35.9281C31.7051 36.8368 30.3988 37.6433 29.4461 38.2142C28.9711 38.4996 28.5831 38.7301 28.3139 38.8846C28.1899 38.9553 28.087 39.0129 28.0025 39.06C27.9313 39.0993 27.8917 39.1176 27.8891 39.1124C27.8864 39.1071 27.9207 39.081 27.9893 39.0364C28.0711 38.9815 28.1688 38.9186 28.2875 38.84C28.5673 38.662 28.942 38.4237 29.3959 38.133C30.3513 37.5281 31.6391 36.7137 33.0615 35.8129C34.4787 34.9068 35.7639 34.0845 36.7165 33.477C37.1705 33.189 37.5452 32.9507 37.8276 32.7726C37.949 32.6993 38.0492 32.6364 38.1337 32.5867C38.197 32.5448 38.2366 32.5264 38.2393 32.5291Z" fill="#FAFAFA"/>
<path d="M33.7371 33.7127C33.7398 33.7153 33.7055 33.7441 33.6421 33.7939C33.5629 33.8515 33.4653 33.9196 33.3518 34.0008C33.0985 34.1788 32.7264 34.4328 32.2672 34.7418C31.3462 35.3625 30.0636 36.2031 28.6333 37.1117C27.2029 38.0204 25.8966 38.827 24.9439 39.3978C24.4689 39.6833 24.081 39.9137 23.8118 40.0682C23.6878 40.1389 23.5848 40.1965 23.5004 40.2437C23.4291 40.2829 23.3896 40.3013 23.3869 40.296C23.3843 40.2908 23.4186 40.2646 23.4872 40.2201C23.569 40.1651 23.6667 40.1022 23.7854 40.0237C24.0651 39.8456 24.4399 39.6073 24.8938 39.3167C25.8491 38.7117 27.137 37.8973 28.5594 36.9965C29.9765 36.0905 31.2617 35.2682 32.2144 34.6607C32.6683 34.3726 33.0431 34.1343 33.3254 33.9562C33.4468 33.8829 33.5471 33.8201 33.6316 33.7703C33.6975 33.7284 33.7345 33.7075 33.7371 33.7127Z" fill="#FAFAFA"/>
<path d="M11.5193 41.3356C11.5114 41.3382 11.4824 41.2544 11.4375 41.1052C11.3953 40.9559 11.3372 40.7359 11.2713 40.4636C11.1472 39.9189 10.9862 39.1542 10.9915 38.2901C10.9968 37.4259 11.2211 36.6534 11.4956 36.1585C11.6302 35.9097 11.7648 35.7212 11.8703 35.6033C11.9732 35.4829 12.0392 35.4253 12.0471 35.4305C12.0682 35.4462 11.8254 35.7002 11.5853 36.2004C11.3425 36.6953 11.1393 37.4469 11.134 38.2901C11.1287 39.1359 11.2713 39.8953 11.3715 40.4426C11.4745 40.9899 11.5404 41.3304 11.5193 41.3356Z" fill="#FAFAFA"/>
<path d="M0.781139 59.8995C0.770583 59.8995 0.767944 59.7947 0.767944 59.6062C0.767944 59.4176 0.773222 59.1453 0.783778 58.8101C0.80489 58.1371 0.855032 57.2101 0.934202 56.1862C1.01601 55.1623 1.11365 54.2379 1.1981 53.5702C1.24033 53.2376 1.27727 52.9679 1.30894 52.7819C1.33797 52.596 1.35908 52.4939 1.36964 52.4939C1.38019 52.4939 1.37492 52.5986 1.36172 52.7872C1.34325 53.0045 1.32214 53.269 1.29575 53.5806C1.23505 54.2824 1.15852 55.1911 1.07143 56.1967C0.997538 57.2023 0.931563 58.1136 0.878783 58.8154C0.855032 59.127 0.836559 59.3915 0.818085 59.6088C0.80489 59.7974 0.791695 59.8995 0.781139 59.8995Z" fill="#FAFAFA"/>
<path d="M29.6968 64.9849C29.7021 65.0137 29.1901 65.0844 28.3984 65.3384C28.0025 65.4614 27.5433 65.6448 27.0498 65.8804C26.5616 66.124 26.0417 66.4277 25.5298 66.797C25.0231 67.1714 24.5745 67.5721 24.1944 67.9623C23.8197 68.3577 23.5057 68.7374 23.2681 69.0752C22.7905 69.7482 22.5662 70.2117 22.5398 70.1986C22.5319 70.1934 22.5846 70.0782 22.6876 69.8687C22.7377 69.7639 22.8037 69.6356 22.8908 69.4968C22.9752 69.3554 23.0676 69.1904 23.189 69.0202C23.4186 68.6719 23.7273 68.2818 24.1021 67.8759C24.4847 67.4752 24.9334 67.0667 25.448 66.687C25.9652 66.3125 26.4957 66.0087 26.9944 65.7678C27.4958 65.5348 27.9656 65.3593 28.3694 65.2467C28.5673 65.1813 28.7546 65.1446 28.9156 65.1079C29.0766 65.0687 29.2191 65.0451 29.3352 65.0294C29.5648 64.9901 29.6941 64.9744 29.6968 64.9849Z" fill="#FAFAFA"/>
<path d="M55.6858 49.1733C55.6831 49.1733 55.6805 49.134 55.6778 49.0607C55.6752 48.9795 55.6726 48.8695 55.6699 48.7307C55.6646 48.4322 55.6594 48.008 55.6515 47.4607C55.6356 46.3503 55.6119 44.7556 55.5855 42.789C55.5142 38.84 55.4166 33.3932 55.3084 27.3781C55.1975 21.3578 55.1052 15.9083 55.0709 11.9646C55.0524 9.99278 55.0471 8.39539 55.0471 7.29293C55.0498 6.74563 55.055 6.32141 55.055 6.02288C55.0577 5.88147 55.0603 5.7741 55.0603 5.69293C55.063 5.6196 55.0656 5.58032 55.0682 5.58032C55.0709 5.58032 55.0735 5.6196 55.0761 5.69293C55.0788 5.7741 55.0814 5.88409 55.0841 6.02288C55.0893 6.32141 55.0946 6.74563 55.1025 7.29293C55.1184 8.40325 55.1421 9.99539 55.1685 11.9646C55.2398 15.9136 55.3374 21.3604 55.4456 27.3781C55.5565 33.3958 55.6488 38.8452 55.6831 42.789C55.7016 44.7608 55.7069 46.3582 55.7069 47.4607C55.7042 48.008 55.699 48.4348 55.699 48.7307C55.6963 48.8721 55.6937 48.9795 55.6937 49.0607C55.6884 49.1366 55.6858 49.1733 55.6858 49.1733Z" fill="#FAFAFA"/>
<path d="M132.032 94.9868C139.013 94.7102 144.447 88.871 144.168 81.9447C143.89 75.0184 138.004 69.6277 131.022 69.9044C124.041 70.181 118.607 76.0202 118.886 82.9465C119.164 89.8728 125.05 95.2635 132.032 94.9868Z" fill="#263238"/>
<path d="M118.88 82.2341C118.88 82.2446 118.877 82.2551 118.877 82.2656C118.777 89.1972 124.358 94.898 131.344 94.9975C138.329 95.097 144.074 89.5585 144.175 82.6269C144.175 82.6165 144.175 82.606 144.175 82.5955L118.88 82.2341Z" fill="#263238"/>
<path d="M122.645 82.3205C122.574 87.186 126.493 91.19 131.396 91.2607C136.302 91.3314 140.335 87.4427 140.406 82.5746C140.477 77.7091 136.558 73.7051 131.652 73.6344C126.749 73.5663 122.717 77.4551 122.645 82.3205Z" fill="#FAFAFA"/>
<path d="M131.655 73.6372C126.752 73.5665 122.717 77.4552 122.648 82.3207L140.409 82.5747C140.477 77.7092 136.558 73.7053 131.655 73.6372Z" fill="#E0E0E0"/>
<path d="M126.116 82.3704C126.073 85.3347 128.459 87.7727 131.446 87.8146C134.434 87.8565 136.891 85.4892 136.933 82.5249C136.975 79.5606 134.59 77.1226 131.602 77.0807C128.617 77.0362 126.161 79.4061 126.116 82.3704Z" fill="#263238"/>
<path d="M114.897 85.8872C114.897 85.8872 112.971 68.0854 131.565 68.0854C148.721 68.0854 148.339 83.3994 148.178 85.7693H145.486C145.486 85.7693 146.858 70.6779 131.565 70.6779C116.272 70.6779 117.605 86.0757 117.605 86.0757C117.605 86.0757 116.473 86.0155 114.897 85.8872Z" fill="#455A64"/>
<path d="M124.857 69.9237C124.857 69.9289 124.807 69.9473 124.712 69.9761C124.617 70.0075 124.472 70.0441 124.289 70.107C123.923 70.2222 123.4 70.4081 122.777 70.6936C121.537 71.254 119.906 72.291 118.56 73.8831C117.212 75.4753 116.465 77.2481 116.124 78.5574C115.95 79.2147 115.855 79.7594 115.805 80.1365C115.776 80.325 115.765 80.4717 115.75 80.5712C115.736 80.6707 115.728 80.7231 115.723 80.7231C115.718 80.7231 115.718 80.6707 115.723 80.5686C115.728 80.4691 115.731 80.3198 115.752 80.1286C115.787 79.7489 115.866 79.199 116.032 78.5312C116.354 77.2062 117.093 75.4046 118.457 73.7941C119.819 72.1836 121.479 71.1466 122.74 70.6045C123.374 70.3296 123.904 70.1541 124.276 70.0572C124.461 70.0022 124.609 69.9761 124.706 69.9525C124.801 69.9289 124.854 69.9184 124.857 69.9237Z" fill="#FAFAFA"/>
<path d="M109.324 30.0046C108.289 30.0046 107.518 30.4367 107.014 31.2982C106.576 32.034 106.405 33.0029 106.502 34.2075C106.616 35.6138 107.022 36.6979 107.722 37.4573C108.337 38.1172 109.105 38.4472 110.023 38.4472C110.994 38.4472 111.722 38.0727 112.213 37.3264C112.701 36.567 112.891 35.5064 112.781 34.1525C112.67 32.7699 112.266 31.7119 111.567 30.9787C110.968 30.3267 110.218 30.0046 109.324 30.0046ZM109.107 27.0769C111.239 27.0769 113 27.8258 114.385 29.3211C115.575 30.6252 116.251 32.2619 116.409 34.2259C116.591 36.4936 116.035 38.2953 114.736 39.6256C113.604 40.7909 112.113 41.3748 110.26 41.3748C108.088 41.3748 106.305 40.6259 104.906 39.1306C103.702 37.837 103.022 36.203 102.863 34.2259C102.681 31.9581 103.214 30.1826 104.465 28.9021C105.671 27.6844 107.218 27.0769 109.107 27.0769Z" fill="#333333"/>
<path d="M126.187 31.1621L123.688 41.0292H119.896L115.729 31.1621H119.178L120.468 34.5847C120.951 35.826 121.321 37.0122 121.579 38.1409C121.648 37.24 121.825 36.1062 122.11 34.7392L122.893 31.1647H126.187V31.1621Z" fill="#333333"/>
<path d="M133.341 35.0037C133.072 33.7232 132.338 33.0842 131.138 33.0842C129.924 33.0842 129.274 33.7232 129.185 35.0037H133.341ZM136.592 38.0073C136.487 38.5913 136.236 39.1281 135.84 39.623C134.946 40.7386 133.631 41.2964 131.895 41.2964C130.325 41.2964 129.018 40.8643 127.979 40.0027C126.815 39.0391 126.171 37.7664 126.042 36.1821C125.907 34.5219 126.364 33.1916 127.406 32.1886C128.309 31.3271 129.48 30.895 130.924 30.895C132.674 30.895 134.067 31.4659 135.104 32.605C136.014 33.6053 136.534 34.9173 136.666 36.5409C136.674 36.6561 136.685 36.7556 136.69 36.8446H129.296C129.377 37.5543 129.633 38.1121 130.064 38.518C130.491 38.9108 131.043 39.1072 131.721 39.1072C132.552 39.1072 133.154 38.7405 133.529 38.0047H136.592V38.0073Z" fill="#333333"/>
<path fill-rule="evenodd" clip-rule="evenodd" d="M100.697 32.5238L100.47 29.7087H90.4388L90.6658 32.5238H94.78H95.5928H96.1206C95.1205 33.3827 94.4844 33.964 94.2153 34.2704L90.6632 38.222L90.8901 41.0371H101.824L101.597 38.222H97.1314L96.0362 38.2665C95.8884 38.2665 95.6456 38.2508 95.3078 38.222C95.6931 37.9025 96.0072 37.6328 96.2552 37.4154C96.6511 37.0672 96.9255 36.8105 97.0733 36.6508L100.697 32.5238ZM86.607 27.5902C85.0157 25.8724 82.9968 25.0134 80.5478 25.0134C78.3786 25.0134 76.5999 25.7126 75.217 27.1084C73.7814 28.5774 73.1665 30.6148 73.3776 33.2203C73.5597 35.4907 74.3435 37.3683 75.7237 38.8531C76.4151 39.5942 77.191 40.1755 78.0487 40.5971L79.0489 37.0279C79.0172 36.9964 78.9855 36.965 78.9565 36.931C78.1516 36.059 77.6871 34.8125 77.5552 33.1994C77.4444 31.8167 77.6396 30.7038 78.1437 29.8606C78.7243 28.8707 79.6083 28.3758 80.7959 28.3758C81.8225 28.3758 82.6802 28.7476 83.3716 29.4887C84.1738 30.3319 84.6383 31.547 84.765 33.1339C84.8916 34.692 84.6726 35.9071 84.1131 36.7791C84.0762 36.8341 84.0392 36.8891 83.9997 36.9415L85.5831 40.529C86.1029 40.2331 86.578 39.8639 87.0081 39.4213C88.4992 37.892 89.1378 35.8259 88.9293 33.223C88.7499 30.9657 87.974 29.0881 86.607 27.5902Z" fill="white"/>
<path d="M81.3395 40.3091L81.3237 41.0842H82.4928L82.3529 40.3091H81.3395ZM81.2049 37.5124L81.2656 39.0731H82.2289L82.0389 37.5124H81.2049ZM81.0492 34.6475L81.0967 35.8966H81.8884L81.7354 34.6475H81.0492ZM80.9489 32.7883L80.9806 33.621H81.6351L81.5322 32.7883H80.9489ZM80.8645 31.238L80.8856 31.7592H81.4319L81.3685 31.238H80.8645Z" fill="#333333"/>
<path d="M81.6061 34.1472C81.5797 34.1027 81.5428 34.0634 81.4979 34.0373C81.453 34.0111 81.4029 33.9954 81.3528 33.9954C81.3026 33.9954 81.2551 34.0085 81.2155 34.0373C81.1759 34.0634 81.1443 34.1027 81.1258 34.1472L80.0227 36.8445C80.0016 36.8942 79.9963 36.9545 80.0069 37.0094C80.0201 37.0671 80.0491 37.1194 80.0913 37.1613C80.1335 37.2032 80.1863 37.232 80.2417 37.2425C80.2972 37.253 80.3552 37.2451 80.4027 37.2216L81.5692 36.69L82.82 37.2216C82.8728 37.2425 82.9282 37.2504 82.981 37.2373C83.0338 37.2242 83.0813 37.198 83.1156 37.1561C83.1499 37.1142 83.171 37.0644 83.1737 37.0068C83.1763 36.9518 83.1631 36.8942 83.1341 36.8445L81.6061 34.1472Z" fill="white"/>
<path d="M81.6325 36.1374C81.5982 36.1217 81.5612 36.1139 81.5243 36.1139C81.4873 36.1139 81.453 36.1217 81.4187 36.1374L80.7959 36.4202L81.424 34.8831L82.3002 36.4202L81.6325 36.1374ZM81.6061 34.1472C81.5797 34.1027 81.5428 34.0634 81.4979 34.0373C81.453 34.0111 81.4029 33.9954 81.3528 33.9954C81.3026 33.9954 81.2551 34.0085 81.2155 34.0373C81.1759 34.0634 81.1443 34.1027 81.1258 34.1472L80.0227 36.8445C80.0016 36.8942 79.9963 36.9545 80.0069 37.0094C80.0201 37.0671 80.0491 37.1194 80.0913 37.1613C80.1335 37.2032 80.1863 37.232 80.2417 37.2425C80.2972 37.253 80.3552 37.2451 80.4027 37.2216L81.5692 36.69L82.82 37.2216C82.8728 37.2425 82.9282 37.2504 82.981 37.2373C83.0338 37.2242 83.0813 37.198 83.1156 37.1561C83.1499 37.1142 83.171 37.0644 83.1737 37.0068C83.1763 36.9518 83.1631 36.8942 83.1341 36.8445L81.6061 34.1472Z" fill="#333333"/>
<path d="M80.8988 30.2534H80.949L77.9009 41.0868H75.6683L80.8988 30.2534Z" fill="#333333"/>
<path d="M81.0967 30.2534H81.0492L85.8416 41.0868H88.0742L81.0967 30.2534Z" fill="#333333"/>
</g>
<defs>
<clipPath id="clip0_1738_9059">
<rect width="157" height="95" fill="white"/>
</clipPath>
</defs>
</svg>
