<svg width="18" height="21" viewBox="0 0 18 21" fill="none" xmlns="http://www.w3.org/2000/svg">
<path d="M8.91709 0.0469971C4.44744 0.0469971 0.790451 3.70398 0.790451 8.17364C0.790451 13.6591 7.90126 19.8557 8.20601 20.1604C8.40918 20.262 8.71393 20.3636 8.91709 20.3636C9.12026 20.3636 9.42501 20.262 9.62817 20.1604C9.93292 19.8557 17.0437 13.6591 17.0437 8.17364C17.0437 3.70398 13.3867 0.0469971 8.91709 0.0469971ZM8.91709 18.0272C6.78385 15.9955 2.82211 11.6275 2.82211 8.17364C2.82211 4.8214 5.56485 2.07866 8.91709 2.07866C12.2693 2.07866 15.0121 4.8214 15.0121 8.17364C15.0121 11.5259 11.0503 15.9955 8.91709 18.0272ZM8.91709 4.11032C6.68227 4.11032 4.85377 5.93881 4.85377 8.17364C4.85377 10.4085 6.68227 12.237 8.91709 12.237C11.1519 12.237 12.9804 10.4085 12.9804 8.17364C12.9804 5.93881 11.1519 4.11032 8.91709 4.11032ZM8.91709 10.2053C7.79968 10.2053 6.88543 9.29105 6.88543 8.17364C6.88543 7.05622 7.79968 6.14198 8.91709 6.14198C10.0345 6.14198 10.9488 7.05622 10.9488 8.17364C10.9488 9.29105 10.0345 10.2053 8.91709 10.2053Z" fill="#FAAD1D"/>
</svg>
