<svg width="19" height="13" viewBox="0 0 19 13" fill="none" xmlns="http://www.w3.org/2000/svg">
<path d="M1.76915 0.712525C1.65206 0.712669 1.53498 0.713442 1.4179 0.714847C1.30185 0.718715 1.18348 0.724904 1.0682 0.745793C0.893988 0.773325 0.728799 0.841826 0.586226 0.945662C0.443653 1.0495 0.327771 1.1857 0.248114 1.34307C0.193957 1.44983 0.159915 1.55815 0.1398 1.67574C0.118137 1.79025 0.111174 1.90784 0.108853 2.02389C0.107269 2.07778 0.106238 2.13168 0.105759 2.18559L0.105759 11.1269C0.105759 11.181 0.107306 11.2336 0.10808 11.287C0.111174 11.4031 0.118137 11.5215 0.139026 11.6367C0.159915 11.7528 0.194731 11.8619 0.248887 11.9686C0.355572 12.1787 0.526261 12.3494 0.736299 12.456C0.843065 12.5102 0.951379 12.545 1.06898 12.5659C1.18348 12.5868 1.30108 12.5938 1.41713 12.5969L1.57805 12.5992H17.2015L17.3617 12.5969C17.4777 12.5938 17.5961 12.5868 17.7114 12.5659C17.8274 12.545 17.9365 12.511 18.0425 12.4568C18.2531 12.3502 18.4241 12.1792 18.5307 11.9686C18.5848 11.8619 18.6197 11.7536 18.6398 11.636C18.6607 11.5215 18.6676 11.4039 18.6707 11.2878C18.6723 11.2336 18.673 11.181 18.673 11.1269L18.6738 10.9366V2.18482C18.6738 2.13066 18.6723 2.07805 18.6707 2.02467C18.6693 1.90749 18.6589 1.79059 18.6398 1.67497C18.6028 1.44198 18.493 1.22667 18.3263 1.05978C18.1595 0.892904 17.9443 0.783004 17.7114 0.745793C17.5957 0.726728 17.4788 0.716384 17.3617 0.714847C17.2449 0.71154 17.128 0.710766 17.0112 0.712525H1.76915ZM1.76915 1.10864H17.1976C17.2487 1.10864 17.299 1.11019 17.3501 1.11096C17.439 1.11406 17.5435 1.1187 17.6402 1.13572C17.7245 1.1512 17.7949 1.17441 17.8622 1.20845C17.9979 1.27734 18.1082 1.38762 18.1771 1.52333C18.2126 1.59346 18.2371 1.6686 18.2498 1.74615C18.2669 1.84131 18.2715 1.94575 18.2738 2.0355C18.2754 2.08579 18.2761 2.13608 18.2761 2.18791V11.1253C18.2761 11.1756 18.2761 11.2259 18.2738 11.277C18.2715 11.3659 18.2669 11.4704 18.2491 11.5671C18.2323 11.6809 18.1884 11.7891 18.1211 11.8824C18.0538 11.9757 17.965 12.0515 17.8622 12.1033C17.7926 12.1385 17.718 12.163 17.641 12.176C17.5455 12.1912 17.449 12.1994 17.3524 12.2007L17.1976 12.2031H1.58037C1.52931 12.2031 1.47747 12.2015 1.42873 12.2007C1.33155 12.1995 1.23459 12.1912 1.13861 12.176C1.05428 12.1605 0.983873 12.1373 0.91579 12.1033C0.780075 12.0346 0.669971 11.9243 0.60168 11.7884C0.56633 11.7182 0.541811 11.6431 0.528956 11.5656C0.51359 11.4701 0.505315 11.3736 0.504198 11.277C0.50316 11.2262 0.502645 11.1754 0.502651 11.1246V2.18714C0.502651 2.13685 0.502651 2.08579 0.504198 2.03473C0.507293 1.94653 0.511935 1.84286 0.528956 1.7446C0.544429 1.66104 0.567639 1.59064 0.60168 1.52256C0.670616 1.38707 0.780905 1.27705 0.916564 1.20845C0.986603 1.17343 1.06142 1.14892 1.13861 1.13572C1.23532 1.1187 1.33976 1.11329 1.42873 1.11096C1.47902 1.10942 1.53008 1.10942 1.58037 1.10864H1.76915ZM5.41313 3.97122C5.18103 3.9836 4.89632 4.12518 4.7323 4.32401C4.58453 4.49422 4.45378 4.77274 4.48782 5.03424C4.74932 5.05745 5.01005 4.90349 5.17484 4.71085C5.33344 4.51124 5.44175 4.24432 5.41313 3.97199V3.97122ZM7.12061 4.29616V8.54592H7.77978V7.09375H8.69271C9.52672 7.09375 10.1124 6.522 10.1124 5.69186C10.1124 4.86403 9.53833 4.29539 8.7136 4.29539L7.12061 4.29616ZM7.77978 4.85243H8.53952C9.11126 4.85243 9.43775 5.1588 9.43775 5.69495C9.43775 6.23033 9.11126 6.5398 8.5372 6.5398H7.77978V4.85243ZM5.33963 5.08453C4.99148 5.09226 4.69748 5.30115 4.52728 5.30115C4.34546 5.30115 4.06849 5.09691 3.76831 5.10232C3.57304 5.10719 3.38245 5.16311 3.2155 5.2645C3.04855 5.36589 2.91106 5.50923 2.81669 5.68025C2.40897 6.38274 2.70915 7.42488 3.10605 7.99739C3.29869 8.28055 3.53079 8.59234 3.83639 8.58074C4.12497 8.56991 4.2387 8.39351 4.58917 8.39351C4.94042 8.39351 5.04254 8.58074 5.34736 8.57532C5.66457 8.56991 5.8634 8.29216 6.05527 8.00822C6.27654 7.6856 6.36706 7.37381 6.37248 7.35757C6.36706 7.35138 5.76128 7.11928 5.75586 6.4222C5.74967 5.83885 6.23167 5.56111 6.2541 5.54409C5.98177 5.14178 5.5578 5.09691 5.41081 5.0853C5.38711 5.08381 5.36337 5.08407 5.33963 5.08453ZM11.6868 5.39167C10.9209 5.39167 10.4443 5.80404 10.4087 6.3634H11.0098C11.0656 6.08643 11.2953 5.91003 11.6636 5.91003C12.052 5.91003 12.2849 6.11583 12.2849 6.46011V6.69917L11.4361 6.74869C10.7004 6.79047 10.2849 7.12314 10.2849 7.66471C10.2849 8.22175 10.7089 8.59853 11.3154 8.59853C11.7224 8.59853 12.1139 8.38113 12.2934 8.03607H12.3081V8.54592H12.9177V6.4106C12.9177 5.78934 12.438 5.39167 11.6868 5.39167ZM13.1877 5.44738L14.3064 8.54902C14.3064 8.55134 14.25 8.7347 14.25 8.74011C14.1533 9.05732 13.9947 9.18188 13.6999 9.18188C13.6465 9.18188 13.5405 9.18188 13.4933 9.17027V9.68554C13.5397 9.69405 13.6999 9.70024 13.7525 9.70024C14.3946 9.70024 14.701 9.45885 14.9656 8.70762L16.1261 5.44738H15.4546L14.6716 7.96876H14.66L13.8763 5.4466L13.1877 5.44738ZM12.2849 7.14094V7.38542C12.2849 7.7885 11.9367 8.09487 11.4926 8.09487C11.1507 8.09487 10.9271 7.91848 10.9271 7.64692C10.9271 7.38232 11.1421 7.21366 11.522 7.18813L12.2849 7.14094Z" fill="#333333"/>
</svg>
