<svg width="100%" height="100%" viewBox="0 0 214 56" fill="none" xmlns="http://www.w3.org/2000/svg">
<path d="M123.119 17.0831C119.615 17.0831 116.891 18.5474 114.944 21.5084C113.258 24.014 112.414 27.333 112.414 31.4654C112.414 36.2813 113.485 39.9907 115.658 42.5939C117.572 44.8391 120.07 45.9779 123.184 45.9779C126.46 45.9779 129.055 44.7089 130.904 42.1383C132.753 39.5352 133.693 35.9233 133.693 31.2702C133.693 26.552 132.623 22.9076 130.45 20.4021C128.601 18.1894 126.168 17.0831 123.119 17.0831ZM123.184 7.06104C130.417 7.06104 136.159 9.63164 140.44 14.7403C144.106 19.1982 145.955 24.7949 145.955 31.5305C145.955 39.3074 143.587 45.4573 138.819 50.0128C134.667 54.0151 129.444 56 123.184 56C115.82 56 109.981 53.4294 105.667 48.3208C101.937 43.8954 100.088 38.2987 100.088 31.5305C100.088 23.7537 102.391 17.7014 106.965 13.3086C111.376 9.14354 116.793 7.06104 123.184 7.06104Z" fill="#333333"/>
<path d="M179.916 21.0527L168.758 54.8284H155.912L144.494 21.0527H156.172L159.61 32.7669C160.908 37.0295 161.848 41.0644 162.4 44.9365C162.886 41.8453 163.795 37.9731 165.125 33.2875L168.758 21.0527H179.916Z" fill="#333333"/>
<path d="M203.108 34.1985C202.557 29.8057 200.221 27.6256 196.167 27.6256C192.047 27.6256 189.679 29.8057 189.03 34.1985H203.108ZM213.294 44.4809C212.775 46.4658 211.769 48.3206 210.31 50.0126C206.968 53.8197 202.362 55.7395 196.491 55.7395C191.171 55.7395 186.857 54.2752 183.581 51.3142C179.915 48.0277 178.066 43.6675 178.066 38.2334C178.066 32.539 179.98 27.9836 183.775 24.5669C187.052 21.6059 191.139 20.1416 196.037 20.1416C201.973 20.1416 206.514 22.094 209.726 25.9987C212.548 29.4153 213.943 33.9057 213.943 39.4699C213.943 39.8604 213.943 40.2183 213.943 40.5112H188.901C188.998 42.9516 189.712 44.8389 191.042 46.2381C192.371 47.5722 194.188 48.2555 196.491 48.2555C199.313 48.2555 201.454 46.9865 202.914 44.4809H213.294Z" fill="#333333"/>
<path fill-rule="evenodd" clip-rule="evenodd" d="M93.2102 25.706V16.0744H59.2155V25.706H73.1637H75.9209H77.705C74.0719 28.6345 71.7689 30.6519 70.7633 31.6932L57.6584 45.2295V54.8611H94.7024V45.2295H79.5864L75.856 45.3922C75.3695 45.3922 74.5261 45.3271 73.3907 45.2295C74.7856 44.1232 75.9209 43.2121 76.8292 42.4637C78.2564 41.2597 79.262 40.3812 79.8134 39.8605L93.2102 25.706ZM46.8242 8.81813C41.8937 2.92853 35.3088 0 27.0048 0C19.6414 0 13.4458 2.4079 8.38551 7.19117C3.1306 12.2022 0.470703 19.1981 0.470703 28.1139C0.470703 35.8908 2.6116 42.301 6.89338 47.4096C9.03427 49.9477 11.4995 51.9326 14.2892 53.3643L18.6358 41.1621C18.5385 41.0645 18.4412 40.9343 18.3439 40.8367C15.8462 37.8431 14.6136 33.5805 14.6136 28.0488C14.6136 23.3306 15.5867 19.491 17.533 16.6275C19.7712 13.2435 22.8852 11.5514 26.9075 11.5514C30.3783 11.5514 33.2004 12.8205 35.3413 15.3585C37.839 18.2545 39.0716 22.4195 39.0716 27.8536C39.0716 33.19 38.0012 37.355 35.8603 40.3486C35.7305 40.5439 35.5683 40.7391 35.4386 40.9018L39.8177 53.2016C41.6666 52.1929 43.3858 50.9239 44.9429 49.3945C50.3924 44.1557 53.1496 37.0947 53.1496 28.179C53.1496 20.3695 51.0411 13.9593 46.8242 8.81813Z" fill="#FAAD1D"/>
<path d="M25.5134 52.3879L25.2539 55.0562H29.2113L28.9518 52.3879H25.5134ZM25.8054 42.7889L25.5783 48.1253H28.8545L28.6274 42.7889H25.8054ZM26.0648 32.9946L25.8702 37.2572H28.5626L28.3679 32.9946H26.0648ZM26.2595 26.6169L26.1297 29.4803H28.3355L28.2057 26.6169H26.2595ZM26.3892 21.313L26.3244 23.1026H28.1733L28.1084 21.313H26.3892Z" fill="#333333"/>
<path d="M28.1101 31.2701C28.0452 31.1074 27.9155 30.9773 27.7857 30.8797C27.656 30.782 27.4614 30.7495 27.2992 30.7495C27.137 30.7495 26.9748 30.782 26.8126 30.8797C26.6829 30.9773 26.5531 31.1074 26.4882 31.2701L22.0118 40.5113C21.9145 40.674 21.8821 40.8692 21.9145 41.0644C21.9469 41.2597 22.0118 41.4549 22.174 41.5851C22.3038 41.7152 22.4659 41.8128 22.6606 41.8454C22.8552 41.8779 23.0498 41.8454 23.212 41.7803L27.2992 39.9581L31.3863 41.7803C31.5485 41.8454 31.7431 41.8779 31.9378 41.8454C32.1324 41.8128 32.2946 41.7152 32.4243 41.5851C32.5541 41.4549 32.6514 41.2597 32.6514 41.0644C32.6838 40.8692 32.6514 40.674 32.5541 40.5113L28.1101 31.2701Z" fill="white"/>
<path d="M27.656 38.1034C27.5262 38.0383 27.4289 38.0383 27.2992 38.0383C27.1694 38.0383 27.0397 38.0708 26.9424 38.1034L24.769 39.0795L27.3316 33.8082L29.8942 39.0795L27.656 38.1034ZM28.1101 31.2701C28.0452 31.1074 27.9155 30.9773 27.7857 30.8797C27.656 30.782 27.4614 30.7495 27.2992 30.7495C27.137 30.7495 26.9748 30.782 26.8126 30.8797C26.6829 30.9773 26.5531 31.1074 26.4882 31.2701L22.0118 40.5113C21.9145 40.674 21.8821 40.8692 21.9145 41.0644C21.9469 41.2597 22.0118 41.4549 22.174 41.5851C22.3038 41.7152 22.4659 41.8128 22.6606 41.8454C22.8552 41.8779 23.0498 41.8454 23.212 41.7803L27.2992 39.9581L31.3863 41.7803C31.5485 41.8454 31.7431 41.8779 31.9378 41.8454C32.1324 41.8128 32.2946 41.7152 32.4243 41.5851C32.5541 41.4549 32.6514 41.2597 32.6514 41.0644C32.6514 40.8692 32.6514 40.674 32.5541 40.5113L28.1101 31.2701Z" fill="#333333"/>
<path d="M26.7773 17.9292H26.9395L13.6725 55.0239H6.08203L26.7773 17.9292Z" fill="#333333"/>
<path d="M27.4278 17.9292H27.2656L40.5651 55.0239H48.1231L27.4278 17.9292Z" fill="#333333"/>
</svg>
