<svg width="9" height="9" viewBox="0 0 9 9" fill="none" xmlns="http://www.w3.org/2000/svg">
<g clip-path="url(#clip0_2878_1604)">
<path d="M4.77992 1.6074C4.43963 1.6074 4.11329 1.74258 3.87267 1.98319C3.63206 2.22381 3.49688 2.55016 3.49688 2.89044C3.49688 3.23072 3.63206 3.55707 3.87267 3.79768C4.11329 4.0383 4.43963 4.17348 4.77992 4.17348C5.1202 4.17348 5.44655 4.0383 5.68716 3.79768C5.92778 3.55707 6.06296 3.23072 6.06296 2.89044C6.06296 2.55016 5.92778 2.22381 5.68716 1.98319C5.44655 1.74258 5.1202 1.6074 4.77992 1.6074ZM2.85536 2.89044C2.85536 2.38001 3.05813 1.8905 3.41905 1.52957C3.77997 1.16865 4.26949 0.965881 4.77992 0.965881C5.29034 0.965881 5.77986 1.16865 6.14078 1.52957C6.50171 1.8905 6.70447 2.38001 6.70447 2.89044C6.70447 3.40086 6.50171 3.89038 6.14078 4.25131C5.77986 4.61223 5.29034 4.815 4.77992 4.815C4.26949 4.815 3.77997 4.61223 3.41905 4.25131C3.05813 3.89038 2.85536 3.40086 2.85536 2.89044ZM3.49688 6.09803C3.24167 6.09803 2.99691 6.19942 2.81645 6.37988C2.63598 6.56034 2.5346 6.8051 2.5346 7.06031C2.5346 7.14538 2.50081 7.22697 2.44065 7.28712C2.3805 7.34728 2.29891 7.38107 2.21384 7.38107C2.12877 7.38107 2.04718 7.34728 1.98703 7.28712C1.92688 7.22697 1.89308 7.14538 1.89308 7.06031C1.89308 6.63496 2.06205 6.22703 2.36282 5.92626C2.66359 5.62549 3.07153 5.45651 3.49688 5.45651H6.06296C6.48831 5.45651 6.89624 5.62549 7.19701 5.92626C7.49778 6.22703 7.66675 6.63496 7.66675 7.06031C7.66675 7.14538 7.63296 7.22697 7.5728 7.28712C7.51265 7.34728 7.43106 7.38107 7.34599 7.38107C7.26092 7.38107 7.17934 7.34728 7.11918 7.28712C7.05903 7.22697 7.02523 7.14538 7.02523 7.06031C7.02523 6.8051 6.92385 6.56034 6.74339 6.37988C6.56293 6.19942 6.31817 6.09803 6.06296 6.09803H3.49688Z" fill="#FAAD1D"/>
</g>
<defs>
<clipPath id="clip0_2878_1604">
<rect width="7.69823" height="7.69823" fill="white" transform="translate(0.930832 0.324341)"/>
</clipPath>
</defs>
</svg>
