<svg width="13" height="12" viewBox="0 0 13 12" fill="none" xmlns="http://www.w3.org/2000/svg">
<g clip-path="url(#clip0_2878_1596)">
<path d="M10.0266 0.724427H7.25406C7.16787 0.724364 7.08517 0.75842 7.02402 0.819152L1.48129 6.36052C1.35995 6.48245 1.29184 6.64747 1.29184 6.81949C1.29184 6.9915 1.35995 7.15652 1.48129 7.27845L4.12004 9.9172C4.24201 10.0385 4.40706 10.1067 4.57911 10.1067C4.75117 10.1067 4.91622 10.0385 5.03819 9.9172L10.5793 4.37808C10.6401 4.31693 10.6741 4.23422 10.6741 4.14803V1.37397C10.6745 1.28872 10.658 1.20424 10.6257 1.12538C10.5933 1.04651 10.5456 0.974834 10.4855 0.914463C10.4253 0.854091 10.3537 0.80622 10.275 0.773605C10.1962 0.740991 10.1118 0.724278 10.0266 0.724427Z" stroke="#FAAD1D" stroke-width="0.951913" stroke-linecap="round" stroke-linejoin="round"/>
<path d="M8.86973 3.25079C8.72699 3.25079 8.58746 3.20846 8.46877 3.12916C8.35009 3.04986 8.25759 2.93714 8.20296 2.80527C8.14834 2.67339 8.13405 2.52828 8.16189 2.38828C8.18974 2.24829 8.25848 2.11969 8.35941 2.01876C8.46034 1.91782 8.58894 1.84909 8.72894 1.82124C8.86893 1.79339 9.01405 1.80769 9.14592 1.86231C9.2778 1.91693 9.39051 2.00944 9.46981 2.12812C9.54912 2.24681 9.59144 2.38634 9.59144 2.52908C9.59144 2.72049 9.51541 2.90406 9.38006 3.03941C9.24471 3.17475 9.06114 3.25079 8.86973 3.25079Z" fill="#FAAD1D"/>
<path d="M6.11795 10.8287L12.0269 4.91974C12.0563 4.89011 12.0794 4.85488 12.0949 4.81613C12.1104 4.77739 12.118 4.73593 12.1172 4.69421V1.80737" stroke="#FAAD1D" stroke-width="0.951913" stroke-linecap="round" stroke-linejoin="round"/>
</g>
<defs>
<clipPath id="clip0_2878_1596">
<rect width="11.5473" height="11.5473" fill="white" transform="translate(0.930679 0.00305176)"/>
</clipPath>
</defs>
</svg>
