<svg width="60" height="60" viewBox="0 0 60 60" fill="none" xmlns="http://www.w3.org/2000/svg">
<circle cx="28.6185" cy="31.3863" r="27.762" fill="#FAAD1D" fill-opacity="0.5"/>
<path d="M37.5098 0.330078C25.6464 0.330078 15.9399 10.0365 15.9399 21.8999C15.9399 36.4595 34.8135 52.9065 35.6224 53.7154C36.1616 53.985 36.9705 54.2546 37.5098 54.2546C38.049 54.2546 38.8579 53.985 39.3971 53.7154C40.206 52.9065 59.0796 36.4595 59.0796 21.8999C59.0796 10.0365 49.3731 0.330078 37.5098 0.330078ZM37.5098 48.0533C31.8477 42.6608 21.3324 31.0671 21.3324 21.8999C21.3324 13.0023 28.6122 5.72253 37.5098 5.72253C46.4073 5.72253 53.6871 13.0023 53.6871 21.8999C53.6871 30.7974 43.1718 42.6608 37.5098 48.0533ZM37.5098 11.115C31.5781 11.115 26.7248 15.9682 26.7248 21.8999C26.7248 27.8316 31.5781 32.6848 37.5098 32.6848C43.4415 32.6848 48.2947 27.8316 48.2947 21.8999C48.2947 15.9682 43.4415 11.115 37.5098 11.115ZM37.5098 27.2923C34.5439 27.2923 32.1173 24.8657 32.1173 21.8999C32.1173 18.934 34.5439 16.5074 37.5098 16.5074C40.4756 16.5074 42.9022 18.934 42.9022 21.8999C42.9022 24.8657 40.4756 27.2923 37.5098 27.2923Z" fill="#0D0D0D"/>
</svg>
