<svg width="58" height="55" viewBox="0 0 58 55" fill="none" xmlns="http://www.w3.org/2000/svg">
<path d="M57.7241 36.2113C57.7241 46.9311 45.6615 47.0193 34.9417 47.0193C24.2219 47.0193 0.541504 39.8602 0.541504 29.1404C0.541504 18.4206 14.3758 6.39024 34.9417 8.19943C51.8823 4.23823 57.7241 25.4915 57.7241 36.2113Z" fill="#FAAD1D" fill-opacity="0.5"/>
<path d="M14.067 10.3389C18.2198 6.65461 23.5812 4.62397 29.1327 4.63272C41.6886 4.63272 51.8665 14.8106 51.8665 27.3665C51.8739 32.0131 50.4508 36.5493 47.7904 40.3589L41.6363 27.3665H47.3198C47.3198 23.7504 46.2419 20.2163 44.2237 17.2158C42.2055 14.2152 39.3386 11.8844 35.9893 10.5211C32.64 9.15783 28.9603 8.82393 25.4203 9.56207C21.8803 10.3002 18.6407 12.0769 16.1154 14.6651L14.0693 10.3412L14.067 10.3389ZM44.1984 44.3941C40.0456 48.0784 34.6843 50.1091 29.1327 50.1003C16.5768 50.1003 6.39893 39.9224 6.39893 27.3665C6.39893 22.5356 7.90618 18.057 10.4751 14.3742L16.6291 27.3665H10.9457C10.9456 30.9827 12.0235 34.5167 14.0418 37.5173C16.06 40.5178 18.9268 42.8486 22.2762 44.2119C25.6255 45.5752 29.3052 45.9091 32.8451 45.171C36.3852 44.4328 39.6247 42.6561 42.1501 40.0679L44.1961 44.3919L44.1984 44.3941ZM21.1759 31.9133H33.6795C33.981 31.9133 34.2701 31.7935 34.4833 31.5804C34.6964 31.3672 34.8162 31.0781 34.8162 30.7766C34.8162 30.4751 34.6964 30.186 34.4833 29.9728C34.2701 29.7597 33.981 29.6399 33.6795 29.6399H24.586C23.0786 29.6399 21.633 29.0411 20.5672 27.9753C19.5013 26.9094 18.9025 25.4638 18.9025 23.9565C18.9025 22.4491 19.5013 21.0035 20.5672 19.9376C21.633 18.8718 23.0786 18.273 24.586 18.273H26.8593V15.9996H31.4061V18.273H37.0896V22.8198H24.586C24.2845 22.8198 23.9954 22.9395 23.7822 23.1527C23.569 23.3659 23.4493 23.655 23.4493 23.9565C23.4493 24.2579 23.569 24.547 23.7822 24.7602C23.9954 24.9734 24.2845 25.0931 24.586 25.0931H33.6795C35.1868 25.0931 36.6324 25.6919 37.6983 26.7578C38.7641 27.8236 39.3629 29.2692 39.3629 30.7766C39.3629 32.2839 38.7641 33.7295 37.6983 34.7954C36.6324 35.8613 35.1868 36.46 33.6795 36.46H31.4061V38.7334H26.8593V36.46H21.1759V31.9133Z" fill="black"/>
</svg>
