<svg width="81" height="79" viewBox="0 0 81 79" fill="none" xmlns="http://www.w3.org/2000/svg">
<path d="M68.7241 48.2113C68.7241 58.9311 56.6615 59.0193 45.9417 59.0193C35.2219 59.0193 11.5415 51.8602 11.5415 41.1404C11.5415 30.4206 25.3758 18.3902 45.9417 20.1994C62.8823 16.2382 68.7241 37.4915 68.7241 48.2113Z" fill="#FAAD1D" fill-opacity="0.5"/>
<path d="M25.067 22.3389C29.2198 18.6546 34.5812 16.624 40.1327 16.6327C52.6886 16.6327 62.8665 26.8106 62.8665 39.3665C62.8739 44.0131 61.4508 48.5493 58.7904 52.3589L52.6363 39.3665H58.3198C58.3198 35.7504 57.2419 32.2163 55.2237 29.2158C53.2055 26.2152 50.3386 23.8844 46.9893 22.5211C43.64 21.1578 39.9603 20.8239 36.4203 21.5621C32.8803 22.3002 29.6407 24.0769 27.1154 26.6651L25.0693 22.3412L25.067 22.3389ZM55.1984 56.3941C51.0456 60.0784 45.6843 62.1091 40.1327 62.1003C27.5768 62.1003 17.3989 51.9224 17.3989 39.3665C17.3989 34.5356 18.9062 30.057 21.4751 26.3742L27.6291 39.3665H21.9457C21.9456 42.9827 23.0235 46.5167 25.0418 49.5173C27.06 52.5178 29.9268 54.8486 33.2762 56.2119C36.6255 57.5752 40.3052 57.9091 43.8451 57.171C47.3852 56.4328 50.6247 54.6561 53.1501 52.0679L55.1961 56.3919L55.1984 56.3941ZM32.1759 43.9133H44.6795C44.981 43.9133 45.2701 43.7935 45.4833 43.5804C45.6964 43.3672 45.8162 43.0781 45.8162 42.7766C45.8162 42.4751 45.6964 42.186 45.4833 41.9728C45.2701 41.7597 44.981 41.6399 44.6795 41.6399H35.586C34.0786 41.6399 32.633 41.0411 31.5672 39.9753C30.5013 38.9094 29.9025 37.4638 29.9025 35.9565C29.9025 34.4491 30.5013 33.0035 31.5672 31.9376C32.633 30.8718 34.0786 30.273 35.586 30.273H37.8593V27.9996H42.4061V30.273H48.0896V34.8198H35.586C35.2845 34.8198 34.9954 34.9395 34.7822 35.1527C34.569 35.3659 34.4493 35.655 34.4493 35.9565C34.4493 36.2579 34.569 36.547 34.7822 36.7602C34.9954 36.9734 35.2845 37.0931 35.586 37.0931H44.6795C46.1868 37.0931 47.6324 37.6919 48.6983 38.7578C49.7641 39.8236 50.3629 41.2692 50.3629 42.7766C50.3629 44.2839 49.7641 45.7295 48.6983 46.7954C47.6324 47.8613 46.1868 48.46 44.6795 48.46H42.4061V50.7334H37.8593V48.46H32.1759V43.9133Z" fill="black"/>
</svg>
