<svg width="89" height="90" viewBox="0 0 89 90" fill="none" xmlns="http://www.w3.org/2000/svg">
<path d="M79.6267 26.1041V63.9728C79.6267 65.2282 79.1281 66.4322 78.2403 67.32C77.3525 68.2078 76.1485 68.7064 74.8932 68.7064H13.3564C12.101 68.7064 10.8971 68.2078 10.0093 67.32C9.12149 66.4322 8.6228 65.2282 8.6228 63.9728V26.1041C8.6228 24.8487 9.12149 23.6446 10.0093 22.7569C10.8971 21.8692 12.101 21.3705 13.3564 21.3705H74.8932C76.1485 21.3705 77.3525 21.8692 78.2403 22.7569C79.1281 23.6446 79.6267 24.8487 79.6267 26.1041Z" fill="#FAAD1D" fill-opacity="0.5"/>
<g clip-path="url(#clip0_1424_8909)">
<path d="M20.571 53.502V34.7672C20.571 31.3273 21.9255 28.0283 24.3366 25.5959C26.7477 23.1635 30.0178 21.797 33.4275 21.797C36.8373 21.797 40.1074 23.1635 42.5185 25.5959C44.9295 28.0283 46.2841 31.3273 46.2841 34.7672V54.9431C46.2841 56.8542 47.0366 58.687 48.3761 60.0383C49.7155 61.3896 51.5323 62.1488 53.4266 62.1488C55.3209 62.1488 57.1376 61.3896 58.4771 60.0383C59.8166 58.687 60.5691 56.8542 60.5691 54.9431V35.7184C58.6621 35.0384 57.0547 33.7002 56.0311 31.9403C55.0076 30.1803 54.6337 28.112 54.9756 26.1008C55.3175 24.0897 56.3532 22.2652 57.8996 20.95C59.446 19.6347 61.4035 18.9133 63.4261 18.9133C65.4487 18.9133 67.4062 19.6347 68.9526 20.95C70.499 22.2652 71.5347 24.0897 71.8766 26.1008C72.2185 28.112 71.8446 30.1803 70.8211 31.9403C69.7975 33.7002 68.1901 35.0384 66.2831 35.7184V54.9431C66.2831 58.383 64.9286 61.6821 62.5175 64.1144C60.1065 66.5468 56.8363 67.9133 53.4266 67.9133C50.0168 67.9133 46.7467 66.5468 44.3356 64.1144C41.9246 61.6821 40.5701 58.383 40.5701 54.9431V34.7672C40.5701 32.8562 39.8175 31.0234 38.4781 29.672C37.1386 28.3207 35.3219 27.5615 33.4275 27.5615C31.5332 27.5615 29.7165 28.3207 28.377 29.672C27.0375 31.0234 26.285 32.8562 26.285 34.7672V53.502H34.856L23.428 67.9133L12 53.502H20.571Z" fill="black"/>
</g>
<defs>
<clipPath id="clip0_1424_8909">
<rect width="88.25" height="88.25" fill="white" transform="translate(0 0.91333)"/>
</clipPath>
</defs>
</svg>
