<svg width="89" height="90" viewBox="0 0 89 90" fill="none" xmlns="http://www.w3.org/2000/svg">
<path d="M80.8987 19.2989V48.7159C80.8987 49.691 80.5113 50.6263 79.8217 51.316C79.132 52.0056 78.1968 52.393 77.2216 52.393H29.4191C28.4439 52.393 27.5086 52.0056 26.819 51.316C26.1293 50.6263 25.7419 49.691 25.7419 48.7159V19.2989C25.7419 18.3237 26.1293 17.3884 26.819 16.6988C27.5086 16.0092 28.4439 15.6218 29.4191 15.6218H77.2216C78.1968 15.6218 79.132 16.0092 79.8217 16.6988C80.5113 17.3884 80.8987 18.3237 80.8987 19.2989Z" fill="#FAAD1D" fill-opacity="0.5"/>
<path d="M71.6963 67.1015H11.0239V24.8146H14.701V63.4244H71.6963V67.1015ZM80.8891 59.7472H18.3782V19.299H80.8891V59.7472ZM22.0552 56.0701H77.212V22.9761H22.0552V56.0701ZM69.8688 52.3342H60.676V48.6571H69.8688V52.3342ZM40.427 51.7422L36.7499 51.7348L36.7747 27.19L40.4518 27.1965L40.427 51.7422ZM29.3488 32.1385C28.8761 32.1385 28.414 31.9984 28.021 31.7357C27.6279 31.4731 27.3216 31.0997 27.1407 30.6631C26.9597 30.2262 26.9125 29.7458 27.0046 29.2821C27.0969 28.8185 27.3245 28.3926 27.6588 28.0584C27.993 27.7241 28.4188 27.4963 28.8825 27.4042C29.3462 27.3119 29.8268 27.3594 30.2634 27.5403C30.7003 27.7212 31.0735 28.0275 31.3361 28.4206C31.5988 28.8135 31.7389 29.2757 31.7389 29.7484C31.7389 30.3823 31.4872 30.9902 31.039 31.4384C30.5907 31.8866 29.9827 32.1385 29.3488 32.1385Z" fill="black"/>
</svg>
