<svg width="89" height="89" viewBox="0 0 89 89" fill="none" xmlns="http://www.w3.org/2000/svg">
<path d="M50.9118 59.6971C38.022 59.6971 22.5658 29.753 28.0968 20.1754C34.5683 8.96874 68.2249 10.6408 73.7303 20.1754C80.1761 31.3391 61.9721 59.698 50.9118 59.6971Z" fill="#FAAD1D" fill-opacity="0.5"/>
<path d="M66.3208 74.0887L23.454 74.0678L23.1796 72.5704C23.0231 71.7195 22.944 70.8561 22.9436 69.991C22.9436 62.6085 26.8768 58.3745 43.6814 43.4469C59.6142 29.3069 61.3577 25.1587 61.3577 19.6459C61.3577 19.4996 61.3576 19.3523 61.3485 19.206H28.4382C28.4327 19.3523 28.429 19.4996 28.429 19.6459C28.429 24.7681 30.2419 28.7534 40.9867 38.7967L38.4905 41.4694C27.8463 31.5258 24.7703 26.6304 24.7703 19.6459C24.7709 18.7824 24.8438 17.9206 24.9879 17.0693L25.2468 15.5491H64.5399L64.7987 17.0711C64.9428 17.9218 65.0156 18.7831 65.0163 19.6459C65.0163 26.8453 62.1598 31.9365 46.108 46.1854C29.3345 61.0783 26.5997 64.4151 26.5997 69.9928C26.5997 70.1318 26.5997 70.2672 26.6088 70.4108L63.1778 70.4319C63.1833 70.2855 63.187 70.1392 63.187 69.9928C63.187 64.9044 60.7 61.553 49.1859 51.1164L51.6446 48.4081C63.2373 58.9123 66.8457 63.2607 66.8457 69.9928C66.846 70.8678 66.7639 71.7409 66.6006 72.6006L66.3208 74.0887ZM53.9916 66.7594H35.6981V63.1007H53.9916V66.7594Z" fill="black"/>
</svg>
