<svg width="82" height="83" viewBox="0 0 82 83" fill="none" xmlns="http://www.w3.org/2000/svg">
<circle cx="39.6185" cy="43.3863" r="27.762" fill="#FAAD1D" fill-opacity="0.5"/>
<path d="M48.5098 12.3301C36.6464 12.3301 26.9399 22.0365 26.9399 33.8999C26.9399 48.4595 45.8135 64.9065 46.6224 65.7154C47.1616 65.985 47.9705 66.2546 48.5098 66.2546C49.049 66.2546 49.8579 65.985 50.3971 65.7154C51.206 64.9065 70.0796 48.4595 70.0796 33.8999C70.0796 22.0365 60.3731 12.3301 48.5098 12.3301ZM48.5098 60.0533C42.8477 54.6608 32.3324 43.0671 32.3324 33.8999C32.3324 25.0023 39.6122 17.7225 48.5098 17.7225C57.4073 17.7225 64.6871 25.0023 64.6871 33.8999C64.6871 42.7974 54.1718 54.6608 48.5098 60.0533ZM48.5098 23.115C42.5781 23.115 37.7248 27.9682 37.7248 33.8999C37.7248 39.8316 42.5781 44.6848 48.5098 44.6848C54.4415 44.6848 59.2947 39.8316 59.2947 33.8999C59.2947 27.9682 54.4415 23.115 48.5098 23.115ZM48.5098 39.2923C45.5439 39.2923 43.1173 36.8657 43.1173 33.8999C43.1173 30.934 45.5439 28.5074 48.5098 28.5074C51.4756 28.5074 53.9022 30.934 53.9022 33.8999C53.9022 36.8657 51.4756 39.2923 48.5098 39.2923Z" fill="#0D0D0D"/>
</svg>
