<svg width="89" height="90" viewBox="0 0 89 90" fill="none" xmlns="http://www.w3.org/2000/svg">
<circle cx="48.264" cy="43.6848" r="26.1727" fill="#FAAD1D" fill-opacity="0.5"/>
<path d="M27.5803 29.1811C27.5803 29.1811 27.8285 23.4931 33.3614 18.9323C36.6467 16.2244 40.5921 15.4402 44.1273 15.3919C47.3557 15.3523 50.2411 15.8987 51.9665 16.7398C54.9157 18.1842 60.6744 21.7005 60.6744 29.1811C60.6744 37.053 55.6448 40.621 49.9274 44.5526C44.2101 48.4842 42.7484 52.34 42.7484 56.7595" stroke="black" stroke-width="3.53003" stroke-miterlimit="10" stroke-linecap="round"/>
<path d="M42.7483 75.3731C45.7946 75.3731 48.264 72.9037 48.264 69.8575C48.264 66.8112 45.7946 64.3418 42.7483 64.3418C39.7021 64.3418 37.2327 66.8112 37.2327 69.8575C37.2327 72.9037 39.7021 75.3731 42.7483 75.3731Z" fill="black"/>
</svg>
