<svg width="89" height="90" viewBox="0 0 89 90" fill="none" xmlns="http://www.w3.org/2000/svg">
<g clip-path="url(#clip0_109_1277)">
<path d="M26.011 42.4615V24.3107C26.011 23.3552 26.3984 22.439 27.088 21.7635C27.7777 21.088 28.7129 20.7086 29.6881 20.7086H66.4593C67.4344 20.7086 68.3697 21.088 69.0594 21.7635C69.749 22.439 70.1364 23.3552 70.1364 24.3107V42.4651C70.1364 54.3178 60.324 63.9334 48.2208 63.9334H47.9266C35.8234 63.9334 26.011 54.3178 26.011 42.4615Z" fill="#FAAD1D" fill-opacity="0.5"/>
<path d="M40.562 73.5955C39.4182 73.5995 38.2917 73.3217 37.2864 72.7874C36.2811 72.2531 35.4293 71.4797 34.8092 70.5383C33.034 70.7639 31.2335 70.3887 29.7062 69.4742C28.1788 68.56 27.0164 67.1618 26.4115 65.5115C24.8515 65.6485 23.2897 65.2679 21.9769 64.431C21.1505 63.8984 20.4467 63.2027 19.9108 62.3882C19.3746 61.5735 19.0183 60.6585 18.8643 59.7015C18.5259 57.6653 19.1115 55.5364 20.4693 53.8661L22.3079 51.4491L25.256 53.6023L23.3816 56.0633C22.6213 56.999 22.318 58.0723 22.4926 59.1251C22.5627 59.5875 22.7317 60.0304 22.9883 60.4246C23.2452 60.8188 23.584 61.1554 23.9828 61.4124C24.9021 61.9995 26.0493 62.0977 27.1286 61.6969L29.3909 60.8351L29.6226 63.2027C29.6726 63.8344 29.8706 64.4466 30.2012 64.9916C30.5319 65.5363 30.9862 65.9993 31.529 66.3442C32.0719 66.6893 32.6886 66.907 33.3311 66.9809C33.9739 67.0544 34.6253 66.9824 35.2348 66.7696L36.9603 66.2067L37.555 67.8915C37.7838 68.5521 38.2325 69.118 38.8292 69.499C40.1419 70.3473 41.9409 70.1042 43.1047 68.929L45.7403 71.4405C45.0678 72.12 44.263 72.6609 43.3737 73.0308C42.4842 73.401 41.5283 73.5929 40.562 73.5955ZM48.83 73.0958L48.6222 69.5008C51.1017 69.3705 53.4696 68.4488 55.3642 66.8766L66.6714 57.5555L66.1262 54.2082C58.7518 53.9652 51.9886 50.7431 47.1781 45.1815L39.7402 49.2338C38.6427 49.8308 37.4131 50.1562 36.1581 50.1818C34.9029 50.2074 33.6606 49.9323 32.5387 49.3804C31.417 48.8286 30.4497 48.0167 29.7213 47.0151C28.9927 46.0138 28.525 44.8531 28.3586 43.6343L28.2198 42.5915L46.7975 28.6155C47.441 28.1318 48.2293 27.8696 49.0405 27.8698L64.2555 27.8977L77.608 17.8615L79.8446 20.718L65.5039 31.4998L49.0396 31.4719L32.2545 44.0998C32.4677 44.6196 32.7915 45.089 33.2043 45.4769C33.617 45.8647 34.109 46.1623 34.6481 46.3495C35.1872 46.537 35.7606 46.6098 36.3306 46.5635C36.9005 46.5172 37.4539 46.3528 37.954 46.0811L48.158 40.5303L49.1159 41.7811C53.5468 47.5606 60.2456 50.7683 67.5603 50.6133L80.8945 40.5959L83.132 43.4525L69.7362 53.5166L70.3025 56.9891C70.402 57.6042 70.3376 58.2343 70.1155 58.8181C69.8934 59.4018 69.5211 59.9195 69.0348 60.3209L57.7286 69.635C55.2263 71.7071 52.1017 72.9222 48.83 73.0958ZM67.6954 52.3838V52.409H67.7111L67.6954 52.3838ZM17.5947 52.4333L5.67993 43.4812L7.91654 40.6248L19.8295 49.5804L17.5947 52.4333ZM39.1362 31.4963L23.2143 31.4747L8.96544 20.7711L11.2011 17.9173L24.4617 27.8762L39.138 27.8977L39.1362 31.4963Z" fill="black"/>
</g>
<defs>
<clipPath id="clip0_109_1277">
<rect width="88.2508" height="88.2508" fill="white" transform="translate(0.270996 0.913391)"/>
</clipPath>
</defs>
</svg>
