<svg width="100" height="100" viewBox="0 0 100 100" fill="none" xmlns="http://www.w3.org/2000/svg">
<circle cx="50" cy="50" r="50" fill="#FAAD1D"/>
<path d="M26 31C26 27.6863 28.6863 25 32 25H53C56.3138 25 59 27.6863 59 31V43C59 46.3138 56.3138 49 53 49H47L38 58V49H32C28.6863 49 26 46.3138 26 43V31Z" fill="#333333"/>
<path d="M65 41V47C65 53.6273 59.6273 59 53 59H49.4853L44.1852 64.3001C45.0246 64.7468 45.9827 65 47 65H53L62 74V65H68C71.3138 65 74 62.3138 74 59V47C74 43.6863 71.3138 41 68 41H65Z" fill="#333333"/>
</svg>
