<svg width="100%" height="100%" viewBox="0 0 48 49" fill="none" xmlns="http://www.w3.org/2000/svg">
<g clip-path="url(#clip0_1336_10636)">
<path d="M40.626 32.8996C38.4878 30.6396 35.9111 28.8394 33.0534 27.6092C30.1958 26.3789 27.1172 25.7444 24.006 25.7444C20.8948 25.7444 17.8163 26.3789 14.9586 27.6092C12.101 28.8394 9.52428 30.6396 7.38602 32.8996C6.92244 33.3947 6.66497 34.0479 6.66602 34.7262V41.7396C6.66602 42.4468 6.94697 43.1251 7.44707 43.6252C7.94716 44.1253 8.62544 44.4062 9.33269 44.4062H38.666C39.3733 44.4062 40.0515 44.1253 40.5516 43.6252C41.0517 43.1251 41.3327 42.4468 41.3327 41.7396V34.7262C41.3374 34.0497 41.0847 33.3968 40.626 32.8996ZM38.666 41.7396H9.33269V34.7129C11.2223 32.7231 13.4971 31.1387 16.0185 30.0559C18.5399 28.9732 21.2553 28.4149 23.9994 28.4149C26.7434 28.4149 29.4588 28.9732 31.9802 30.0559C34.5016 31.1387 36.7764 32.7231 38.666 34.7129V41.7396Z" fill="#605B5D"/>
<path d="M24.0007 23.0729C26.1425 23.0728 28.2192 22.336 29.8822 20.9862C31.5452 19.6364 32.6934 17.7556 33.134 15.6595C31.933 14.5389 31.0308 13.1361 30.5092 11.5784C29.9877 10.0207 29.8633 8.35747 30.1473 6.73955C29.0139 5.73994 27.6546 5.03053 26.1864 4.67228C24.7183 4.31403 23.185 4.31766 21.7185 4.68286C20.2521 5.04806 18.8962 5.76391 17.7675 6.76887C16.6388 7.77383 15.771 9.03785 15.2387 10.4523C14.7064 11.8667 14.5256 13.3892 14.7117 14.889C14.8978 16.3888 15.4453 17.8209 16.3072 19.0623C17.169 20.3037 18.3195 21.3173 19.6596 22.0159C20.9997 22.7145 22.4894 23.0772 24.0007 23.0729ZM24.0007 7.07288C25.3192 7.07288 26.6081 7.46387 27.7045 8.19641C28.8008 8.92896 29.6553 9.97015 30.1599 11.1883C30.6645 12.4065 30.7965 13.7469 30.5392 15.0401C30.282 16.3334 29.6471 17.5212 28.7147 18.4536C27.7824 19.3859 26.5945 20.0209 25.3013 20.2781C24.0081 20.5353 22.6676 20.4033 21.4494 19.8987C20.2313 19.3942 19.1901 18.5397 18.4575 17.4433C17.725 16.347 17.334 15.0581 17.334 13.7395C17.334 11.9714 18.0364 10.2757 19.2866 9.0255C20.5369 7.77526 22.2326 7.07288 24.0007 7.07288Z" fill="#605B5D"/>
<path d="M40.0007 15.073C43.6825 15.073 46.6673 12.0882 46.6673 8.40629C46.6673 4.72439 43.6825 1.73962 40.0007 1.73962C36.3188 1.73962 33.334 4.72439 33.334 8.40629C33.334 12.0882 36.3188 15.073 40.0007 15.073Z" fill="#FAAD1D"/>
</g>
<defs>
<clipPath id="clip0_1336_10636">
<rect width="48" height="48" fill="white" transform="translate(0 0.40625)"/>
</clipPath>
</defs>
</svg>
