<svg width="72" height="72" viewBox="0 0 72 72" fill="none" xmlns="http://www.w3.org/2000/svg">
<g id="Insurance" clip-path="url(#clip0_65_1171)">
<rect id="Rectangle 766" x="35.8457" y="-0.304688" width="36" height="72" fill="#FAAD1D"/>
<path id="Vector" d="M21 33V18C21 9 27 3 36 3C45 3 51 9 51 18V33M36 45V57M36 69C47.598 69 57 59.598 57 48C57 36.402 47.598 27 36 27C24.402 27 15 36.402 15 48C15 59.598 24.402 69 36 69ZM36 48C37.6569 48 39 46.6569 39 45C39 43.3431 37.6569 42 36 42C34.3431 42 33 43.3431 33 45C33 46.6569 34.3431 48 36 48Z" stroke="white" stroke-width="4"/>
</g>
<defs>
<clipPath id="clip0_65_1171">
<rect width="72" height="72" fill="white"/>
</clipPath>
</defs>
</svg>
