<svg width="100%" height="100%" viewBox="0 0 49 48" fill="none" xmlns="http://www.w3.org/2000/svg">
<rect x="0.5" width="48" height="48" rx="24" fill="#FAAD1D"/>
<path d="M12.5 24H13.8333M24.5 12V13.3333M35.1667 24H36.5M15.9667 15.4667L16.9 16.4M33.0333 15.4667L32.1 16.4" stroke="#333333" stroke-width="2" stroke-linecap="round" stroke-linejoin="round"/>
<path d="M21.1 29.5714C20.0086 28.7619 19.2024 27.6332 18.7957 26.3454C18.3889 25.0575 18.4021 23.6757 18.8336 22.3957C19.265 21.1157 20.0927 20.0024 21.1994 19.2134C22.3061 18.4245 23.6358 18 25 18C26.3642 18 27.6939 18.4245 28.8006 19.2134C29.9073 20.0024 30.735 21.1157 31.1664 22.3957C31.5978 23.6757 31.6111 25.0575 31.2043 26.3454C30.7976 27.6332 29.9914 28.7619 28.9 29.5714C28.3924 30.0683 28.0103 30.6764 27.7844 31.3465C27.5586 32.0166 27.4954 32.7299 27.6 33.4286C27.6 34.1106 27.3261 34.7646 26.8385 35.2468C26.3509 35.7291 25.6896 36 25 36C24.3104 36 23.6491 35.7291 23.1615 35.2468C22.6739 34.7646 22.4 34.1106 22.4 33.4286C22.5046 32.7299 22.4414 32.0166 22.2156 31.3465C21.9897 30.6764 21.6076 30.0683 21.1 29.5714Z" stroke="#333333" stroke-width="2" stroke-linecap="round" stroke-linejoin="round"/>
<path d="M21.5 31H27.5" stroke="#333333" stroke-width="2" stroke-linecap="round" stroke-linejoin="round"/>
</svg>
