<svg width="100%" height="100%" viewBox="0 0 49 48" fill="none" xmlns="http://www.w3.org/2000/svg">
<rect x="0.5" width="48" height="48" rx="24" fill="#FAAD1D"/>
<path d="M15.5039 34.1584C16.8846 34.1584 18.0039 33.0392 18.0039 31.6584C18.0039 30.2777 16.8846 29.1584 15.5039 29.1584C14.1232 29.1584 13.0039 30.2777 13.0039 31.6584C13.0039 33.0392 14.1232 34.1584 15.5039 34.1584Z" stroke="#333333" stroke-width="2" stroke-linecap="round" stroke-linejoin="round"/>
<path d="M33.5039 19.1584C34.8846 19.1584 36.0039 17.8153 36.0039 16.1584C36.0039 14.5016 34.8846 13.1584 33.5039 13.1584C32.1232 13.1584 31.0039 14.5016 31.0039 16.1584C31.0039 17.8153 32.1232 19.1584 33.5039 19.1584Z" stroke="#333333" stroke-width="2" stroke-linecap="round" stroke-linejoin="round"/>
<path d="M34.0039 19.1584V25.6969C34.0039 27.431 33.2796 29.0941 31.9903 30.3203C30.701 31.5465 28.9523 32.2354 27.1289 32.2354H23.0039M23.0039 32.2354L27.1289 28.3123M23.0039 32.2354L27.1289 36.1584" stroke="#333333" stroke-width="2" stroke-linecap="round" stroke-linejoin="round"/>
<path d="M15.0039 29.1584V22.62C15.0039 20.8859 15.7282 19.2228 17.0175 17.9966C18.3069 16.7704 20.0555 16.0815 21.8789 16.0815H26.0039M26.0039 16.0815L21.8789 12.1584M26.0039 16.0815L21.8789 20.0046" stroke="#333333" stroke-width="2" stroke-linecap="round" stroke-linejoin="round"/>
</svg>
