<svg width="100%" height="100%" viewBox="0 0 49 48" fill="none" xmlns="http://www.w3.org/2000/svg">
<g clip-path="url(#clip0_1471_9009)">
<rect x="0.5" width="48" height="48" rx="24" fill="#FAAD1D"/>
<path d="M32.6818 14C27.2655 14 22.8636 18.4833 22.8636 24C22.8636 29.5167 27.2655 34 32.6818 34C38.0982 34 42.5 29.5167 42.5 24C42.5 18.4833 38.0982 14 32.6818 14ZM13.0455 17.3333C9.42909 17.3333 6.5 20.3167 6.5 24C6.5 27.6833 9.42909 30.6667 13.0455 30.6667C16.6618 30.6667 19.5909 27.6833 19.5909 24C19.5909 20.3167 16.6618 17.3333 13.0455 17.3333ZM13.0455 27.3333C11.2455 27.3333 9.77273 25.8333 9.77273 24C9.77273 22.1667 11.2455 20.6667 13.0455 20.6667C14.8455 20.6667 16.3182 22.1667 16.3182 24C16.3182 25.8333 14.8455 27.3333 13.0455 27.3333Z" fill="#333333"/>
</g>
<defs>
<clipPath id="clip0_1471_9009">
<rect x="0.5" width="48" height="48" rx="24" fill="white"/>
</clipPath>
</defs>
</svg>
