<svg width="100%" height="100%" viewBox="0 0 49 48" fill="none" xmlns="http://www.w3.org/2000/svg">
<rect x="0.5" width="48" height="48" rx="24" fill="#FAAD1D"/>
<path d="M12.5 15.9497C12.71 15.8657 12.962 15.7727 13.2545 15.6782C14.7086 15.2197 16.2254 14.991 17.75 15.0002C19.2746 14.991 20.7914 15.2197 22.2455 15.6782C22.538 15.7727 22.79 15.8657 23 15.9497V32.2692C21.2985 31.7508 19.5287 31.4914 17.75 31.4998C15.56 31.4998 13.7765 31.8718 12.5 32.2692V15.9497ZM24.5 13.3277C24.0649 13.1365 23.6204 12.9678 23.168 12.8222C21.4158 12.2679 19.5878 11.9906 17.75 12.0003C15.461 12.0003 13.6175 12.4067 12.332 12.8222C11.8202 12.9863 11.3188 13.1811 10.8305 13.4057C10.649 13.4896 10.4704 13.5797 10.295 13.6757L10.2575 13.6967L10.244 13.7042L10.2395 13.7072C10.2365 13.7102 9.8675 13.9277 10.235 13.7102C10.0111 13.843 9.82557 14.0317 9.6967 14.2579C9.56783 14.4841 9.50005 14.7399 9.5 15.0002V34.4997C9.50005 34.7644 9.57017 35.0245 9.70324 35.2533C9.83631 35.4822 10.0276 35.6718 10.2577 35.8028C10.4877 35.9338 10.7484 36.0016 11.0131 35.9993C11.2778 35.997 11.5373 35.9247 11.765 35.7897L11.7575 35.7942L11.762 35.7927L11.7635 35.7912L11.819 35.7612C11.8745 35.7312 11.966 35.6862 12.092 35.6262C12.347 35.5092 12.737 35.3442 13.2545 35.1762C14.7087 34.7182 16.2254 34.49 17.75 34.4997C19.2746 34.49 20.7913 34.7182 22.2455 35.1762C22.6417 35.3027 23.0299 35.4529 23.408 35.6262C23.5212 35.6786 23.6328 35.7347 23.7425 35.7942M23.7425 35.7942L23.738 35.7927L23.7365 35.7912C24.2075 36.0686 24.7925 36.0686 25.2635 35.7912L25.319 35.7612C25.3745 35.7312 25.466 35.6862 25.592 35.6262C25.9701 35.4529 26.3583 35.3027 26.7545 35.1762C28.2087 34.7182 29.7254 34.49 31.25 34.4997C32.7746 34.49 34.2913 34.7182 35.7455 35.1762C36.1417 35.3027 36.5299 35.4529 36.908 35.6262C37.0192 35.6778 37.1287 35.7328 37.2365 35.7912C37.4643 35.9259 37.7237 35.9979 37.9884 36C38.253 36.002 38.5135 35.934 38.7434 35.8028C38.9732 35.6717 39.1643 35.482 39.2972 35.2532C39.4301 35.0243 39.5001 34.7643 39.5 34.4997V15.0002C39.5 14.7399 39.4322 14.4841 39.3033 14.2579C39.1744 14.0317 38.9889 13.843 38.765 13.7102L38.762 13.7087L38.756 13.7042L38.741 13.6967L38.705 13.6757C38.5296 13.5797 38.351 13.4896 38.1695 13.4057C37.6817 13.1812 37.1808 12.9864 36.6695 12.8222C34.9168 12.2677 33.0883 11.9904 31.25 12.0003C28.9625 12.0003 27.1175 12.4067 25.832 12.8222C25.3795 12.9675 24.9349 13.1362 24.5 13.3277M36.5 15.9497V32.2692C34.7985 31.7508 33.0287 31.4914 31.25 31.4998C29.06 31.4998 27.2765 31.8718 26 32.2692V15.9497C26.21 15.8657 26.462 15.7727 26.7545 15.6782C28.2086 15.2197 29.7254 14.991 31.25 15.0002C32.7746 14.991 34.2914 15.2197 35.7455 15.6782C36.038 15.7727 36.29 15.8657 36.5 15.9497ZM37.235 16.2916L37.2425 16.2946H37.241L37.235 16.2916ZM37.2365 35.7912L37.241 35.7942L37.238 35.7912" fill="#333333"/>
</svg>
