<svg width="72" height="72" viewBox="0 0 72 72" fill="none" xmlns="http://www.w3.org/2000/svg">
<rect x="36" width="36" height="72" fill="#FAAD1D"/>
<path d="M12 20.883V60H60V20.883L48.894 12H23.106L12 20.883ZM6 18L21 6H51L66 18V60C66 61.5913 65.3679 63.1174 64.2426 64.2426C63.1174 65.3679 61.5913 66 60 66H12C10.4087 66 8.88258 65.3679 7.75736 64.2426C6.63214 63.1174 6 61.5913 6 60V18ZM47.622 24C46.9547 26.5747 45.4513 28.855 43.3478 30.4828C41.2443 32.1106 38.6598 32.9938 36 32.9938C33.3402 32.9938 30.7557 32.1106 28.6522 30.4828C26.5487 28.855 25.0453 26.5747 24.378 24H12V18H60V24H47.622ZM41.196 24H30.804C31.3306 24.912 32.088 25.6694 33.0001 26.196C33.9122 26.7225 34.9468 26.9997 36 26.9997C37.0532 26.9997 38.0878 26.7225 38.9999 26.196C39.912 25.6694 40.6694 24.912 41.196 24ZM47.622 45C46.9547 47.5747 45.4513 49.855 43.3478 51.4828C41.2443 53.1106 38.6598 53.9938 36 53.9938C33.3402 53.9938 30.7557 53.1106 28.6522 51.4828C26.5487 49.855 25.0453 47.5747 24.378 45H12V39H60V45H47.622ZM41.196 45H30.804C31.3306 45.912 32.088 46.6694 33.0001 47.196C33.9122 47.7225 34.9468 47.9997 36 47.9997C37.0532 47.9997 38.0878 47.7225 38.9999 47.196C39.912 46.6694 40.6694 45.912 41.196 45Z" fill="white"/>
</svg>
