<svg width="72" height="72" viewBox="0 0 72 72" fill="none" xmlns="http://www.w3.org/2000/svg">
<rect x="36" width="36" height="72" fill="#FAAD1D"/>
<path d="M35.07 6.2469C35.3532 6.0851 35.6738 6 36 6C36.3262 6 36.6468 6.0851 36.93 6.2469L50.9925 14.2833C51.2795 14.4472 51.518 14.6841 51.684 14.9699C51.8499 15.2557 51.9374 15.5803 51.9375 15.9108V30.8924L65.055 38.3925C65.3409 38.5558 65.5787 38.7915 65.7446 39.0759C65.9105 39.3603 65.9986 39.6833 66 40.0126V56.0854C65.9999 56.4159 65.9124 56.7405 65.7465 57.0263C65.5805 57.3121 65.342 57.549 65.055 57.7129L50.9925 65.7493C50.7093 65.9111 50.3887 65.9963 50.0625 65.9963C49.7363 65.9963 49.4157 65.9111 49.1325 65.7493L36 58.2492L22.8675 65.7531C22.5843 65.9149 22.2637 66 21.9375 66C21.6113 66 21.2907 65.9149 21.0075 65.7531L6.945 57.7167C6.65802 57.5528 6.41947 57.3159 6.25352 57.0301C6.08757 56.7443 6.00011 56.4197 6 56.0892V40.0163C6.00011 39.6858 6.08757 39.3612 6.25352 39.0754C6.41947 38.7896 6.65802 38.5527 6.945 38.3888L20.0625 30.8924V15.9108C20.0626 15.5803 20.1501 15.2557 20.316 14.9699C20.482 14.6841 20.7205 14.4472 21.0075 14.2833L35.07 6.2469ZM21.9375 34.14L11.655 40.0163L21.9375 45.8927L32.22 40.0163L21.9375 34.14ZM34.125 43.2489L23.8125 49.1403V60.893L34.125 55.0016V43.2489ZM37.875 55.0016L48.1875 60.893V49.1403L37.875 43.2489V55.0016ZM39.78 40.0163L50.0625 45.8927L60.345 40.0163L50.0625 34.14L39.78 40.0163ZM48.1875 30.8924V19.1397L37.875 25.0348V36.7875L48.1875 30.8924ZM34.125 36.7875V25.0348L23.8125 19.1397V30.8924L34.125 36.7875ZM25.7175 15.9108L36 21.7872L46.2825 15.9108L36 10.0345L25.7175 15.9108ZM62.25 43.2489L51.9375 49.1403V60.893L62.25 55.0016V43.2489ZM20.0625 60.893V49.1403L9.75 43.2489V55.0016L20.0625 60.893Z" fill="white"/>
</svg>
