<svg width="72" height="72" viewBox="0 0 72 72" fill="none" xmlns="http://www.w3.org/2000/svg">
<rect x="36" width="36" height="72" fill="#FAAD1D"/>
<path d="M36 39C42.6274 39 48 33.6274 48 27C48 20.3726 42.6274 15 36 15C29.3726 15 24 20.3726 24 27C24 33.6274 29.3726 39 36 39ZM36 39C26.0589 39 18 47.0589 18 57V66M36 39C45.9411 39 54 47.0589 54 57V66M39 15C40.2112 10.007 45.0454 6 51 6C57.5166 6 62.9416 11.3726 63 18C62.9416 24.6274 57.5166 30 51 30M51 30H48M51 30C60.8626 30 69 38.0589 69 48V54M33 15C31.7888 10.007 26.9546 6 21 6C14.4834 6 9.05844 11.3726 9 18C9.05844 24.6274 14.4834 30 21 30M21 30H24M21 30C11.1374 30 3 38.0589 3 48V54" stroke="white" stroke-width="4"/>
</svg>
