<svg width="73" height="72" viewBox="0 0 73 72" fill="none" xmlns="http://www.w3.org/2000/svg">
<g clip-path="url(#clip0_32_3100)">
<rect x="36.875" width="36" height="72" fill="#FAAD1D"/>
<path d="M36.2759 32.7C29.4659 30.93 27.2759 29.1 27.2759 26.25C27.2759 22.98 30.3059 20.7 35.3759 20.7C40.7159 20.7 42.6959 23.25 42.8759 27H49.5059C49.2959 21.84 46.1459 17.1 39.8759 15.57V9H30.8759V15.48C25.0559 16.74 20.3759 20.52 20.3759 26.31C20.3759 33.24 26.1059 36.69 34.4759 38.7C41.9759 40.5 43.4759 43.14 43.4759 45.93C43.4759 48 42.0059 51.3 35.3759 51.3C29.1959 51.3 26.7659 48.54 26.4359 45H19.8359C20.1959 51.57 25.1159 55.26 30.8759 56.49V63H39.8759V56.55C45.7259 55.44 50.3759 52.05 50.3759 45.9C50.3759 37.38 43.0859 34.47 36.2759 32.7Z" fill="white"/>
</g>
<defs>
<clipPath id="clip0_32_3100">
<rect width="72" height="72" fill="white" transform="translate(0.875)"/>
</clipPath>
</defs>
</svg>
