<svg width="100%" height="100%" viewBox="0 0 97 96" fill="none" xmlns="http://www.w3.org/2000/svg">
<g clip-path="url(#clip0_44_3708)">
<path d="M76.5 80H20.5V84C20.5 85.0609 20.0786 86.0783 19.3284 86.8284C18.5783 87.5786 17.5609 88 16.5 88H12.5C11.4391 88 10.4217 87.5786 9.67157 86.8284C8.92143 86.0783 8.5 85.0609 8.5 84V48L18.552 21.192C19.1237 19.6668 20.1474 18.3524 21.4862 17.4246C22.825 16.4968 24.4151 15.9998 26.044 16H70.956C72.5849 15.9998 74.175 16.4968 75.5138 17.4246C76.8526 18.3524 77.8763 19.6668 78.448 21.192L88.5 48V84C88.5 85.0609 88.0786 86.0783 87.3284 86.8284C86.5783 87.5786 85.5609 88 84.5 88H80.5C79.4391 88 78.4217 87.5786 77.6716 86.8284C76.9214 86.0783 76.5 85.0609 76.5 84V80ZM17.044 48H79.956L70.956 24H26.044L17.044 48ZM26.5 68C28.0913 68 29.6174 67.3679 30.7426 66.2426C31.8679 65.1174 32.5 63.5913 32.5 62C32.5 60.4087 31.8679 58.8826 30.7426 57.7574C29.6174 56.6321 28.0913 56 26.5 56C24.9087 56 23.3826 56.6321 22.2574 57.7574C21.1321 58.8826 20.5 60.4087 20.5 62C20.5 63.5913 21.1321 65.1174 22.2574 66.2426C23.3826 67.3679 24.9087 68 26.5 68ZM70.5 68C72.0913 68 73.6174 67.3679 74.7426 66.2426C75.8679 65.1174 76.5 63.5913 76.5 62C76.5 60.4087 75.8679 58.8826 74.7426 57.7574C73.6174 56.6321 72.0913 56 70.5 56C68.9087 56 67.3826 56.6321 66.2574 57.7574C65.1321 58.8826 64.5 60.4087 64.5 62C64.5 63.5913 65.1321 65.1174 66.2574 66.2426C67.3826 67.3679 68.9087 68 70.5 68Z" fill="#FAAD1D"/>
</g>
<defs>
<clipPath id="clip0_44_3708">
<rect width="96" height="96" fill="white" transform="translate(0.5)"/>
</clipPath>
</defs>
</svg>
