<svg width="100%" height="100%" viewBox="0 0 96 97" fill="none" xmlns="http://www.w3.org/2000/svg">
<rect y="0.0866699" width="96" height="96" rx="48" fill="#FAAD1D"/>
<path d="M81 32.8155C75.781 32.529 70.6033 33.8824 66.1955 36.6852C65.1296 35.4741 64.0341 34.2629 62.8793 33.1109L62.0207 32.3133L62.4352 31.9588C63.8832 30.7187 64.915 29.0653 65.3915 27.2218C65.868 25.3782 65.7663 23.4332 65.1 21.6492C64.1375 19.6351 62.6094 17.9432 60.7014 16.779C58.7934 15.6148 56.5876 15.0285 54.352 15.0912V20.9993C55.4054 20.9847 56.4438 21.2507 57.3598 21.77C58.2758 22.2893 59.0364 23.043 59.5631 23.9533C60.0665 25.135 59.5631 26.4347 58.1715 27.8231L57.4905 28.4435C54.4021 25.876 51.0115 23.6936 47.3939 21.9446C39.9028 18.577 36.0536 20.1426 34.1587 21.9446C33.5812 22.5221 33.119 23.2037 32.7966 23.9533L32.2637 25.519L28 38.3395C31.3754 46.729 39.5475 61.6469 57.3128 68.0867L72.1173 63.183C72.6166 62.9975 73.0564 62.6812 73.3905 62.2672L74.0123 61.7355C78.2464 57.4817 75.5223 49.299 69.8374 41.3526C73.213 39.3872 77.0998 38.4717 81 38.7235V32.8155ZM69.7782 57.5407H69.6006C67.5575 58.6337 59.0894 55.8569 49.4961 46.2859C48.4894 45.2815 47.5419 44.3067 46.6832 43.3318C46.3871 43.0069 46.1207 42.6524 45.8246 42.2979L44.2553 40.4073L43.4263 39.2553C43.0117 38.694 42.5972 38.1327 42.2419 37.601C41.8866 37.0693 41.7682 36.8329 41.5313 36.4489C41.2944 36.0649 40.8799 35.4445 40.6134 34.9424C40.3469 34.4402 40.2285 34.2334 40.0508 33.8494C39.8732 33.4653 39.5475 33.0222 39.3698 32.6087C39.1922 32.1951 39.1034 31.9292 38.9553 31.6043C38.8073 31.2794 38.6296 30.8067 38.5112 30.4227C38.3927 30.0387 38.3631 29.8614 38.3039 29.566C38.2447 29.2706 38.1263 28.857 38.067 28.5616C38.0528 28.3255 38.0528 28.0888 38.067 27.8527C38.0379 27.5975 38.0379 27.3398 38.067 27.0846L38.3927 26.1689C38.8961 25.6371 41.0872 25.4894 44.9955 27.2619C47.6075 28.5137 50.0789 30.0387 52.3682 31.8111C51.1201 32.3606 49.7894 32.7 48.4302 32.8155V38.7235C51.5757 38.5455 54.6279 37.5914 57.3128 35.9467L58.7637 37.3056C60.0665 38.5758 61.2212 39.8461 62.2872 41.0572C60.5019 44.0944 59.7927 47.6424 60.2737 51.1305L66.1955 49.9784C65.9954 48.8648 65.9954 47.7245 66.1955 46.6108C70.0151 52.4303 70.7257 56.625 69.7782 57.5407Z" fill="#333333"/>
<path d="M26.0941 45.0867L19.4822 64.5776C19.005 66.0086 18.8797 67.5301 19.1165 69.0177C19.3534 70.5053 19.9457 71.9168 20.845 73.1368C21.7444 74.3568 22.9252 75.3506 24.291 76.0371C25.6568 76.7236 27.1687 77.0833 28.7033 77.0867C29.7121 77.077 30.7129 76.9101 31.6683 76.5921L51 70.2794C40.0892 64.8122 31.3313 55.9534 26.0941 45.0867Z" fill="#333333"/>
</svg>
