<svg width="100%" height="100%" viewBox="0 0 96 97" fill="none" xmlns="http://www.w3.org/2000/svg">
<g clip-path="url(#clip0_1407_9879)">
<rect y="0.0866699" width="96" height="96" rx="48" fill="#FAAD1D"/>
<path d="M63.7143 29.2296H57.4286V19.8011C57.4286 18.0725 56.0143 16.6582 54.2857 16.6582H41.7143C39.9857 16.6582 38.5714 18.0725 38.5714 19.8011V29.2296H32.2857C28.8286 29.2296 26 32.0582 26 35.5153V70.0868C26 73.5439 28.8286 76.3725 32.2857 76.3725C32.2857 78.1011 33.7 79.5153 35.4286 79.5153C37.1571 79.5153 38.5714 78.1011 38.5714 76.3725H57.4286C57.4286 78.1011 58.8429 79.5153 60.5714 79.5153C62.3 79.5153 63.7143 78.1011 63.7143 76.3725C67.1714 76.3725 70 73.5439 70 70.0868V35.5153C70 32.0582 67.1714 29.2296 63.7143 29.2296ZM37.7857 66.9439C36.4971 66.9439 35.4286 65.8753 35.4286 64.5868V41.0153C35.4286 39.7268 36.4971 38.6582 37.7857 38.6582C39.0743 38.6582 40.1429 39.7268 40.1429 41.0153V64.5868C40.1429 65.8753 39.0743 66.9439 37.7857 66.9439ZM48 66.9439C46.7114 66.9439 45.6429 65.8753 45.6429 64.5868V41.0153C45.6429 39.7268 46.7114 38.6582 48 38.6582C49.2886 38.6582 50.3571 39.7268 50.3571 41.0153V64.5868C50.3571 65.8753 49.2886 66.9439 48 66.9439ZM52.7143 29.2296H43.2857V21.3725H52.7143V29.2296ZM58.2143 66.9439C56.9257 66.9439 55.8571 65.8753 55.8571 64.5868V41.0153C55.8571 39.7268 56.9257 38.6582 58.2143 38.6582C59.5029 38.6582 60.5714 39.7268 60.5714 41.0153V64.5868C60.5714 65.8753 59.5029 66.9439 58.2143 66.9439Z" fill="#333333"/>
</g>
<defs>
<clipPath id="clip0_1407_9879">
<rect y="0.0866699" width="96" height="96" rx="48" fill="white"/>
</clipPath>
</defs>
</svg>
