<svg width="100%" height="100%" viewBox="0 0 96 97" fill="none" xmlns="http://www.w3.org/2000/svg">
<g clip-path="url(#clip0_1407_9864)">
<rect y="0.0866699" width="96" height="96" rx="48" fill="#FAAD1D"/>
<path d="M35.8137 42.7779V49.7987C31.9824 52.0131 29.4068 56.1507 29.4068 60.8867C29.4068 67.9587 35.1409 73.6867 42.2205 73.6867C46.9616 73.6867 51.1036 71.1139 53.3203 67.2867H60.3454C57.709 74.7427 50.5878 80.0867 42.2205 80.0867C31.6044 80.0867 23 71.4915 23 60.8867C23 52.5251 28.3497 45.4147 35.8137 42.7779ZM48.6273 64.0867C43.3193 64.0867 39.0171 59.7891 39.0171 54.4867V41.6867C39.0171 36.3843 43.3193 32.0867 48.6273 32.0867C53.9354 32.0867 58.2376 36.3843 58.2376 41.6867V57.6867H62.8313C64.9071 57.6867 66.8452 58.6915 68.04 60.3619L68.3251 60.7939L77 75.2419L71.5093 78.5315L62.8281 64.0867H48.6273ZM48.6273 16.0867C53.048 16.0867 56.6359 19.6707 56.6359 24.0867C56.6359 28.5027 53.048 32.0867 48.6273 32.0867C44.2066 32.0867 40.6188 28.5027 40.6188 24.0867C40.6188 19.6707 44.2066 16.0867 48.6273 16.0867Z" fill="#333333"/>
</g>
<defs>
<clipPath id="clip0_1407_9864">
<rect y="0.0866699" width="96" height="96" rx="48" fill="white"/>
</clipPath>
</defs>
</svg>
