<svg width="100%" height="100%" viewBox="0 0 96 97" fill="none" xmlns="http://www.w3.org/2000/svg">
<rect y="0.0866699" width="96" height="96" rx="48" fill="#FAAD1D"/>
<path fill-rule="evenodd" clip-rule="evenodd" d="M84.0002 30.5874C84.0002 36.4704 79.2311 41.2395 73.3481 41.2395C73.0759 41.2395 72.8061 41.2293 72.539 41.2092C72.6394 41.4302 72.7433 41.6584 72.8513 41.8943C72.8615 41.9175 72.8724 41.9407 72.883 41.9635C72.8887 41.9758 72.8944 41.9879 72.8998 41.9998H76.7717C77.913 41.9998 77.9215 42.5705 77.9215 44.2824C77.9215 45.6995 77.512 45.9009 76.8916 46.2061C76.825 46.2389 76.7559 46.2729 76.6847 46.3097C76.6847 46.3097 80.9089 48.1343 81.3369 48.8476C81.7648 49.5609 82.4781 53.5555 82.4781 60.2606C82.4781 66.9657 81.9075 73.9561 81.9075 73.9561H80.1956C80.1956 75.8107 79.9102 76.2387 79.3396 76.2387H67.6413C66.7854 76.2387 66.5 75.9534 66.5 73.9561H29.9786C29.9786 75.9534 29.6933 76.2387 28.8373 76.2387H17.4244C16.5684 76.2387 16.2745 75.9534 16.2745 73.9561H14.5711C14.5711 73.9561 14.0005 67.1083 14.0005 60.2606C14.0005 53.4128 14.5711 49.4183 15.1418 48.8476C15.7124 48.277 19.794 46.3097 19.794 46.3097C19.7227 46.2729 19.6537 46.2389 19.587 46.2061C18.9666 45.9009 18.5571 45.6995 18.5571 44.2824C18.5571 42.5705 18.5657 41.9998 19.6984 41.9998H23.5745C23.5836 41.9836 23.5929 41.9682 23.6014 41.9543C23.6183 41.9266 23.6316 41.9047 23.6316 41.8943C24.1048 40.9413 24.4991 40.1176 24.8432 39.3984C26.625 35.6754 27.0662 34.7534 30.194 33.199C35.19 30.7124 44.5644 30.5869 48.2393 30.5869C51.1675 30.5869 57.714 30.6666 62.7832 31.9569C62.7257 31.5085 62.696 31.0514 62.696 30.5874C62.696 24.7044 67.4651 19.9353 73.3481 19.9353C79.2311 19.9353 84.0002 24.7044 84.0002 30.5874ZM73.3481 25.2613C74.0835 25.2613 74.6796 25.8575 74.6796 26.5929V29.2559H77.3426C78.078 29.2559 78.6741 29.852 78.6741 30.5874C78.6741 31.3228 78.078 31.9189 77.3426 31.9189H74.6796V34.5819C74.6796 35.3173 74.0835 35.9134 73.3481 35.9134C72.6127 35.9134 72.0166 35.3173 72.0166 34.5819V31.9189H69.3536C68.6182 31.9189 68.0221 31.3228 68.0221 30.5874C68.0221 29.852 68.6182 29.2559 69.3536 29.2559H72.0166V26.5929C72.0166 25.8575 72.6127 25.2613 73.3481 25.2613ZM21.7641 55.6954C24.3779 55.6886 26.9894 55.5429 29.5877 55.2588L30.5493 55.1247C30.5493 55.1247 30.4066 54.6967 29.7846 54.2459C28.4883 53.2876 27.036 52.5608 25.4919 52.0975C22.4561 51.203 20.8483 51.1302 19.1363 51.1302H18.7083L18.6185 51.5653C18.4928 52.3919 18.4684 53.2308 18.5457 54.0633C18.7321 55.7134 18.8315 55.7128 21.0234 55.6985C21.2476 55.697 21.4938 55.6954 21.7641 55.6954ZM64.2174 67.1083L64.848 65.5305V65.539C65.4185 64.1161 64.6705 63.7488 63.9411 63.3906C63.8661 63.3538 63.7913 63.3171 63.7181 63.2793C61.601 62.1836 55.0871 60.2606 48.2393 60.2606C41.3916 60.2606 35.0046 62.4918 32.819 63.2793C31.6906 63.6844 30.9772 64.3977 31.5479 65.5134C32.3168 67.0213 32.2612 67.1083 32.2612 67.1083H64.2174ZM26.8001 46.0629C27.2613 46.0828 27.7231 46.0795 28.1839 46.0529H68.2919C68.3986 46.0566 68.4968 46.06 68.5876 46.0633C69.1637 46.0837 69.4421 46.0935 69.6885 46.08C69.4657 45.6917 69.3034 45.2772 69.1342 44.845C69.0131 44.5357 68.8885 44.2173 68.7355 43.893C67.5885 41.4691 66.2889 38.7229 63.9649 37.5659C60.6067 35.8882 53.6462 35.1407 48.2393 35.1407C42.8324 35.1407 35.872 35.8939 32.5137 37.5659C30.1897 38.7229 28.8844 41.4677 27.7431 43.893C27.5886 44.2201 27.4625 44.5413 27.3399 44.8533C27.1738 45.2761 27.0144 45.682 26.8001 46.0629ZM77.4217 55.4416C77.6376 55.2205 77.661 54.8114 77.7903 54.0576V54.0633C77.9173 53.2387 77.9408 52.4015 77.8602 51.571C77.8525 51.4578 77.8032 51.3515 77.7219 51.2725C77.6405 51.1935 77.5327 51.1474 77.4194 51.143C75.7317 51.0831 74.0226 51.203 70.9867 52.0975C69.4381 52.5491 67.9838 53.277 66.694 54.2459C66.3688 54.4999 66.4843 55.1861 66.8909 55.2588C69.4892 55.5429 72.1007 55.6886 74.7145 55.6954C76.4766 55.6954 77.1277 55.7428 77.4217 55.4416Z" fill="#333333"/>
</svg>
