<svg width="100%" height="100%" viewBox="0 0 96 97" fill="none" xmlns="http://www.w3.org/2000/svg">
<rect y="0.0866699" width="96" height="96" rx="48" fill="#FAAD1D"/>
<path d="M48 82.0867C29.2223 82.0867 14 66.8645 14 48.0866C14 29.309 29.2224 14.0867 48 14.0867C66.7778 14.0867 82 29.309 82 48.0866C82 66.8645 66.7778 82.0867 48 82.0867ZM44.603 54.8877L44.3171 54.6408C43.3188 53.9003 41.9021 53.9826 40.9968 54.8877L39.5044 56.3799L39.5036 42.9893H56.5027L56.5034 56.3867L54.7626 54.8887L54.4766 54.6415C53.4784 53.9006 52.062 53.9826 51.1562 54.888C50.1603 55.8835 50.16 57.4982 51.1555 58.494L57.2463 64.3427L57.5322 64.5899C58.5305 65.3308 59.9472 65.2485 60.8527 64.3431L66.701 58.4947L66.9482 58.2088C67.6887 57.2105 67.6064 55.7937 66.701 54.8883L66.4151 54.6415C65.4168 53.901 64 53.9832 63.095 54.8883L61.6034 56.3799L61.6024 40.4348L61.5792 40.0888C61.4103 38.8441 60.3433 37.8848 59.0524 37.8848L58.9878 37.8892H50.5523L50.5513 26.8348L50.5282 26.4888C50.3592 25.2441 49.2923 24.2848 48.0013 24.2848L47.6555 24.3081C46.4108 24.4769 45.4513 25.5438 45.4513 26.8348L45.4523 37.8892H37.1001C37.0515 37.8864 37.0026 37.885 36.9534 37.885L36.6073 37.9083C35.3627 38.0772 34.4034 39.1441 34.4034 40.435L34.4044 56.3867L32.9096 54.888L32.6236 54.6408C31.6255 53.8999 30.2088 53.9819 29.3033 54.8873C28.3073 55.8828 28.307 57.4975 29.3027 58.4934L35.1471 64.3431L35.4331 64.5899C36.4314 65.3311 37.8483 65.2488 38.7537 64.3434L44.603 58.494L44.8499 58.2081C45.5907 57.2099 45.5084 55.7931 44.603 54.8877Z" fill="#333333"/>
</svg>
