<svg width="97" height="80" viewBox="0 0 97 80" fill="none" xmlns="http://www.w3.org/2000/svg">
<path d="M75.5 17.875H21.5C18.1863 17.875 15.5 20.0723 15.5 22.7829V42.4145C15.5 45.125 18.1863 47.3224 21.5 47.3224H75.5C78.8137 47.3224 81.5 45.125 81.5 42.4145V22.7829C81.5 20.0723 78.8137 17.875 75.5 17.875Z" stroke="#333333" stroke-width="4" stroke-linecap="round" stroke-linejoin="round"/>
<path d="M75.5 47.3224H21.5C18.1863 47.3224 15.5 49.5197 15.5 52.2303V62.0461C15.5 64.7566 18.1863 66.954 21.5 66.954H75.5C78.8137 66.954 81.5 64.7566 81.5 62.0461V52.2303C81.5 49.5197 78.8137 47.3224 75.5 47.3224Z" stroke="#333333" stroke-width="4" stroke-linecap="round" stroke-linejoin="round"/>
<path d="M75.5 17.875H21.5C19.9101 17.8714 18.3865 17.3531 17.2623 16.4335C16.138 15.5139 15.5045 14.2676 15.5 12.9671C15.5045 11.6666 16.138 10.4203 17.2623 9.50072C18.3865 8.5811 19.9101 8.06285 21.5 8.0592H75.5C77.0899 8.06285 78.6135 8.5811 79.7377 9.50072C80.862 10.4203 81.4955 11.6666 81.5 12.9671C81.4955 14.2676 80.862 15.5139 79.7377 16.4335C78.6135 17.3531 77.0899 17.8714 75.5 17.875Z" stroke="#333333" stroke-width="4" stroke-linecap="round" stroke-linejoin="round"/>
<path d="M27.5 66.954V70.3282C27.5 70.7349 27.3025 71.125 26.9508 71.4127C26.5992 71.7003 26.1223 71.8619 25.625 71.8619H20.375C19.8777 71.8619 19.4008 71.7003 19.0492 71.4127C18.6975 71.125 18.5 70.7349 18.5 70.3282V66.954H27.5Z" stroke="#333333" stroke-width="4" stroke-linecap="round" stroke-linejoin="round"/>
<path d="M78.5 66.954V70.3282C78.5 70.7349 78.3025 71.125 77.9508 71.4127C77.5992 71.7003 77.1223 71.8619 76.625 71.8619H71.375C70.8777 71.8619 70.4008 71.7003 70.0492 71.4127C69.6975 71.125 69.5 70.7349 69.5 70.3282V66.954H78.5Z" stroke="#333333" stroke-width="4" stroke-linecap="round" stroke-linejoin="round"/>
<path d="M69.5 59.5921C71.1569 59.5921 72.5 58.4934 72.5 57.1382C72.5 55.7829 71.1569 54.6842 69.5 54.6842C67.8431 54.6842 66.5 55.7829 66.5 57.1382C66.5 58.4934 67.8431 59.5921 69.5 59.5921Z" stroke="#333333" stroke-width="4" stroke-linejoin="round"/>
<path d="M27.5 59.5921C29.1569 59.5921 30.5 58.4934 30.5 57.1382C30.5 55.7829 29.1569 54.6842 27.5 54.6842C25.8431 54.6842 24.5 55.7829 24.5 57.1382C24.5 58.4934 25.8431 59.5921 27.5 59.5921Z" stroke="#333333" stroke-width="4" stroke-linejoin="round"/>
<path d="M48.5 17.875V47.3224" stroke="#333333" stroke-width="4" stroke-linecap="round" stroke-linejoin="round"/>
<path d="M15.5 12.9672V57.1382" stroke="#333333" stroke-width="4" stroke-linecap="round" stroke-linejoin="round"/>
<path d="M81.5 12.9672V57.1382" stroke="#333333" stroke-width="4" stroke-linecap="round" stroke-linejoin="round"/>
</svg>
