<svg width="100%" height="100%" viewBox="0 0 121 121" fill="none" xmlns="http://www.w3.org/2000/svg">
<rect x="0.638672" y="0.0415039" width="120" height="120" rx="60" fill="#FAAD1D"/>
<g clip-path="url(#clip0_463_2221)">
<path d="M90.0972 30.5831L84.2222 36.4581C90.2222 42.4998 93.9722 50.8331 93.9722 60.0414C93.9722 78.4581 79.0555 93.3748 60.6388 93.3748C42.2222 93.3748 27.3055 78.4581 27.3055 60.0414C27.3055 43.0414 40.0138 29.0414 56.4722 26.9998V35.4164C44.6388 37.4164 35.6388 47.6664 35.6388 60.0414C35.6388 73.8331 46.8472 85.0414 60.6388 85.0414C74.4305 85.0414 85.6388 73.8331 85.6388 60.0414C85.6388 53.1248 82.8472 46.8748 78.3055 42.3748L72.4305 48.2498C75.4305 51.2914 77.3055 55.4581 77.3055 60.0414C77.3055 69.2498 69.8472 76.7081 60.6388 76.7081C51.4305 76.7081 43.9722 69.2498 43.9722 60.0414C43.9722 52.2914 49.3055 45.8331 56.4722 43.9581V52.8748C53.9722 54.3331 52.3055 56.9581 52.3055 60.0414C52.3055 64.6248 56.0555 68.3748 60.6388 68.3748C65.2222 68.3748 68.9722 64.6248 68.9722 60.0414C68.9722 56.9581 67.3055 54.2914 64.8055 52.8748V18.3748H60.6388C37.6388 18.3748 18.9722 37.0414 18.9722 60.0414C18.9722 83.0414 37.6388 101.708 60.6388 101.708C83.6388 101.708 102.306 83.0414 102.306 60.0414C102.306 48.5414 97.6388 38.1248 90.0972 30.5831Z" fill="#333333"/>
</g>
<defs>
<clipPath id="clip0_463_2221">
<rect width="100" height="100" fill="white" transform="translate(10.6387 10.0415)"/>
</clipPath>
</defs>
</svg>
