<svg width="100%" height="100%" viewBox="0 0 121 121" fill="none" xmlns="http://www.w3.org/2000/svg">
<rect x="0.138672" y="0.0415039" width="120" height="120" rx="60" fill="#FAAD1D"/>
<path d="M88.2637 31.9165H32.0137C28.5619 31.9165 25.7637 34.7147 25.7637 38.1665V63.1665C25.7637 66.6183 28.5619 69.4165 32.0137 69.4165H88.2637C91.7155 69.4165 94.5137 66.6183 94.5137 63.1665V38.1665C94.5137 34.7147 91.7155 31.9165 88.2637 31.9165Z" stroke="#333333" stroke-width="5" stroke-linecap="round" stroke-linejoin="round"/>
<path d="M88.2637 69.4165H32.0137C28.5619 69.4165 25.7637 72.2147 25.7637 75.6665V88.1665C25.7637 91.6183 28.5619 94.4165 32.0137 94.4165H88.2637C91.7155 94.4165 94.5137 91.6183 94.5137 88.1665V75.6665C94.5137 72.2147 91.7155 69.4165 88.2637 69.4165Z" stroke="#333333" stroke-width="5" stroke-linecap="round" stroke-linejoin="round"/>
<path d="M88.2637 31.9165H32.0137C30.3575 31.9119 28.7705 31.2519 27.5994 30.0808C26.4283 28.9097 25.7683 27.3227 25.7637 25.6665C25.7683 24.0103 26.4283 22.4233 27.5994 21.2522C28.7705 20.0811 30.3575 19.4211 32.0137 19.4165H88.2637C89.9198 19.4211 91.5069 20.0811 92.678 21.2522C93.8491 22.4233 94.509 24.0103 94.5137 25.6665C94.509 27.3227 93.8491 28.9097 92.678 30.0808C91.5069 31.2519 89.9198 31.9119 88.2637 31.9165Z" stroke="#333333" stroke-width="5" stroke-linecap="round" stroke-linejoin="round"/>
<path d="M38.2637 94.4165V98.7134C38.2637 99.2314 38.0579 99.7282 37.6916 100.094C37.3253 100.461 36.8285 100.667 36.3105 100.667H30.8418C30.3238 100.667 29.827 100.461 29.4607 100.094C29.0944 99.7282 28.8887 99.2314 28.8887 98.7134V94.4165H38.2637Z" stroke="#333333" stroke-width="5" stroke-linecap="round" stroke-linejoin="round"/>
<path d="M91.3887 94.4165V98.7134C91.3887 99.2314 91.1829 99.7282 90.8166 100.094C90.4503 100.461 89.9535 100.667 89.4355 100.667H83.9668C83.4488 100.667 82.952 100.461 82.5857 100.094C82.2194 99.7282 82.0137 99.2314 82.0137 98.7134V94.4165H91.3887Z" stroke="#333333" stroke-width="5" stroke-linecap="round" stroke-linejoin="round"/>
<path d="M82.0137 85.0415C83.7396 85.0415 85.1387 83.6424 85.1387 81.9165C85.1387 80.1906 83.7396 78.7915 82.0137 78.7915C80.2878 78.7915 78.8887 80.1906 78.8887 81.9165C78.8887 83.6424 80.2878 85.0415 82.0137 85.0415Z" stroke="#333333" stroke-width="5" stroke-linejoin="round"/>
<path d="M38.2637 85.0415C39.9896 85.0415 41.3887 83.6424 41.3887 81.9165C41.3887 80.1906 39.9896 78.7915 38.2637 78.7915C36.5378 78.7915 35.1387 80.1906 35.1387 81.9165C35.1387 83.6424 36.5378 85.0415 38.2637 85.0415Z" stroke="#333333" stroke-width="5" stroke-linejoin="round"/>
<path d="M60.1387 31.9165V69.4165" stroke="#333333" stroke-width="5" stroke-linecap="round" stroke-linejoin="round"/>
<path d="M25.7637 25.6665V81.9165" stroke="#333333" stroke-width="5" stroke-linecap="round" stroke-linejoin="round"/>
<path d="M94.5137 25.6665V81.9165" stroke="#333333" stroke-width="5" stroke-linecap="round" stroke-linejoin="round"/>
</svg>
