<svg width="100%" height="100%" viewBox="0 0 121 121" fill="none" xmlns="http://www.w3.org/2000/svg">
<rect x="0.862305" y="0.0415039" width="120" height="120" rx="60" fill="#FAAD1D"/>
<g clip-path="url(#clip0_463_2181)">
<path d="M60.8621 24.6873L25.5079 60.0415L60.8621 95.3957L96.2162 60.0415L60.8621 24.6873ZM63.8079 15.8457L105.058 57.0957C105.839 57.877 106.278 58.9367 106.278 60.0415C106.278 61.1464 105.839 62.206 105.058 62.9873L63.8079 104.237C63.0265 105.018 61.9669 105.457 60.8621 105.457C59.7572 105.457 58.6976 105.018 57.9162 104.237L16.6662 62.9873C15.8851 62.206 15.4463 61.1464 15.4463 60.0415C15.4463 58.9367 15.8851 57.877 16.6662 57.0957L57.9162 15.8457C58.6976 15.0645 59.7572 14.6257 60.8621 14.6257C61.9669 14.6257 63.0265 15.0645 63.8079 15.8457ZM65.0287 51.7082V41.2915L79.6121 55.8748L65.0287 70.4582V60.0415H52.5287V72.5415H44.1954V55.8748C44.1954 54.7698 44.6344 53.71 45.4158 52.9286C46.1972 52.1472 47.257 51.7082 48.3621 51.7082H65.0287Z" fill="#333333"/>
</g>
<defs>
<clipPath id="clip0_463_2181">
<rect width="100" height="100" fill="white" transform="translate(10.8623 10.0415)"/>
</clipPath>
</defs>
</svg>
