<svg width="97" height="80" viewBox="0 0 97 80" fill="none" xmlns="http://www.w3.org/2000/svg">
<path d="M25.8333 53.0482C20.7667 53.0482 16.5 56.5383 16.5 60.6827C16.5 64.8272 20.7667 68.3172 25.8333 68.3172C30.9 68.3172 35.1667 64.8272 35.1667 60.6827C35.1667 56.5383 30.9 53.0482 25.8333 53.0482ZM25.8333 63.9547C23.7 63.9547 21.8333 62.4278 21.8333 60.6827C21.8333 58.9377 23.7 57.4108 25.8333 57.4108C27.9667 57.4108 29.8333 58.9377 29.8333 60.6827C29.8333 62.4278 27.9667 63.9547 25.8333 63.9547Z" fill="#333333"/>
<path d="M63.1668 53.0482C58.1002 53.0482 53.8335 56.5383 53.8335 60.6827C53.8335 64.8272 57.8335 68.3172 63.1668 68.3172C68.2335 68.3172 72.5002 64.8272 72.5002 60.6827C72.5002 56.5383 68.2335 53.0482 63.1668 53.0482ZM63.1668 63.9547C61.0335 63.9547 59.1668 62.4278 59.1668 60.6827C59.1668 58.9377 61.0335 57.4108 63.1668 57.4108C65.3002 57.4108 67.1668 58.9377 67.1668 60.6827C67.1668 62.4278 65.3002 63.9547 63.1668 63.9547Z" fill="#333333"/>
<path d="M88.4997 44.5409V44.3228H88.233L78.8997 32.3257C83.1663 30.3626 85.833 26.8725 85.833 23.1643V21.8556C85.833 16.1842 80.233 11.6035 73.2997 11.6035H50.633C45.5663 11.6035 40.7663 14.2211 38.8997 18.1474H13.833C9.29967 18.1474 5.83301 20.983 5.83301 24.6912V61.7731H11.1663V24.6912C11.1663 23.3825 12.233 22.5099 13.833 22.5099H42.8997L43.1663 20.7649C43.9663 17.9292 46.8997 15.9661 50.3663 15.9661H73.033C77.2997 15.9661 80.4997 18.5836 80.4997 21.8556V22.9462C80.4997 26.2181 77.2997 28.8357 73.2997 28.8357H64.4997V48.4673H85.2997L85.833 49.1216V55.2292C85.833 56.538 84.7663 57.4105 83.1663 57.4105H77.833V61.7731H83.1663C87.6997 61.7731 91.1663 58.9374 91.1663 55.2292V48.031L88.4997 44.5409ZM69.833 44.3228V33.4164H73.833L82.0997 44.3228H69.833Z" fill="#333333"/>
<path d="M72.4998 20.329H51.1665V24.6916H72.4998V20.329Z" fill="#333333"/>
<path d="M53.8333 48.6859H59.1667V29.0543H40.5V61.7736H45.8333V33.4169H53.8333V48.6859Z" fill="#333333"/>
<path d="M16.5 44.3233H35.1667V29.0543H16.5V44.3233ZM21.8333 33.4169H29.8333V39.9608H21.8333V33.4169Z" fill="#333333"/>
</svg>
